<svg width="109" height="15" viewBox="0 0 109 15" fill="none" xmlns="http://www.w3.org/2000/svg">
<path opacity="0.6" d="M3.104 8.8379C3.104 10.1459 3.11 11.2679 3.122 12.2039C3.134 13.1399 3.176 13.8839 3.248 14.4359C3.044 14.4119 2.822 14.3999 2.582 14.3999C2.342 14.3999 2.072 14.3999 1.772 14.3999C1.472 14.3999 1.202 14.3999 0.962 14.3999C0.722 14.3999 0.5 14.4119 0.296 14.4359C0.344 13.6919 0.38 12.9359 0.404 12.1679C0.428 11.3879 0.44 10.4999 0.44 9.5039V7.0559C0.44 6.0599 0.428 5.1779 0.404 4.4099C0.38 3.6299 0.344 2.8499 0.296 2.0699C0.5 2.0939 0.722 2.1179 0.962 2.1419C1.202 2.1539 1.472 2.1599 1.772 2.1599C2.072 2.1599 2.342 2.1539 2.582 2.1419C2.822 2.1179 3.044 2.0939 3.248 2.0699C3.188 2.4299 3.146 2.9699 3.122 3.6899C3.11 4.4099 3.104 5.2079 3.104 6.0839V7.8119C3.512 7.3319 3.95 6.8099 4.418 6.2459C4.886 5.6699 5.336 5.1119 5.768 4.5719C6.2 4.0319 6.59 3.5399 6.938 3.0959C7.286 2.6399 7.538 2.2979 7.694 2.0699C7.862 2.0939 8.03 2.1179 8.198 2.1419C8.366 2.1539 8.534 2.1599 8.702 2.1599C8.87 2.1599 9.038 2.1539 9.206 2.1419C9.386 2.1179 9.578 2.0939 9.782 2.0699C9.578 2.2739 9.266 2.6039 8.846 3.0599C8.426 3.5159 7.976 4.0079 7.496 4.5359C7.028 5.0639 6.578 5.5799 6.146 6.0839C5.714 6.5759 5.378 6.9659 5.138 7.2539C5.522 7.8419 5.948 8.4899 6.416 9.1979C6.884 9.9059 7.346 10.6019 7.802 11.2859C8.27 11.9579 8.702 12.5819 9.098 13.1579C9.494 13.7219 9.812 14.1479 10.052 14.4359C9.704 14.4119 9.392 14.3999 9.116 14.3999C8.84 14.3999 8.57 14.3999 8.306 14.3999C8.042 14.3999 7.778 14.3999 7.514 14.3999C7.262 14.3999 7.004 14.4119 6.74 14.4359C6.128 13.5239 5.528 12.5999 4.94 11.6639C4.352 10.7159 3.752 9.7739 3.14 8.8379H3.104ZM15.3139 11.6999C15.3139 11.1839 15.3139 10.7939 15.3139 10.5299C15.3259 10.2539 15.3319 10.0139 15.3319 9.8099C15.0799 9.9539 14.8099 10.0739 14.5219 10.1699C14.2459 10.2539 13.9879 10.3679 13.7479 10.5119C13.5199 10.6439 13.3279 10.8299 13.1719 11.0699C13.0279 11.3099 12.9559 11.6579 12.9559 12.1139C12.9559 12.5579 13.0459 12.8999 13.2259 13.1399C13.4179 13.3679 13.6699 13.4819 13.9819 13.4819C14.3779 13.4819 14.6959 13.3319 14.9359 13.0319C15.1879 12.7319 15.3139 12.2879 15.3139 11.6999ZM11.0479 6.8039C11.5519 6.3959 12.0919 6.0839 12.6679 5.8679C13.2559 5.6519 13.8379 5.5439 14.4139 5.5439C14.8939 5.5439 15.3319 5.5979 15.7279 5.7059C16.1359 5.8139 16.4839 5.9879 16.7719 6.2279C17.0719 6.4559 17.2999 6.7559 17.4559 7.1279C17.6239 7.4999 17.7079 7.9499 17.7079 8.4779C17.7079 9.2459 17.6959 9.9599 17.6719 10.6199C17.6599 11.2679 17.6539 11.9159 17.6539 12.5639C17.6539 12.8519 17.6719 13.0799 17.7079 13.2479C17.7559 13.4039 17.8219 13.5239 17.9059 13.6079C17.9899 13.6919 18.0979 13.7459 18.2299 13.7699C18.3739 13.7939 18.5359 13.8059 18.7159 13.8059V14.2379C18.3679 14.3819 18.0739 14.4899 17.8339 14.5619C17.5939 14.6339 17.3359 14.6699 17.0599 14.6699C16.6159 14.6699 16.2559 14.5619 15.9799 14.3459C15.7039 14.1299 15.4939 13.8179 15.3499 13.4099C15.0739 13.7939 14.7499 14.0999 14.3779 14.3279C14.0179 14.5559 13.5619 14.6699 13.0099 14.6699C12.5539 14.6699 12.1639 14.6099 11.8399 14.4899C11.5159 14.3699 11.2459 14.2019 11.0299 13.9859C10.8259 13.7579 10.6759 13.5059 10.5799 13.2299C10.4839 12.9419 10.4359 12.6539 10.4359 12.3659C10.4359 11.9699 10.4959 11.6279 10.6159 11.3399C10.7479 11.0519 10.9279 10.8059 11.1559 10.6019C11.3959 10.3979 11.6779 10.2299 12.0019 10.0979C12.3259 9.9539 12.6919 9.8339 13.0999 9.7379C13.6039 9.6179 13.9999 9.5159 14.2879 9.4319C14.5879 9.3359 14.8099 9.2459 14.9539 9.1619C15.0979 9.0659 15.1879 8.9639 15.2239 8.8559C15.2719 8.7479 15.2959 8.6159 15.2959 8.4599C15.2959 8.0279 15.1399 7.6619 14.8279 7.3619C14.5279 7.0499 14.1079 6.8939 13.5679 6.8939C13.3639 6.8939 13.1539 6.9239 12.9379 6.9839C12.7219 7.0319 12.5119 7.1039 12.3079 7.1999C12.1159 7.2959 11.9359 7.4039 11.7679 7.5239C11.6119 7.6319 11.4919 7.7519 11.4079 7.8839H11.2819L11.0479 6.8039ZM20.0839 2.3759C20.0839 1.9799 20.2219 1.6439 20.4979 1.3679C20.7739 1.0919 21.1099 0.953902 21.5059 0.953902C21.9019 0.953902 22.2379 1.0919 22.5139 1.3679C22.7899 1.6439 22.9279 1.9799 22.9279 2.3759C22.9279 2.7719 22.7899 3.1079 22.5139 3.3839C22.2379 3.6599 21.9019 3.7979 21.5059 3.7979C21.1099 3.7979 20.7739 3.6599 20.4979 3.3839C20.2219 3.1079 20.0839 2.7719 20.0839 2.3759ZM20.2999 9.7739C20.2999 9.0419 20.2879 8.3579 20.2639 7.7219C20.2519 7.0739 20.2159 6.4259 20.1559 5.7779C20.3239 5.8019 20.5219 5.8259 20.7499 5.8499C20.9779 5.8619 21.2299 5.8679 21.5059 5.8679C22.0699 5.8679 22.5199 5.8379 22.8559 5.7779C22.7959 6.4259 22.7539 7.0739 22.7299 7.7219C22.7179 8.3579 22.7119 9.0419 22.7119 9.7739V10.4939C22.7119 11.2259 22.7179 11.9159 22.7299 12.5639C22.7539 13.2119 22.7959 13.8359 22.8559 14.4359C22.6999 14.4119 22.5019 14.3999 22.2619 14.3999C22.0339 14.3999 21.7819 14.3999 21.5059 14.3999C21.2299 14.3999 20.9779 14.3999 20.7499 14.3999C20.5219 14.3999 20.3239 14.4119 20.1559 14.4359C20.2159 13.8359 20.2519 13.2119 20.2639 12.5639C20.2879 11.9159 20.2999 11.2259 20.2999 10.4939V9.7739ZM27.5237 7.1279C27.8597 6.6239 28.2497 6.2339 28.6937 5.9579C29.1497 5.6819 29.6657 5.5439 30.2417 5.5439C31.1417 5.5439 31.8317 5.8079 32.3117 6.3359C32.8037 6.8519 33.0497 7.6919 33.0497 8.8559C33.0497 9.4679 33.0377 10.0079 33.0137 10.4759C32.9897 10.9439 32.9777 11.4119 32.9777 11.8799C32.9777 12.2639 32.9837 12.6839 32.9957 13.1399C33.0197 13.5839 33.0437 14.0159 33.0677 14.4359C32.9117 14.4119 32.7137 14.3999 32.4737 14.3999C32.2337 14.3999 31.9817 14.3999 31.7177 14.3999C31.4537 14.3999 31.2017 14.3999 30.9617 14.3999C30.7217 14.3999 30.5237 14.4119 30.3677 14.4359C30.4517 13.8119 30.5057 13.0799 30.5297 12.2399C30.5537 11.3879 30.5657 10.4159 30.5657 9.3239C30.5657 8.5679 30.4337 8.0159 30.1697 7.6679C29.9177 7.3079 29.5577 7.1279 29.0897 7.1279C28.5497 7.1279 28.1537 7.3619 27.9017 7.8299C27.6497 8.2979 27.5237 8.9459 27.5237 9.7739V10.4939C27.5237 11.2259 27.5297 11.9159 27.5417 12.5639C27.5657 13.2119 27.6077 13.8359 27.6677 14.4359C27.5117 14.4119 27.3137 14.3999 27.0737 14.3999C26.8457 14.3999 26.5937 14.3999 26.3177 14.3999C26.0417 14.3999 25.7897 14.3999 25.5617 14.3999C25.3337 14.3999 25.1357 14.4119 24.9677 14.4359C25.0277 13.8359 25.0637 13.2119 25.0757 12.5639C25.0997 11.9159 25.1117 11.2259 25.1117 10.4939V9.7739C25.1117 9.0419 25.0997 8.3579 25.0757 7.7219C25.0637 7.0739 25.0277 6.4259 24.9677 5.7779C25.1837 5.8019 25.3937 5.8259 25.5977 5.8499C25.8137 5.8619 26.0297 5.8679 26.2457 5.8679C26.4617 5.8679 26.6717 5.8619 26.8757 5.8499C27.0917 5.8259 27.3197 5.8019 27.5597 5.7779L27.4877 7.1279H27.5237ZM47.2854 5.6519C47.0694 6.2639 46.8234 6.9539 46.5474 7.7219C46.2714 8.4779 45.9894 9.2519 45.7014 10.0439C45.4254 10.8359 45.1554 11.6159 44.8914 12.3839C44.6274 13.1519 44.3994 13.8359 44.2074 14.4359C43.9314 14.4119 43.6254 14.3999 43.2894 14.3999C43.1334 14.3999 42.9774 14.3999 42.8214 14.3999C42.6654 14.3999 42.5094 14.4119 42.3534 14.4359C42.2214 13.9439 42.0474 13.3079 41.8314 12.5279C41.6154 11.7479 41.3814 10.9199 41.1294 10.0439C40.8774 9.1679 40.6194 8.2859 40.3554 7.3979C40.0914 6.4979 39.8454 5.6759 39.6174 4.9319C39.3894 4.1879 39.1974 3.5579 39.0414 3.0419C38.8854 2.5139 38.7834 2.1899 38.7354 2.0699C38.9994 2.0939 39.2574 2.1179 39.5094 2.1419C39.7614 2.1539 40.0074 2.1599 40.2474 2.1599C40.4874 2.1599 40.7274 2.1539 40.9674 2.1419C41.2194 2.1179 41.4654 2.0939 41.7054 2.0699C41.8854 2.8379 42.0774 3.6299 42.2814 4.4459C42.4854 5.2499 42.6894 6.0479 42.8934 6.8399C43.1094 7.6199 43.3134 8.3819 43.5054 9.1259C43.7094 9.8579 43.8954 10.5359 44.0634 11.1599H44.0994C44.3634 10.4039 44.6454 9.5879 44.9454 8.7119C45.2574 7.8239 45.5574 6.9599 45.8454 6.1199C46.1334 5.2679 46.3974 4.4879 46.6374 3.7799C46.8774 3.0599 47.0634 2.4899 47.1954 2.0699C47.3514 2.0939 47.5014 2.1179 47.6454 2.1419C47.7894 2.1539 47.9394 2.1599 48.0954 2.1599C48.2514 2.1599 48.4014 2.1539 48.5454 2.1419C48.6894 2.1179 48.8394 2.0939 48.9954 2.0699C49.0434 2.3339 49.1334 2.6879 49.2654 3.1319C49.3974 3.5759 49.5474 4.0679 49.7154 4.6079C49.8954 5.1479 50.0814 5.7179 50.2734 6.3179C50.4774 6.9179 50.6754 7.5119 50.8674 8.0999C51.0714 8.6879 51.2574 9.2459 51.4254 9.7739C51.5934 10.3019 51.7314 10.7639 51.8394 11.1599H51.8754C52.1154 10.4039 52.3674 9.5699 52.6314 8.6579C52.9074 7.7459 53.1714 6.8639 53.4234 6.0119C53.6754 5.1599 53.9034 4.3799 54.1074 3.6719C54.3114 2.9639 54.4554 2.4299 54.5394 2.0699C54.8394 2.1299 55.0914 2.1599 55.2954 2.1599C55.4274 2.1599 55.5594 2.1539 55.6914 2.1419C55.8354 2.1179 55.9794 2.0939 56.1234 2.0699C56.0394 2.2979 55.9074 2.6699 55.7274 3.1859C55.5474 3.7019 55.3374 4.3139 55.0974 5.0219C54.8574 5.7179 54.5994 6.4799 54.3234 7.3079C54.0474 8.1359 53.7714 8.9699 53.4954 9.8099C53.2194 10.6499 52.9494 11.4719 52.6854 12.2759C52.4334 13.0799 52.2114 13.7999 52.0194 14.4359C51.7434 14.4119 51.4374 14.3999 51.1014 14.3999C50.9454 14.3999 50.7894 14.3999 50.6334 14.3999C50.4774 14.3999 50.3214 14.4119 50.1654 14.4359C49.7814 12.9719 49.3434 11.5199 48.8514 10.0799C48.3714 8.6279 47.8614 7.1519 47.3214 5.6519H47.2854ZM60.9995 11.6999C60.9995 11.1839 60.9995 10.7939 60.9995 10.5299C61.0115 10.2539 61.0175 10.0139 61.0175 9.8099C60.7655 9.9539 60.4955 10.0739 60.2075 10.1699C59.9315 10.2539 59.6735 10.3679 59.4335 10.5119C59.2055 10.6439 59.0135 10.8299 58.8575 11.0699C58.7135 11.3099 58.6415 11.6579 58.6415 12.1139C58.6415 12.5579 58.7315 12.8999 58.9115 13.1399C59.1035 13.3679 59.3555 13.4819 59.6675 13.4819C60.0635 13.4819 60.3815 13.3319 60.6215 13.0319C60.8735 12.7319 60.9995 12.2879 60.9995 11.6999ZM56.7335 6.8039C57.2375 6.3959 57.7775 6.0839 58.3535 5.8679C58.9415 5.6519 59.5235 5.5439 60.0995 5.5439C60.5795 5.5439 61.0175 5.5979 61.4135 5.7059C61.8215 5.8139 62.1695 5.9879 62.4575 6.2279C62.7575 6.4559 62.9855 6.7559 63.1415 7.1279C63.3095 7.4999 63.3935 7.9499 63.3935 8.4779C63.3935 9.2459 63.3815 9.9599 63.3575 10.6199C63.3455 11.2679 63.3395 11.9159 63.3395 12.5639C63.3395 12.8519 63.3575 13.0799 63.3935 13.2479C63.4415 13.4039 63.5075 13.5239 63.5915 13.6079C63.6755 13.6919 63.7835 13.7459 63.9155 13.7699C64.0595 13.7939 64.2215 13.8059 64.4015 13.8059V14.2379C64.0535 14.3819 63.7595 14.4899 63.5195 14.5619C63.2795 14.6339 63.0215 14.6699 62.7455 14.6699C62.3015 14.6699 61.9415 14.5619 61.6655 14.3459C61.3895 14.1299 61.1795 13.8179 61.0355 13.4099C60.7595 13.7939 60.4355 14.0999 60.0635 14.3279C59.7035 14.5559 59.2475 14.6699 58.6955 14.6699C58.2395 14.6699 57.8495 14.6099 57.5255 14.4899C57.2015 14.3699 56.9315 14.2019 56.7155 13.9859C56.5115 13.7579 56.3615 13.5059 56.2655 13.2299C56.1695 12.9419 56.1215 12.6539 56.1215 12.3659C56.1215 11.9699 56.1815 11.6279 56.3015 11.3399C56.4335 11.0519 56.6135 10.8059 56.8415 10.6019C57.0815 10.3979 57.3635 10.2299 57.6875 10.0979C58.0115 9.9539 58.3775 9.8339 58.7855 9.7379C59.2895 9.6179 59.6855 9.5159 59.9735 9.4319C60.2735 9.3359 60.4955 9.2459 60.6395 9.1619C60.7835 9.0659 60.8735 8.9639 60.9095 8.8559C60.9575 8.7479 60.9815 8.6159 60.9815 8.4599C60.9815 8.0279 60.8255 7.6619 60.5135 7.3619C60.2135 7.0499 59.7935 6.8939 59.2535 6.8939C59.0495 6.8939 58.8395 6.9239 58.6235 6.9839C58.4075 7.0319 58.1975 7.1039 57.9935 7.1999C57.8015 7.2959 57.6215 7.4039 57.4535 7.5239C57.2975 7.6319 57.1775 7.7519 57.0935 7.8839H56.9675L56.7335 6.8039ZM68.2355 8.0099C68.5475 7.1819 68.9255 6.5759 69.3695 6.1919C69.8135 5.7959 70.3415 5.5979 70.9535 5.5979C71.0135 5.5979 71.0615 5.6039 71.0975 5.6159C71.1455 5.6159 71.1935 5.6159 71.2415 5.6159C71.2055 5.7959 71.1755 5.9879 71.1515 6.1919C71.1395 6.3959 71.1335 6.6359 71.1335 6.9119V7.4879C71.1335 7.5839 71.1335 7.6859 71.1335 7.7939C71.1335 7.9019 71.1395 8.0039 71.1515 8.0999L70.9895 8.2439C70.8695 8.1719 70.7315 8.1119 70.5755 8.0639C70.4315 8.0159 70.2635 7.9919 70.0715 7.9919C69.5315 7.9919 69.1055 8.1719 68.7935 8.5319C68.4815 8.8799 68.3255 9.2939 68.3255 9.7739V10.4939C68.3255 11.2259 68.3315 11.9159 68.3435 12.5639C68.3675 13.2119 68.4095 13.8359 68.4695 14.4359C68.3135 14.4119 68.1155 14.3999 67.8755 14.3999C67.6475 14.3999 67.3955 14.3999 67.1195 14.3999C66.8435 14.3999 66.5915 14.3999 66.3635 14.3999C66.1355 14.3999 65.9375 14.4119 65.7695 14.4359C65.8295 13.8359 65.8655 13.2119 65.8775 12.5639C65.9015 11.9159 65.9135 11.2259 65.9135 10.4939V9.7739C65.9135 9.0419 65.9015 8.3579 65.8775 7.7219C65.8655 7.0739 65.8295 6.4259 65.7695 5.7779C65.9735 5.8019 66.1775 5.8259 66.3815 5.8499C66.5975 5.8619 66.8075 5.8679 67.0115 5.8679C67.2155 5.8679 67.4195 5.8619 67.6235 5.8499C67.8395 5.8259 68.0495 5.8019 68.2535 5.7779L68.1995 7.9739L68.2355 8.0099ZM82.1615 12.0059C82.8215 9.9179 83.4275 7.8419 83.9795 5.7779C84.2435 5.8379 84.4775 5.8679 84.6815 5.8679C84.8015 5.8679 84.9155 5.8619 85.0235 5.8499C85.1435 5.8259 85.2815 5.8019 85.4375 5.7779C85.3535 5.9339 85.2395 6.1919 85.0955 6.5519C84.9515 6.9119 84.7895 7.3379 84.6095 7.8299C84.4415 8.3219 84.2555 8.8619 84.0515 9.4499C83.8595 10.0259 83.6675 10.6079 83.4755 11.1959C83.2835 11.7839 83.0915 12.3599 82.8995 12.9239C82.7195 13.4879 82.5575 13.9919 82.4135 14.4359C82.2455 14.4119 82.0775 14.3999 81.9095 14.3999C81.7535 14.3999 81.5915 14.3999 81.4235 14.3999C81.2555 14.3999 81.0875 14.3999 80.9195 14.3999C80.7515 14.3999 80.5835 14.4119 80.4155 14.4359C80.2715 13.9799 80.1215 13.4939 79.9655 12.9779C79.8095 12.4499 79.6535 11.9339 79.4975 11.4299C79.3415 10.9139 79.1915 10.4159 79.0475 9.9359C78.9035 9.4439 78.7715 8.9879 78.6515 8.5679H78.6155C78.3035 9.5759 77.9915 10.5659 77.6795 11.5379C77.3795 12.5099 77.0915 13.4759 76.8155 14.4359C76.6475 14.4119 76.4735 14.3999 76.2935 14.3999C76.1255 14.3999 75.9575 14.3999 75.7895 14.3999C75.6215 14.3999 75.4475 14.3999 75.2675 14.3999C75.0875 14.3999 74.9075 14.4119 74.7275 14.4359C74.5955 13.9919 74.4395 13.4819 74.2595 12.9059C74.0915 12.3179 73.9115 11.7239 73.7195 11.1239C73.5275 10.5239 73.3355 9.9299 73.1435 9.3419C72.9515 8.7539 72.7715 8.2199 72.6035 7.7399C72.4475 7.2479 72.3095 6.8279 72.1895 6.4799C72.0695 6.1319 71.9855 5.8979 71.9375 5.7779C72.2015 5.8019 72.4415 5.8259 72.6575 5.8499C72.8855 5.8619 73.1135 5.8679 73.3415 5.8679C73.5575 5.8679 73.7735 5.8619 73.9895 5.8499C74.2175 5.8259 74.4395 5.8019 74.6555 5.7779C74.9435 6.8219 75.2435 7.8959 75.5555 8.9999C75.8675 10.0919 76.1615 11.0939 76.4375 12.0059H76.4735C76.8215 10.9499 77.1395 9.9119 77.4275 8.8919C77.7155 7.8719 78.0035 6.8339 78.2915 5.7779C78.4595 5.8019 78.6275 5.8259 78.7955 5.8499C78.9635 5.8619 79.1315 5.8679 79.2995 5.8679C79.4675 5.8679 79.6355 5.8619 79.8035 5.8499C79.9715 5.8259 80.1395 5.8019 80.3075 5.7779C80.5955 6.8339 80.8895 7.8719 81.1895 8.8919C81.4895 9.9119 81.8015 10.9499 82.1255 12.0059H82.1615ZM86.7753 2.3759C86.7753 1.9799 86.9133 1.6439 87.1893 1.3679C87.4653 1.0919 87.8013 0.953902 88.1973 0.953902C88.5933 0.953902 88.9293 1.0919 89.2053 1.3679C89.4813 1.6439 89.6193 1.9799 89.6193 2.3759C89.6193 2.7719 89.4813 3.1079 89.2053 3.3839C88.9293 3.6599 88.5933 3.7979 88.1973 3.7979C87.8013 3.7979 87.4653 3.6599 87.1893 3.3839C86.9133 3.1079 86.7753 2.7719 86.7753 2.3759ZM86.9913 9.7739C86.9913 9.0419 86.9793 8.3579 86.9553 7.7219C86.9433 7.0739 86.9073 6.4259 86.8473 5.7779C87.0153 5.8019 87.2133 5.8259 87.4413 5.8499C87.6693 5.8619 87.9213 5.8679 88.1973 5.8679C88.7613 5.8679 89.2113 5.8379 89.5473 5.7779C89.4873 6.4259 89.4453 7.0739 89.4213 7.7219C89.4093 8.3579 89.4033 9.0419 89.4033 9.7739V10.4939C89.4033 11.2259 89.4093 11.9159 89.4213 12.5639C89.4453 13.2119 89.4873 13.8359 89.5473 14.4359C89.3913 14.4119 89.1933 14.3999 88.9533 14.3999C88.7253 14.3999 88.4733 14.3999 88.1973 14.3999C87.9213 14.3999 87.6693 14.3999 87.4413 14.3999C87.2133 14.3999 87.0153 14.4119 86.8473 14.4359C86.9073 13.8359 86.9433 13.2119 86.9553 12.5639C86.9793 11.9159 86.9913 11.2259 86.9913 10.4939V9.7739ZM98.2111 8.2619C98.1151 7.7219 97.9231 7.2899 97.6351 6.9659C97.3591 6.6299 96.9451 6.4619 96.3931 6.4619C95.6731 6.4619 95.1331 6.7919 94.7731 7.4519C94.4131 8.0999 94.2331 9.0059 94.2331 10.1699C94.2331 11.2619 94.4611 12.1019 94.9171 12.6899C95.3731 13.2659 96.0391 13.5539 96.9151 13.5539C97.2871 13.5539 97.6471 13.4699 97.9951 13.3019C98.3431 13.1219 98.6011 12.9239 98.7691 12.7079L98.9851 12.8879C98.9011 13.0559 98.8291 13.2299 98.7691 13.4099C98.7091 13.5899 98.6491 13.7699 98.5891 13.9499C98.3251 14.1539 97.9891 14.3219 97.5811 14.4539C97.1851 14.5979 96.7111 14.6699 96.1591 14.6699C95.2831 14.6699 94.5451 14.5439 93.9451 14.2919C93.3451 14.0399 92.8591 13.6979 92.4871 13.2659C92.1271 12.8339 91.8691 12.3479 91.7131 11.8079C91.5571 11.2559 91.4791 10.7039 91.4791 10.1519C91.4791 9.4919 91.5871 8.8799 91.8031 8.3159C92.0311 7.7519 92.3491 7.2659 92.7571 6.8579C93.1771 6.4499 93.6811 6.1319 94.2691 5.9039C94.8571 5.6639 95.5111 5.5439 96.2311 5.5439C96.9151 5.5439 97.4911 5.6219 97.9591 5.7779C98.4391 5.9339 98.8951 6.1379 99.3271 6.3899C99.1831 6.6299 99.0451 6.9239 98.9131 7.2719C98.7931 7.6199 98.7031 7.9499 98.6431 8.2619H98.2111ZM100.487 7.0919C100.487 5.9159 100.475 4.8359 100.451 3.8519C100.427 2.8679 100.391 1.8719 100.343 0.863902C100.499 0.887901 100.697 0.911901 100.937 0.935902C101.177 0.947902 101.429 0.953902 101.693 0.953902C101.957 0.953902 102.209 0.947902 102.449 0.935902C102.689 0.911901 102.887 0.887901 103.043 0.863902C103.019 1.3679 102.995 1.8779 102.971 2.3939C102.959 2.9099 102.947 3.4919 102.935 4.1399C102.923 4.7879 102.911 5.5319 102.899 6.3719C102.899 7.1999 102.899 8.1899 102.899 9.3419C102.899 9.5099 102.899 9.6179 102.899 9.6659C102.911 9.7139 102.941 9.7379 102.989 9.7379C103.037 9.7379 103.151 9.6479 103.331 9.4679C103.523 9.2759 103.763 9.0059 104.051 8.6579C104.351 8.3099 104.693 7.8959 105.077 7.4159C105.473 6.9239 105.905 6.3779 106.373 5.7779C106.517 5.8019 106.655 5.8259 106.787 5.8499C106.931 5.8619 107.075 5.8679 107.219 5.8679C107.351 5.8679 107.495 5.8619 107.651 5.8499C107.807 5.8259 107.999 5.8019 108.227 5.7779C108.071 5.9579 107.837 6.2039 107.525 6.5159C107.225 6.8279 106.913 7.1519 106.589 7.4879C106.265 7.8119 105.959 8.1239 105.671 8.4239C105.383 8.7239 105.173 8.9459 105.041 9.0899C105.089 9.1619 105.191 9.3299 105.347 9.5939C105.515 9.8579 105.713 10.1759 105.941 10.5479C106.169 10.9079 106.409 11.2979 106.661 11.7179C106.913 12.1259 107.147 12.5219 107.363 12.9059C107.591 13.2779 107.789 13.6079 107.957 13.8959C108.125 14.1719 108.233 14.3519 108.281 14.4359C108.029 14.4119 107.789 14.3999 107.561 14.3999C107.333 14.3999 107.099 14.3999 106.859 14.3999C106.619 14.3999 106.385 14.3999 106.157 14.3999C105.941 14.3999 105.719 14.4119 105.491 14.4359C105.431 14.3759 105.329 14.2259 105.185 13.9859C105.053 13.7459 104.897 13.4759 104.717 13.1759C104.549 12.8639 104.369 12.5399 104.177 12.2039C103.997 11.8679 103.823 11.5619 103.655 11.2859C103.487 10.9979 103.337 10.7639 103.205 10.5839C103.073 10.4039 102.983 10.3139 102.935 10.3139C102.887 10.3139 102.851 10.3499 102.827 10.4219C102.815 10.4939 102.809 10.7159 102.809 11.0879V12.0959C102.809 12.2519 102.809 12.4439 102.809 12.6719C102.821 12.8999 102.827 13.1339 102.827 13.3739C102.839 13.6019 102.851 13.8179 102.863 14.0219C102.887 14.2259 102.911 14.3639 102.935 14.4359C102.719 14.4119 102.503 14.3999 102.287 14.3999C102.071 14.3999 101.855 14.3999 101.639 14.3999C101.423 14.3999 101.207 14.3999 100.991 14.3999C100.775 14.3999 100.559 14.4119 100.343 14.4359C100.391 13.4639 100.427 12.4859 100.451 11.5019C100.475 10.5179 100.487 9.4379 100.487 8.2619V7.0919Z" fill="white"/>
</svg>
    