<svg width="157" height="47" viewBox="0 0 157 47" fill="none" xmlns="http://www.w3.org/2000/svg">
<g opacity="0.6">
<path fill-rule="evenodd" clip-rule="evenodd" d="M77.2441 13.7157C76.8229 13.9068 76.2692 14.2889 76.0134 14.5649C75.7578 14.8406 75.4342 15.3403 75.2942 15.6753C75.1543 16.0101 75.0398 16.6288 75.0398 17.0502C75.0398 17.4715 75.155 18.0893 75.2958 18.4232C75.4365 18.7571 75.8212 19.2885 76.1508 19.6042C76.4802 19.9197 76.9928 20.2698 77.2898 20.382C77.5868 20.4939 78.2348 20.5857 78.7298 20.5857C79.2248 20.5857 79.8631 20.497 80.1484 20.3884C80.4335 20.2799 80.9087 20.0191 81.2041 19.8087C81.4997 19.5982 81.9338 19.0129 82.1689 18.508C82.404 18.0033 82.5966 17.3877 82.5971 17.1402C82.5975 16.8927 82.5129 16.3842 82.409 16.0103C82.3052 15.6363 81.9621 15.0363 81.6465 14.677C81.331 14.3176 80.7482 13.8762 80.3514 13.6959C79.9545 13.5155 79.2653 13.3681 78.8198 13.3681C78.3743 13.3681 77.6653 13.5245 77.2441 13.7157ZM89.3777 13.6228C88.9972 13.7585 88.4802 14.0585 88.229 14.2898C87.9779 14.521 87.6227 15.0342 87.44 15.4302C87.2525 15.8368 87.1059 16.5647 87.1038 17.1024C87.1013 17.6884 87.2309 18.3112 87.4407 18.7224C87.6281 19.0896 87.932 19.5221 88.1157 19.6834C88.2995 19.8448 88.709 20.108 89.0258 20.2684C89.3428 20.4289 90.0135 20.5602 90.5166 20.5602C91.0197 20.5602 91.7314 20.4349 92.0981 20.2815C92.4649 20.1283 92.9482 19.8308 93.1723 19.6202C93.3964 19.4096 93.5798 19.1734 93.5798 19.0953C93.5798 19.017 93.2798 18.7492 92.9129 18.4999L92.246 18.0468L91.8228 18.4444C91.5361 18.7137 91.1738 18.8421 90.6998 18.8421C90.21 18.8421 89.8628 18.713 89.5428 18.4122C89.2911 18.1759 89.0343 17.7108 88.972 17.3783C88.9076 17.0347 88.9558 16.5397 89.084 16.2301C89.208 15.9307 89.4783 15.5675 89.6846 15.423C89.8911 15.2784 90.3549 15.1602 90.7157 15.1602C91.0929 15.1602 91.5606 15.309 91.8173 15.511C92.2626 15.8613 92.2642 15.8611 92.9216 15.4145C93.2835 15.1684 93.5798 14.9042 93.5798 14.8273C93.5798 14.7505 93.3572 14.4808 93.0848 14.2283C92.8125 13.9758 92.3144 13.6771 91.978 13.5646C91.6414 13.4521 91.0744 13.3638 90.718 13.3681C90.3614 13.3724 89.7584 13.4871 89.3777 13.6228ZM110.768 13.6959C110.371 13.8762 109.789 14.3176 109.473 14.677C109.158 15.0363 108.814 15.6363 108.711 16.0103C108.607 16.3842 108.522 16.8522 108.522 17.0502C108.522 17.2482 108.607 17.7162 108.711 18.09C108.814 18.4641 109.157 19.0633 109.472 19.4218C109.787 19.7804 110.306 20.1832 110.626 20.317C110.946 20.4507 111.619 20.5602 112.12 20.5602C112.621 20.5602 113.331 20.4349 113.698 20.2815C114.065 20.1283 114.548 19.8308 114.772 19.6202C114.996 19.4096 115.18 19.1814 115.18 19.1128C115.18 19.0442 114.863 18.7782 114.475 18.5218C113.881 18.1287 113.738 18.0954 113.561 18.3087C113.446 18.4479 113.069 18.6547 112.725 18.7684C112.244 18.9272 111.974 18.9234 111.561 18.7522C111.265 18.6297 110.905 18.3019 110.761 18.0238C110.618 17.7457 110.5 17.2366 110.5 16.8928C110.5 16.483 110.66 16.0771 110.966 15.714C111.35 15.257 111.563 15.1609 112.181 15.1641C112.637 15.1666 113.105 15.3027 113.378 15.5126C113.824 15.8553 113.829 15.8548 114.458 15.3877C114.806 15.1296 115.123 14.8923 115.164 14.8603C115.204 14.8284 115.083 14.6284 114.894 14.4159C114.705 14.2033 114.226 13.8805 113.83 13.6987C113.434 13.5168 112.745 13.3681 112.3 13.3681C111.854 13.3681 111.165 13.5155 110.768 13.6959ZM54.9208 17.0052L54.9698 20.4702L56.4998 20.5267C57.3413 20.5578 58.471 20.5297 59.0103 20.4644C59.7918 20.3695 60.1112 20.2248 60.5853 19.7507C60.9588 19.3772 61.1798 18.9789 61.1798 18.6792C61.1798 18.4169 61.0592 17.9691 60.9118 17.6839C60.7644 17.3988 60.4766 17.1126 60.2724 17.0478C59.909 16.9324 59.911 16.9198 60.3605 16.4706C60.6744 16.1566 60.8198 15.8155 60.8198 15.3938C60.8198 15.0543 60.7323 14.613 60.6254 14.4132C60.5183 14.2132 60.1565 13.9351 59.8212 13.7948C59.4097 13.6231 58.5054 13.5402 57.0418 13.5402H54.8721L54.9208 17.0052ZM65.8598 17.0502V20.5602H68.4698H71.0798V19.757V18.9537L69.4148 18.902L67.7498 18.8502L67.7 16.1952L67.6503 13.5402H66.755H65.8598V17.0502ZM98.4398 17.0502V20.5602H99.3398H100.24V19.6915C100.24 19.0138 100.332 18.736 100.661 18.4275L101.082 18.0321L101.922 19.2962L102.763 20.5602H103.841C104.435 20.5602 104.92 20.517 104.92 20.4642C104.92 20.4113 104.347 19.514 103.646 18.47L102.373 16.5717L103.423 15.3709C104.001 14.7105 104.584 14.0285 104.719 13.8552C104.946 13.5628 104.885 13.5402 103.87 13.5402H102.777L101.659 14.8452C101.044 15.563 100.473 16.1772 100.39 16.2101C100.308 16.2432 100.24 15.6559 100.24 14.9051V13.5402H99.3398H98.4398V17.0502ZM119.86 17.0502V20.5602H120.76H121.66V19.2102V17.8602H122.92H124.18V19.2102V20.5602H125.17H126.16V17.0502V13.5402H125.17H124.18V14.8002V16.0602H122.92H121.66V14.8002V13.5402H120.76H119.86V17.0502ZM132.132 16.9413C131.322 18.8118 130.66 20.3913 130.66 20.4513C130.66 20.5112 131.09 20.5602 131.617 20.5602C132.533 20.5602 132.586 20.5335 132.874 19.9302L133.174 19.3002H134.524H135.875L136.138 19.9302C136.395 20.5449 136.426 20.5602 137.42 20.5602C138.164 20.5602 138.414 20.4995 138.347 20.3352C138.296 20.2115 137.672 18.7332 136.96 17.0502C136.248 15.3672 135.624 13.889 135.573 13.7652C135.516 13.6257 135.125 13.5402 134.542 13.5402H133.603L132.132 16.9413ZM142.9 17.0502V20.5602H143.8H144.7V17.0502V13.5402H143.8H142.9V17.0502ZM149.92 17.0502V20.5602H150.814H151.708L151.759 18.6428L151.81 16.7254L153.311 18.6428L154.811 20.5602H155.606H156.4V17.0502V13.5402H155.506H154.612L154.561 15.3852L154.51 17.2302L153.07 15.3942L151.63 13.5583L150.775 13.5492L149.92 13.5402V17.0502ZM58.8209 15.4073C58.9338 15.5434 58.9786 15.7783 58.9205 15.9297C58.8625 16.0809 58.6382 16.252 58.4224 16.31C58.2064 16.3678 57.7667 16.4164 57.4448 16.4176C56.8958 16.42 56.8598 16.3815 56.8598 15.7902V15.1602H57.7378C58.2625 15.1602 58.6983 15.2595 58.8209 15.4073ZM79.7297 15.3456C79.9203 15.4474 80.1984 15.7675 80.348 16.0566C80.4974 16.3456 80.6198 16.7928 80.6198 17.0502C80.6198 17.3076 80.5021 17.7457 80.3583 18.0238C80.2145 18.3019 79.8554 18.6295 79.5602 18.7517C79.2551 18.8781 78.7876 18.9222 78.4766 18.8538C78.1758 18.7877 77.7249 18.4905 77.4747 18.1932C77.1541 17.8121 77.0198 17.44 77.0198 16.9324C77.0198 16.3766 77.1399 16.0926 77.546 15.6863C77.9349 15.2973 78.2431 15.1602 78.7278 15.1602C79.0884 15.1602 79.5393 15.2435 79.7297 15.3456ZM135.155 17.5452C135.159 17.7943 135.007 17.8602 134.428 17.8602C133.759 17.8602 133.706 17.8263 133.819 17.4708C133.887 17.2568 134.067 16.791 134.218 16.4358L134.493 15.7902L134.822 16.5102C135.003 16.9062 135.152 17.3718 135.155 17.5452ZM58.8517 17.8665C59.0432 17.9691 59.1998 18.214 59.1998 18.411C59.1998 18.6297 59.0202 18.8374 58.7381 18.9447C58.4841 19.0411 57.9171 19.1202 57.4781 19.1202H56.6798V18.4002V17.6802H57.5917C58.0932 17.6802 58.6602 17.764 58.8517 17.8665ZM56.8901 27.2464C56.4399 27.4693 55.9118 27.9324 55.6405 28.3425C55.3104 28.8411 55.1478 29.364 55.0949 30.0973C55.0533 30.6718 55.11 31.4169 55.2209 31.7526C55.3316 32.0884 55.7008 32.6499 56.041 33.0001C56.3812 33.3506 56.9774 33.7324 57.3656 33.8487C57.7539 33.9649 58.2647 34.0596 58.5007 34.0591C58.7367 34.0585 59.2335 33.9738 59.6044 33.8708C59.9756 33.7677 60.5021 33.4903 60.7744 33.2543C61.1548 32.9249 61.2209 32.7753 61.0587 32.6106C60.8956 32.4448 60.7113 32.4931 60.2487 32.823C59.7873 33.1521 59.4151 33.2502 58.628 33.2502C57.8768 33.2502 57.4747 33.1519 57.1091 32.879C56.8357 32.6749 56.4564 32.2994 56.2662 32.0445C56.0759 31.7898 55.8795 31.2198 55.8297 30.7777C55.7649 30.2033 55.8441 29.7367 56.1072 29.142C56.3349 28.627 56.703 28.1709 57.0726 27.9456C57.4657 27.706 57.9841 27.5812 58.5896 27.5809C59.2675 27.5803 59.679 27.6952 60.1535 28.0172C60.692 28.3826 60.8311 28.4134 61.0041 28.2049C61.1177 28.068 61.1579 27.8701 61.0931 27.7656C61.0284 27.6608 60.6601 27.4142 60.2748 27.2176C59.837 26.9943 59.2169 26.8602 58.622 26.8603C58.0111 26.8603 57.3903 26.9988 56.8901 27.2464ZM68.8547 27.3552C68.7148 27.6273 67.9836 29.171 67.23 30.7854C66.4765 32.3998 65.8598 33.797 65.8598 33.8904C65.8598 33.9838 66.0125 34.0602 66.1989 34.0602C66.4412 34.0602 66.6527 33.7776 66.9398 33.0702L67.3416 32.0802H69.3106H71.2796L71.7174 33.0702C72.0495 33.8211 72.2475 34.0602 72.5367 34.0602C72.8206 34.0602 72.8885 33.9824 72.8019 33.7569C72.7378 33.59 72.0205 31.9702 71.2076 30.1572C70.1192 27.7296 69.6481 26.8609 69.4195 26.8607C69.2487 26.8603 68.9945 27.083 68.8547 27.3552ZM94.4798 27.2202C94.4798 27.546 94.5999 27.5802 95.7398 27.5802H96.9998V30.7302C96.9998 33.7601 97.0135 33.8802 97.3598 33.8802C97.7061 33.8802 97.7198 33.7601 97.7198 30.7302V27.5802H98.8898C99.9398 27.5802 100.06 27.5433 100.06 27.2202C100.06 26.8756 99.9398 26.8602 97.2698 26.8602C94.5999 26.8602 94.4798 26.8756 94.4798 27.2202ZM105.307 30.3511C104.401 32.2809 103.66 33.9048 103.66 33.9599C103.66 34.0152 103.816 34.0602 104.007 34.0602C104.252 34.0602 104.486 33.7707 104.807 33.0702L105.26 32.0802H107.229H109.198L109.6 33.0702C109.887 33.7776 110.098 34.0602 110.341 34.0602C110.527 34.0602 110.68 33.9858 110.68 33.8951C110.68 33.8042 109.995 32.2045 109.159 30.3401C108.03 27.8239 107.55 26.9363 107.296 26.8962C107.014 26.8517 106.669 27.4511 105.307 30.3511ZM77.9198 30.4602C77.9198 33.7335 77.9349 33.8802 78.2715 33.8802C78.5806 33.8802 78.6299 33.7326 78.6765 32.6652L78.7298 31.4502L80.1698 31.3594C80.9618 31.3096 81.7859 31.1683 82.0008 31.0455C82.2159 30.9228 82.5602 30.6085 82.7658 30.3469C82.973 30.0838 83.1398 29.6064 83.1398 29.2776C83.1398 28.9509 83.0608 28.4758 82.9643 28.222C82.8678 27.9681 82.5235 27.5985 82.1993 27.4009C81.7117 27.1035 81.2912 27.0414 79.7648 27.0409L77.9198 27.0402V30.4602ZM88.5398 30.5633C88.5398 33.8218 88.5634 34.0819 88.8548 34.026C89.1398 33.9712 89.1745 33.6348 89.2188 30.5028C89.2663 27.1318 89.258 27.0402 88.9038 27.0402C88.551 27.0402 88.5398 27.1476 88.5398 30.5633ZM115.9 30.5502V34.0602H118.24C120.46 34.0602 120.58 34.0416 120.58 33.7002C120.58 33.3619 120.46 33.3402 118.6 33.3402H116.62V30.1902C116.62 27.1602 116.606 27.0402 116.26 27.0402C115.912 27.0402 115.9 27.1602 115.9 30.5502ZM81.8512 28.0483C82.0775 28.2067 82.3352 28.5279 82.4241 28.7615C82.526 29.0297 82.5129 29.3958 82.3885 29.7528C82.2571 30.1297 81.9907 30.4027 81.5913 30.5696C81.2613 30.7073 80.5028 30.8202 79.9056 30.8202H78.8198V29.2902V27.7602H80.1297C81.0396 27.7602 81.5654 27.8482 81.8512 28.0483ZM70.1813 29.4954C70.5765 30.3507 70.8998 31.1202 70.8998 31.2054C70.8998 31.2905 70.2113 31.3602 69.3698 31.3602C68.5283 31.3602 67.8398 31.2905 67.8398 31.2054C67.8398 31.1202 68.1631 30.3507 68.5584 29.4954C68.9535 28.64 69.3187 27.9402 69.3698 27.9402C69.4209 27.9402 69.7862 28.64 70.1813 29.4954ZM108.094 29.6052L108.833 31.2702L107.304 31.3225C106.463 31.3513 105.743 31.3436 105.705 31.3053C105.667 31.2671 105.973 30.4942 106.386 29.5879C106.799 28.6816 107.185 27.9402 107.245 27.9402C107.305 27.9402 107.687 28.6895 108.094 29.6052Z" fill="white"/>
<circle opacity="0.8" cx="28.0999" cy="22.7604" r="1.5" fill="white"/>
<circle opacity="0.6" cx="31.7997" cy="21.1604" r="1.4" fill="white"/>
<circle opacity="0.6" cx="35.3999" cy="19.8604" r="1.3" fill="white"/>
<circle opacity="0.5" cx="38.5998" cy="19.1604" r="1.1" fill="white"/>
<circle opacity="0.4" cx="41.8998" cy="18.7605" r="0.9" fill="white"/>
<circle opacity="0.3" cx="44.7998" cy="18.8604" r="0.8" fill="white"/>
<circle opacity="0.2" cx="47.5998" cy="18.9605" r="0.6" fill="white"/>
<circle opacity="0.8" cx="23.0211" cy="20.4374" r="1.5" transform="rotate(-71 23.0211 20.4374)" fill="white"/>
<circle opacity="0.6" cx="22.7129" cy="16.4183" r="1.4" transform="rotate(-71 22.7129 16.4183)" fill="white"/>
<circle opacity="0.6" cx="22.6556" cy="12.5909" r="1.3" transform="rotate(-71 22.6556 12.5909)" fill="white"/>
<circle opacity="0.5" cx="23.0356" cy="9.33746" r="1.1" transform="rotate(-71 23.0356 9.33746)" fill="white"/>
<circle opacity="0.4" cx="23.7316" cy="6.08694" r="0.9" transform="rotate(-71 23.7316 6.08694)" fill="white"/>
<circle opacity="0.3" cx="24.7705" cy="3.3777" r="0.8" transform="rotate(-71 24.7705 3.3777)" fill="white"/>
<circle opacity="0.2" cx="25.7766" cy="0.762673" r="0.6" transform="rotate(-71 25.7766 0.762673)" fill="white"/>
<circle opacity="0.8" cx="19.6719" cy="24.7131" r="1.5" transform="rotate(-144.05 19.6719 24.7131)" fill="white"/>
<circle opacity="0.6" cx="15.7376" cy="23.8364" r="1.4" transform="rotate(-144.05 15.7376 23.8364)" fill="white"/>
<circle opacity="0.6" cx="12.0597" cy="22.7751" r="1.3" transform="rotate(-144.05 12.0597 22.7751)" fill="white"/>
<circle opacity="0.5" cx="9.05828" cy="21.4631" r="1.1" transform="rotate(-144.05 9.05828 21.4631)" fill="white"/>
<circle opacity="0.4" cx="6.15209" cy="19.8496" r="0.9" transform="rotate(-144.05 6.15209 19.8496)" fill="white"/>
<circle opacity="0.3" cx="3.8633" cy="18.0662" r="0.8" transform="rotate(-144.05 3.8633 18.0662)" fill="white"/>
<circle opacity="0.2" cx="1.65535" cy="16.3414" r="0.6" transform="rotate(-144.05 1.65535 16.3414)" fill="white"/>
<circle opacity="0.8" cx="22.4122" cy="29.1422" r="1.5" transform="rotate(144.928 22.4122 29.1422)" fill="white"/>
<circle opacity="0.6" cx="20.3034" cy="32.5775" r="1.4" transform="rotate(144.928 20.3034 32.5775)" fill="white"/>
<circle opacity="0.6" cx="18.1038" cy="35.71" r="1.3" transform="rotate(144.928 18.1038 35.71)" fill="white"/>
<circle opacity="0.5" cx="15.8873" cy="38.1216" r="1.1" transform="rotate(144.928 15.8873 38.1216)" fill="white"/>
<circle opacity="0.4" cx="13.4164" cy="40.3451" r="0.9" transform="rotate(144.928 13.4164 40.3451)" fill="white"/>
<circle opacity="0.3" cx="10.9854" cy="41.9298" r="0.8" transform="rotate(144.928 10.9854 41.9298)" fill="white"/>
<circle opacity="0.2" cx="8.6361" cy="43.4569" r="0.6" transform="rotate(144.928 8.6361 43.4569)" fill="white"/>
<circle opacity="0.8" cx="27.7882" cy="27.9655" r="1.5" transform="rotate(72.4871 27.7882 27.9655)" fill="white"/>
<circle opacity="0.6" cx="30.4272" cy="31.0121" r="1.4" transform="rotate(72.4871 30.4272 31.0121)" fill="white"/>
<circle opacity="0.6" cx="32.7503" cy="34.0544" r="1.3" transform="rotate(72.4871 32.7503 34.0544)" fill="white"/>
<circle opacity="0.5" cx="34.3809" cy="36.8953" r="1.1" transform="rotate(72.4871 34.3809 36.8953)" fill="white"/>
<circle opacity="0.4" cx="35.7551" cy="39.922" r="0.9" transform="rotate(72.4871 35.7551 39.922)" fill="white"/>
<circle opacity="0.3" cx="36.5327" cy="42.7176" r="0.8" transform="rotate(72.4871 36.5327 42.7176)" fill="white"/>
<circle opacity="0.2" cx="37.28" cy="45.4179" r="0.6" transform="rotate(72.4871 37.28 45.4179)" fill="white"/>
</g>
</svg>
