<svg width="116" height="15" viewBox="0 0 116 15" fill="none" xmlns="http://www.w3.org/2000/svg">
<path opacity="0.6" d="M6.912 4.4999C6.528 3.4679 5.802 2.9519 4.734 2.9519C4.182 2.9519 3.732 3.1139 3.384 3.4379C3.036 3.7619 2.862 4.1399 2.862 4.5719C2.862 5.0159 2.994 5.3819 3.258 5.6699C3.534 5.9459 3.876 6.1979 4.284 6.4259C4.692 6.6539 5.13 6.8759 5.598 7.0919C6.066 7.2959 6.504 7.5539 6.912 7.8659C7.32 8.1659 7.656 8.5379 7.92 8.9819C8.196 9.4139 8.334 9.9719 8.334 10.6559C8.334 11.2559 8.22 11.8079 7.992 12.3119C7.764 12.8039 7.44 13.2299 7.02 13.5899C6.6 13.9379 6.096 14.2079 5.508 14.3999C4.932 14.5799 4.284 14.6699 3.564 14.6699C2.916 14.6699 2.334 14.5979 1.818 14.4539C1.314 14.3219 0.93 14.1539 0.666 13.9499C0.786 13.5299 0.888 13.1459 0.972 12.7979C1.056 12.4499 1.128 12.0719 1.188 11.6639H1.53C1.578 11.9279 1.668 12.1799 1.8 12.4199C1.932 12.6479 2.1 12.8519 2.304 13.0319C2.508 13.2119 2.754 13.3559 3.042 13.4639C3.33 13.5599 3.654 13.6079 4.014 13.6079C4.734 13.6079 5.262 13.4279 5.598 13.0679C5.946 12.7079 6.12 12.2759 6.12 11.7719C6.12 11.3159 5.988 10.9439 5.724 10.6559C5.46 10.3679 5.13 10.1159 4.734 9.8999C4.338 9.6719 3.906 9.4559 3.438 9.2519C2.97 9.0359 2.538 8.7779 2.142 8.4779C1.746 8.1779 1.416 7.8119 1.152 7.3799C0.888 6.9359 0.756 6.3719 0.756 5.6879C0.756 5.0639 0.864 4.5119 1.08 4.0319C1.308 3.5519 1.608 3.1499 1.98 2.8259C2.352 2.5019 2.778 2.2559 3.258 2.0879C3.75 1.9199 4.266 1.8359 4.806 1.8359C5.454 1.8359 6.018 1.9139 6.498 2.0699C6.99 2.2259 7.41 2.4419 7.758 2.7179C7.65 2.9939 7.554 3.2639 7.47 3.5279C7.398 3.7799 7.302 4.1039 7.182 4.4999H6.912ZM14.688 5.8679C14.652 6.0479 14.634 6.2099 14.634 6.3539C14.634 6.5099 14.652 6.6599 14.688 6.8039L13.104 6.7679C13.08 7.0439 13.056 7.3619 13.032 7.7219C13.02 8.0819 13.008 8.4479 12.996 8.8199C12.996 9.1919 12.99 9.5519 12.978 9.8999C12.978 10.2479 12.978 10.5419 12.978 10.7819C12.978 11.4059 12.99 11.9099 13.014 12.2939C13.05 12.6779 13.104 12.9719 13.176 13.1759C13.248 13.3799 13.35 13.5179 13.482 13.5899C13.614 13.6619 13.782 13.6979 13.986 13.6979C14.214 13.6979 14.382 13.6859 14.49 13.6619C14.598 13.6259 14.706 13.5779 14.814 13.5179V14.2559C14.574 14.3639 14.274 14.4599 13.914 14.5439C13.554 14.6279 13.2 14.6699 12.852 14.6699C11.328 14.6699 10.566 13.7579 10.566 11.9339C10.566 11.5859 10.572 11.1959 10.584 10.7639C10.596 10.3199 10.608 9.8699 10.62 9.4139C10.644 8.9459 10.662 8.4899 10.674 8.0459C10.686 7.5899 10.692 7.1699 10.692 6.7859L9.432 6.8039C9.468 6.6599 9.486 6.5099 9.486 6.3539C9.486 6.2099 9.468 6.0479 9.432 5.8679L10.692 5.9219C10.692 5.5499 10.686 5.2019 10.674 4.8779C10.662 4.5539 10.644 4.1639 10.62 3.7079C11.04 3.5399 11.454 3.3659 11.862 3.1859C12.27 2.9939 12.678 2.7959 13.086 2.5919L13.266 2.7179C13.242 2.9099 13.218 3.1379 13.194 3.4019C13.182 3.6539 13.164 3.9239 13.14 4.2119C13.128 4.4879 13.116 4.7759 13.104 5.0759C13.104 5.3639 13.104 5.6399 13.104 5.9039L14.688 5.8679ZM20.3041 11.6999C20.3041 11.1839 20.3041 10.7939 20.3041 10.5299C20.3161 10.2539 20.3221 10.0139 20.3221 9.8099C20.0701 9.9539 19.8001 10.0739 19.5121 10.1699C19.2361 10.2539 18.9781 10.3679 18.7381 10.5119C18.5101 10.6439 18.3181 10.8299 18.1621 11.0699C18.0181 11.3099 17.9461 11.6579 17.9461 12.1139C17.9461 12.5579 18.0361 12.8999 18.2161 13.1399C18.4081 13.3679 18.6601 13.4819 18.9721 13.4819C19.3681 13.4819 19.6861 13.3319 19.9261 13.0319C20.1781 12.7319 20.3041 12.2879 20.3041 11.6999ZM16.0381 6.8039C16.5421 6.3959 17.0821 6.0839 17.6581 5.8679C18.2461 5.6519 18.8281 5.5439 19.4041 5.5439C19.8841 5.5439 20.3221 5.5979 20.7181 5.7059C21.1261 5.8139 21.4741 5.9879 21.7621 6.2279C22.0621 6.4559 22.2901 6.7559 22.4461 7.1279C22.6141 7.4999 22.6981 7.9499 22.6981 8.4779C22.6981 9.2459 22.6861 9.9599 22.6621 10.6199C22.6501 11.2679 22.6441 11.9159 22.6441 12.5639C22.6441 12.8519 22.6621 13.0799 22.6981 13.2479C22.7461 13.4039 22.8121 13.5239 22.8961 13.6079C22.9801 13.6919 23.0881 13.7459 23.2201 13.7699C23.3641 13.7939 23.5261 13.8059 23.7061 13.8059V14.2379C23.3581 14.3819 23.0641 14.4899 22.8241 14.5619C22.5841 14.6339 22.3261 14.6699 22.0501 14.6699C21.6061 14.6699 21.2461 14.5619 20.9701 14.3459C20.6941 14.1299 20.4841 13.8179 20.3401 13.4099C20.0641 13.7939 19.7401 14.0999 19.3681 14.3279C19.0081 14.5559 18.5521 14.6699 18.0001 14.6699C17.5441 14.6699 17.1541 14.6099 16.8301 14.4899C16.5061 14.3699 16.2361 14.2019 16.0201 13.9859C15.8161 13.7579 15.6661 13.5059 15.5701 13.2299C15.4741 12.9419 15.4261 12.6539 15.4261 12.3659C15.4261 11.9699 15.4861 11.6279 15.6061 11.3399C15.7381 11.0519 15.9181 10.8059 16.1461 10.6019C16.3861 10.3979 16.6681 10.2299 16.9921 10.0979C17.3161 9.9539 17.6821 9.8339 18.0901 9.7379C18.5941 9.6179 18.9901 9.5159 19.2781 9.4319C19.5781 9.3359 19.8001 9.2459 19.9441 9.1619C20.0881 9.0659 20.1781 8.9639 20.2141 8.8559C20.2621 8.7479 20.2861 8.6159 20.2861 8.4599C20.2861 8.0279 20.1301 7.6619 19.8181 7.3619C19.5181 7.0499 19.0981 6.8939 18.5581 6.8939C18.3541 6.8939 18.1441 6.9239 17.9281 6.9839C17.7121 7.0319 17.5021 7.1039 17.2981 7.1999C17.1061 7.2959 16.9261 7.4039 16.7581 7.5239C16.6021 7.6319 16.4821 7.7519 16.3981 7.8839H16.2721L16.0381 6.8039ZM27.5041 7.1279C27.8401 6.6239 28.2301 6.2339 28.6741 5.9579C29.1301 5.6819 29.6461 5.5439 30.2221 5.5439C31.1221 5.5439 31.8121 5.8079 32.2921 6.3359C32.7841 6.8519 33.0301 7.6919 33.0301 8.8559C33.0301 9.4679 33.0181 10.0079 32.9941 10.4759C32.9701 10.9439 32.9581 11.4119 32.9581 11.8799C32.9581 12.2639 32.9641 12.6839 32.9761 13.1399C33.0001 13.5839 33.0241 14.0159 33.0481 14.4359C32.8921 14.4119 32.6941 14.3999 32.4541 14.3999C32.2141 14.3999 31.9621 14.3999 31.6981 14.3999C31.4341 14.3999 31.1821 14.3999 30.9421 14.3999C30.7021 14.3999 30.5041 14.4119 30.3481 14.4359C30.4321 13.8119 30.4861 13.0799 30.5101 12.2399C30.5341 11.3879 30.5461 10.4159 30.5461 9.3239C30.5461 8.5679 30.4141 8.0159 30.1501 7.6679C29.8981 7.3079 29.5381 7.1279 29.0701 7.1279C28.5301 7.1279 28.1341 7.3619 27.8821 7.8299C27.6301 8.2979 27.5041 8.9459 27.5041 9.7739V10.4939C27.5041 11.2259 27.5101 11.9159 27.5221 12.5639C27.5461 13.2119 27.5881 13.8359 27.6481 14.4359C27.4921 14.4119 27.2941 14.3999 27.0541 14.3999C26.8261 14.3999 26.5741 14.3999 26.2981 14.3999C26.0221 14.3999 25.7701 14.3999 25.5421 14.3999C25.3141 14.3999 25.1161 14.4119 24.9481 14.4359C25.0081 13.8359 25.0441 13.2119 25.0561 12.5639C25.0801 11.9159 25.0921 11.2259 25.0921 10.4939V9.7739C25.0921 9.0419 25.0801 8.3579 25.0561 7.7219C25.0441 7.0739 25.0081 6.4259 24.9481 5.7779C25.1641 5.8019 25.3741 5.8259 25.5781 5.8499C25.7941 5.8619 26.0101 5.8679 26.2261 5.8679C26.4421 5.8679 26.6521 5.8619 26.8561 5.8499C27.0721 5.8259 27.3001 5.8019 27.5401 5.7779L27.4681 7.1279H27.5041ZM35.0761 2.3759C35.0761 1.9799 35.2141 1.6439 35.4901 1.3679C35.7661 1.0919 36.1021 0.953902 36.4981 0.953902C36.8941 0.953902 37.2301 1.0919 37.5061 1.3679C37.7821 1.6439 37.9201 1.9799 37.9201 2.3759C37.9201 2.7719 37.7821 3.1079 37.5061 3.3839C37.2301 3.6599 36.8941 3.7979 36.4981 3.7979C36.1021 3.7979 35.7661 3.6599 35.4901 3.3839C35.2141 3.1079 35.0761 2.7719 35.0761 2.3759ZM35.2921 9.7739C35.2921 9.0419 35.2801 8.3579 35.2561 7.7219C35.2441 7.0739 35.2081 6.4259 35.1481 5.7779C35.3161 5.8019 35.5141 5.8259 35.7421 5.8499C35.9701 5.8619 36.2221 5.8679 36.4981 5.8679C37.0621 5.8679 37.5121 5.8379 37.8481 5.7779C37.7881 6.4259 37.7461 7.0739 37.7221 7.7219C37.7101 8.3579 37.7041 9.0419 37.7041 9.7739V10.4939C37.7041 11.2259 37.7101 11.9159 37.7221 12.5639C37.7461 13.2119 37.7881 13.8359 37.8481 14.4359C37.6921 14.4119 37.4941 14.3999 37.2541 14.3999C37.0261 14.3999 36.7741 14.3999 36.4981 14.3999C36.2221 14.3999 35.9701 14.3999 35.7421 14.3999C35.5141 14.3999 35.3161 14.4119 35.1481 14.4359C35.2081 13.8359 35.2441 13.2119 35.2561 12.5639C35.2801 11.9159 35.2921 11.2259 35.2921 10.4939V9.7739ZM48.1196 8.8379C48.1196 10.1459 48.1256 11.2679 48.1376 12.2039C48.1496 13.1399 48.1916 13.8839 48.2636 14.4359C48.0596 14.4119 47.8376 14.3999 47.5976 14.3999C47.3576 14.3999 47.0876 14.3999 46.7876 14.3999C46.4876 14.3999 46.2176 14.3999 45.9776 14.3999C45.7376 14.3999 45.5156 14.4119 45.3116 14.4359C45.3596 13.6919 45.3956 12.9359 45.4196 12.1679C45.4436 11.3879 45.4556 10.4999 45.4556 9.5039V7.0559C45.4556 6.0599 45.4436 5.1779 45.4196 4.4099C45.3956 3.6299 45.3596 2.8499 45.3116 2.0699C45.5156 2.0939 45.7376 2.1179 45.9776 2.1419C46.2176 2.1539 46.4876 2.1599 46.7876 2.1599C47.0876 2.1599 47.3576 2.1539 47.5976 2.1419C47.8376 2.1179 48.0596 2.0939 48.2636 2.0699C48.2036 2.4299 48.1616 2.9699 48.1376 3.6899C48.1256 4.4099 48.1196 5.2079 48.1196 6.0839V7.8119C48.5276 7.3319 48.9656 6.8099 49.4336 6.2459C49.9016 5.6699 50.3516 5.1119 50.7836 4.5719C51.2156 4.0319 51.6056 3.5399 51.9536 3.0959C52.3016 2.6399 52.5536 2.2979 52.7096 2.0699C52.8776 2.0939 53.0456 2.1179 53.2136 2.1419C53.3816 2.1539 53.5496 2.1599 53.7176 2.1599C53.8856 2.1599 54.0536 2.1539 54.2216 2.1419C54.4016 2.1179 54.5936 2.0939 54.7976 2.0699C54.5936 2.2739 54.2816 2.6039 53.8616 3.0599C53.4416 3.5159 52.9916 4.0079 52.5116 4.5359C52.0436 5.0639 51.5936 5.5799 51.1616 6.0839C50.7296 6.5759 50.3936 6.9659 50.1536 7.2539C50.5376 7.8419 50.9636 8.4899 51.4316 9.1979C51.8996 9.9059 52.3616 10.6019 52.8176 11.2859C53.2856 11.9579 53.7176 12.5819 54.1136 13.1579C54.5096 13.7219 54.8276 14.1479 55.0676 14.4359C54.7196 14.4119 54.4076 14.3999 54.1316 14.3999C53.8556 14.3999 53.5856 14.3999 53.3216 14.3999C53.0576 14.3999 52.7936 14.3999 52.5296 14.3999C52.2776 14.3999 52.0196 14.4119 51.7556 14.4359C51.1436 13.5239 50.5436 12.5999 49.9556 11.6639C49.3676 10.7159 48.7676 9.7739 48.1556 8.8379H48.1196ZM60.9726 13.1399C60.6366 13.6439 60.2406 14.0279 59.7846 14.2919C59.3406 14.5439 58.8306 14.6699 58.2546 14.6699C57.3546 14.6699 56.6586 14.4179 56.1666 13.9139C55.6866 13.4099 55.4466 12.5759 55.4466 11.4119C55.4466 10.7999 55.4586 10.2599 55.4826 9.7919C55.5066 9.3239 55.5186 8.8559 55.5186 8.3879C55.5186 8.0039 55.5066 7.5899 55.4826 7.1459C55.4706 6.6899 55.4526 6.2339 55.4286 5.7779C55.5846 5.8019 55.7826 5.8259 56.0226 5.8499C56.2626 5.8619 56.5146 5.8679 56.7786 5.8679C57.0426 5.8679 57.2946 5.8619 57.5346 5.8499C57.7746 5.8259 57.9726 5.8019 58.1286 5.7779C58.0446 6.4259 57.9906 7.1759 57.9666 8.0279C57.9426 8.8799 57.9306 9.8519 57.9306 10.9439C57.9306 11.6999 58.0566 12.2579 58.3086 12.6179C58.5726 12.9659 58.9386 13.1399 59.4066 13.1399C59.9466 13.1399 60.3426 12.9059 60.5946 12.4379C60.8466 11.9699 60.9726 11.3219 60.9726 10.4939V9.7739C60.9726 9.0419 60.9606 8.3579 60.9366 7.7219C60.9246 7.0739 60.8886 6.4259 60.8286 5.7779C61.1646 5.8379 61.6146 5.8679 62.1786 5.8679C62.4546 5.8679 62.7066 5.8619 62.9346 5.8499C63.1626 5.8259 63.3606 5.8019 63.5286 5.7779C63.4686 6.4259 63.4266 7.0739 63.4026 7.7219C63.3906 8.3579 63.3846 9.0419 63.3846 9.7739V10.4939C63.3846 11.2259 63.3906 11.9159 63.4026 12.5639C63.4266 13.2119 63.4686 13.8359 63.5286 14.4359C63.3126 14.4119 63.0966 14.3999 62.8806 14.3999C62.6766 14.3999 62.4666 14.3999 62.2506 14.3999C62.0346 14.3999 61.8186 14.3999 61.6026 14.3999C61.3986 14.3999 61.1766 14.4119 60.9366 14.4359L61.0086 13.1399H60.9726ZM65.7726 7.0919C65.7726 5.9159 65.7606 4.8359 65.7366 3.8519C65.7126 2.8679 65.6766 1.8719 65.6286 0.863902C65.7846 0.887901 65.9826 0.911901 66.2226 0.935902C66.4626 0.947902 66.7146 0.953902 66.9786 0.953902C67.2426 0.953902 67.4946 0.947902 67.7346 0.935902C67.9746 0.911901 68.1726 0.887901 68.3286 0.863902C68.2806 1.8719 68.2446 2.8679 68.2206 3.8519C68.1966 4.8359 68.1846 5.9159 68.1846 7.0919V8.2619C68.1846 9.4379 68.1966 10.5179 68.2206 11.5019C68.2446 12.4859 68.2806 13.4639 68.3286 14.4359C68.1726 14.4119 67.9746 14.3999 67.7346 14.3999C67.4946 14.3999 67.2426 14.3999 66.9786 14.3999C66.7146 14.3999 66.4626 14.3999 66.2226 14.3999C65.9826 14.3999 65.7846 14.4119 65.6286 14.4359C65.6766 13.4639 65.7126 12.4859 65.7366 11.5019C65.7606 10.5179 65.7726 9.4379 65.7726 8.2619V7.0919ZM72.7443 10.1339C72.7443 10.6139 72.7923 11.0639 72.8883 11.4839C72.9843 11.9039 73.1283 12.2699 73.3203 12.5819C73.5243 12.8819 73.7763 13.1219 74.0763 13.3019C74.3883 13.4699 74.7483 13.5539 75.1563 13.5539C75.9843 13.5539 76.7223 13.2839 77.3703 12.7439L77.5863 12.9059L77.1903 13.9139C76.8903 14.1419 76.5303 14.3219 76.1103 14.4539C75.6903 14.5979 75.1383 14.6699 74.4543 14.6699C73.8663 14.6699 73.3083 14.5859 72.7803 14.4179C72.2523 14.2619 71.7843 13.9979 71.3763 13.6259C70.9803 13.2539 70.6623 12.7859 70.4223 12.2219C70.1943 11.6459 70.0803 10.9619 70.0803 10.1699C70.0803 9.3899 70.1823 8.7119 70.3863 8.1359C70.6023 7.5599 70.8963 7.0799 71.2683 6.6959C71.6403 6.3119 72.0783 6.0239 72.5823 5.8319C73.0983 5.6399 73.6563 5.5439 74.2563 5.5439C75.4443 5.5439 76.3503 5.8919 76.9743 6.5879C77.6103 7.2839 77.9283 8.2679 77.9283 9.5399V9.9179C77.9283 10.0259 77.9223 10.0979 77.9103 10.1339H72.7443ZM75.5163 9.3239C75.4923 8.4239 75.3783 7.7039 75.1743 7.1639C74.9823 6.6239 74.6523 6.3539 74.1843 6.3539C73.9203 6.3539 73.6983 6.4439 73.5183 6.6239C73.3383 6.8039 73.1943 7.0379 73.0863 7.3259C72.9783 7.6019 72.8943 7.9199 72.8343 8.2799C72.7863 8.6279 72.7563 8.9759 72.7443 9.3239H75.5163ZM85.9923 8.2619C85.8963 7.7219 85.7043 7.2899 85.4163 6.9659C85.1403 6.6299 84.7263 6.4619 84.1743 6.4619C83.4543 6.4619 82.9143 6.7919 82.5543 7.4519C82.1943 8.0999 82.0143 9.0059 82.0143 10.1699C82.0143 11.2619 82.2423 12.1019 82.6983 12.6899C83.1543 13.2659 83.8203 13.5539 84.6963 13.5539C85.0683 13.5539 85.4283 13.4699 85.7763 13.3019C86.1243 13.1219 86.3823 12.9239 86.5503 12.7079L86.7663 12.8879C86.6823 13.0559 86.6103 13.2299 86.5503 13.4099C86.4903 13.5899 86.4303 13.7699 86.3703 13.9499C86.1063 14.1539 85.7703 14.3219 85.3623 14.4539C84.9663 14.5979 84.4923 14.6699 83.9403 14.6699C83.0643 14.6699 82.3263 14.5439 81.7263 14.2919C81.1263 14.0399 80.6403 13.6979 80.2683 13.2659C79.9083 12.8339 79.6503 12.3479 79.4943 11.8079C79.3383 11.2559 79.2603 10.7039 79.2603 10.1519C79.2603 9.4919 79.3683 8.8799 79.5843 8.3159C79.8123 7.7519 80.1303 7.2659 80.5383 6.8579C80.9583 6.4499 81.4623 6.1319 82.0503 5.9039C82.6383 5.6639 83.2923 5.5439 84.0123 5.5439C84.6963 5.5439 85.2723 5.6219 85.7403 5.7779C86.2203 5.9339 86.6763 6.1379 87.1083 6.3899C86.9643 6.6299 86.8263 6.9239 86.6943 7.2719C86.5743 7.6199 86.4843 7.9499 86.4243 8.2619H85.9923ZM88.2679 7.0919C88.2679 5.9159 88.2559 4.8359 88.2319 3.8519C88.2079 2.8679 88.1719 1.8719 88.1239 0.863902C88.2799 0.887901 88.4779 0.911901 88.7179 0.935902C88.9579 0.947902 89.2099 0.953902 89.4739 0.953902C89.7379 0.953902 89.9899 0.947902 90.2299 0.935902C90.4699 0.911901 90.6679 0.887901 90.8239 0.863902C90.7759 1.8719 90.7399 2.8679 90.7159 3.8519C90.6919 4.8359 90.6799 5.9159 90.6799 7.0919L90.7159 7.1279C91.0279 6.6239 91.4059 6.2339 91.8499 5.9579C92.3059 5.6819 92.8219 5.5439 93.3979 5.5439C94.2979 5.5439 94.9879 5.8079 95.4679 6.3359C95.9599 6.8519 96.2059 7.6919 96.2059 8.8559C96.2059 9.4679 96.1939 10.0079 96.1699 10.4759C96.1459 10.9439 96.1339 11.4119 96.1339 11.8799C96.1339 12.2639 96.1399 12.6839 96.1519 13.1399C96.1759 13.5839 96.1999 14.0159 96.2239 14.4359C96.0679 14.4119 95.8699 14.3999 95.6299 14.3999C95.3899 14.3999 95.1379 14.3999 94.8739 14.3999C94.6099 14.3999 94.3579 14.3999 94.1179 14.3999C93.8779 14.3999 93.6799 14.4119 93.5239 14.4359C93.6079 13.8119 93.6619 13.0799 93.6859 12.2399C93.7099 11.3879 93.7219 10.4159 93.7219 9.3239C93.7219 8.5679 93.5899 8.0159 93.3259 7.6679C93.0739 7.3079 92.7139 7.1279 92.2459 7.1279C91.7059 7.1279 91.3099 7.3619 91.0579 7.8299C90.8059 8.2979 90.6799 8.9459 90.6799 9.7739V10.4939C90.6799 10.6619 90.6799 10.9079 90.6799 11.2319C90.6919 11.5439 90.7039 11.8919 90.7159 12.2759C90.7279 12.6479 90.7399 13.0319 90.7519 13.4279C90.7759 13.8119 90.7999 14.1479 90.8239 14.4359C90.6679 14.4119 90.4699 14.3999 90.2299 14.3999C89.9899 14.3999 89.7379 14.3999 89.4739 14.3999C89.2099 14.3999 88.9579 14.3999 88.7179 14.3999C88.4779 14.3999 88.2799 14.4119 88.1239 14.4359C88.1719 13.4639 88.2079 12.4859 88.2319 11.5019C88.2559 10.5179 88.2679 9.4379 88.2679 8.2619V7.0919ZM103.922 9.6839C103.922 8.6279 103.79 7.8119 103.526 7.2359C103.262 6.6479 102.824 6.3539 102.212 6.3539C101.66 6.3539 101.222 6.6779 100.898 7.3259C100.586 7.9739 100.43 8.9879 100.43 10.3679C100.43 10.8719 100.46 11.3399 100.52 11.7719C100.58 12.2039 100.676 12.5819 100.808 12.9059C100.952 13.2179 101.132 13.4639 101.348 13.6439C101.576 13.8239 101.858 13.9139 102.194 13.9139C103.346 13.9139 103.922 12.5039 103.922 9.6839ZM97.7659 10.3499C97.7659 9.5459 97.8859 8.8439 98.1259 8.2439C98.3779 7.6439 98.7079 7.1459 99.1159 6.7499C99.5239 6.3419 99.9919 6.0419 100.52 5.8499C101.06 5.6459 101.612 5.5439 102.176 5.5439C103.58 5.5439 104.666 5.9399 105.434 6.7319C106.202 7.5239 106.586 8.5979 106.586 9.9539C106.586 10.6859 106.478 11.3459 106.262 11.9339C106.046 12.5219 105.74 13.0259 105.344 13.4459C104.96 13.8539 104.498 14.1599 103.958 14.3639C103.418 14.5679 102.824 14.6699 102.176 14.6699C101.636 14.6699 101.102 14.5979 100.574 14.4539C100.058 14.3099 99.5899 14.0699 99.1699 13.7339C98.7499 13.3859 98.4079 12.9359 98.1439 12.3839C97.8919 11.8319 97.7659 11.1539 97.7659 10.3499ZM112.039 12.0779C112.423 11.0219 112.789 9.9719 113.137 8.9279C113.497 7.8839 113.851 6.8339 114.199 5.7779C114.331 5.8019 114.457 5.8259 114.577 5.8499C114.697 5.8619 114.817 5.8679 114.937 5.8679C115.057 5.8679 115.177 5.8619 115.297 5.8499C115.417 5.8259 115.549 5.8019 115.693 5.7779C115.501 6.2459 115.267 6.7919 114.991 7.4159C114.715 8.0279 114.421 8.7059 114.109 9.4499C113.809 10.1819 113.497 10.9739 113.173 11.8259C112.861 12.6659 112.567 13.5359 112.291 14.4359C112.123 14.4119 111.961 14.3999 111.805 14.3999C111.649 14.3999 111.487 14.3999 111.319 14.3999C111.151 14.3999 110.989 14.3999 110.833 14.3999C110.677 14.3999 110.515 14.4119 110.347 14.4359C110.107 13.7519 109.837 12.9959 109.537 12.1679C109.249 11.3399 108.961 10.5299 108.673 9.7379C108.385 8.9339 108.115 8.1839 107.863 7.4879C107.611 6.7919 107.401 6.2219 107.233 5.7779C107.485 5.8019 107.725 5.8259 107.953 5.8499C108.193 5.8619 108.427 5.8679 108.655 5.8679C108.883 5.8679 109.105 5.8619 109.321 5.8499C109.549 5.8259 109.777 5.8019 110.005 5.7779C110.329 6.8339 110.653 7.8839 110.977 8.9279C111.313 9.9719 111.655 11.0219 112.003 12.0779H112.039Z" fill="white"/>
</svg>
