<svg width="131" height="20" viewBox="0 0 131 20" fill="none" xmlns="http://www.w3.org/2000/svg">
<path opacity="0.6" d="M11.88 4.7519C11.496 4.2119 11.016 3.7799 10.44 3.4559C9.864 3.1199 9.162 2.9519 8.334 2.9519C7.782 2.9519 7.23 3.0719 6.678 3.3119C6.138 3.5399 5.652 3.8879 5.22 4.3559C4.8 4.8239 4.458 5.4119 4.194 6.1199C3.93 6.8159 3.798 7.6379 3.798 8.5859C3.798 9.3059 3.894 9.9719 4.086 10.5839C4.29 11.1959 4.578 11.7299 4.95 12.1859C5.322 12.6299 5.778 12.9779 6.318 13.2299C6.858 13.4819 7.476 13.6079 8.172 13.6079C8.328 13.6079 8.502 13.6019 8.694 13.5899C8.898 13.5659 9.09 13.5419 9.27 13.5179C9.462 13.4939 9.636 13.4639 9.792 13.4279C9.948 13.3799 10.062 13.3319 10.134 13.2839C10.158 13.1399 10.17 12.9599 10.17 12.7439C10.182 12.5279 10.188 12.2879 10.188 12.0239C10.188 11.0519 10.17 10.3379 10.134 9.8819C10.098 9.4139 10.074 9.0959 10.062 8.9279C10.182 8.9519 10.338 8.9759 10.53 8.9999C10.734 9.0119 11.022 9.0179 11.394 9.0179C11.826 9.0179 12.144 9.0119 12.348 8.9999C12.564 8.9759 12.732 8.9519 12.852 8.9279C12.828 9.0239 12.804 9.1799 12.78 9.3959C12.768 9.6119 12.756 9.8639 12.744 10.1519C12.732 10.4279 12.72 10.7279 12.708 11.0519C12.708 11.3639 12.708 11.6639 12.708 11.9519V12.5459C12.708 12.8459 12.708 13.1279 12.708 13.3919C12.72 13.6439 12.738 13.8239 12.762 13.9319C11.97 14.1599 11.166 14.3399 10.35 14.4719C9.546 14.6039 8.748 14.6699 7.956 14.6699C6.924 14.6699 5.97 14.5379 5.094 14.2739C4.23 13.9979 3.48 13.6019 2.844 13.0859C2.22 12.5579 1.728 11.9279 1.368 11.1959C1.02 10.4519 0.846 9.6179 0.846 8.6939C0.846 7.5539 1.032 6.5579 1.404 5.7059C1.788 4.8419 2.31 4.1279 2.97 3.5639C3.642 2.9879 4.434 2.5559 5.346 2.2679C6.258 1.9799 7.242 1.8359 8.298 1.8359C9.21 1.8359 9.996 1.9319 10.656 2.1239C11.328 2.3039 11.988 2.5679 12.636 2.9159C12.54 3.2279 12.444 3.5339 12.348 3.8339C12.264 4.1339 12.192 4.4399 12.132 4.7519H11.88ZM17.2678 10.1339C17.2678 10.6139 17.3158 11.0639 17.4118 11.4839C17.5078 11.9039 17.6518 12.2699 17.8438 12.5819C18.0478 12.8819 18.2998 13.1219 18.5998 13.3019C18.9118 13.4699 19.2718 13.5539 19.6798 13.5539C20.5078 13.5539 21.2458 13.2839 21.8938 12.7439L22.1098 12.9059L21.7138 13.9139C21.4138 14.1419 21.0538 14.3219 20.6338 14.4539C20.2138 14.5979 19.6618 14.6699 18.9778 14.6699C18.3898 14.6699 17.8318 14.5859 17.3038 14.4179C16.7758 14.2619 16.3078 13.9979 15.8998 13.6259C15.5038 13.2539 15.1858 12.7859 14.9458 12.2219C14.7178 11.6459 14.6038 10.9619 14.6038 10.1699C14.6038 9.3899 14.7058 8.7119 14.9098 8.1359C15.1258 7.5599 15.4198 7.0799 15.7918 6.6959C16.1638 6.3119 16.6018 6.0239 17.1058 5.8319C17.6218 5.6399 18.1798 5.5439 18.7798 5.5439C19.9678 5.5439 20.8738 5.8919 21.4978 6.5879C22.1338 7.2839 22.4518 8.2679 22.4518 9.5399V9.9179C22.4518 10.0259 22.4458 10.0979 22.4338 10.1339H17.2678ZM20.0398 9.3239C20.0158 8.4239 19.9018 7.7039 19.6978 7.1639C19.5058 6.6239 19.1758 6.3539 18.7078 6.3539C18.4438 6.3539 18.2218 6.4439 18.0418 6.6239C17.8618 6.8039 17.7178 7.0379 17.6098 7.3259C17.5018 7.6019 17.4178 7.9199 17.3578 8.2799C17.3098 8.6279 17.2798 8.9759 17.2678 9.3239H20.0398ZM29.7598 9.6839C29.7598 8.6279 29.6278 7.8119 29.3638 7.2359C29.0998 6.6479 28.6618 6.3539 28.0498 6.3539C27.4978 6.3539 27.0598 6.6779 26.7358 7.3259C26.4238 7.9739 26.2678 8.9879 26.2678 10.3679C26.2678 10.8719 26.2978 11.3399 26.3578 11.7719C26.4178 12.2039 26.5138 12.5819 26.6458 12.9059C26.7898 13.2179 26.9698 13.4639 27.1858 13.6439C27.4138 13.8239 27.6958 13.9139 28.0318 13.9139C29.1838 13.9139 29.7598 12.5039 29.7598 9.6839ZM23.6038 10.3499C23.6038 9.5459 23.7238 8.8439 23.9638 8.2439C24.2158 7.6439 24.5458 7.1459 24.9538 6.7499C25.3618 6.3419 25.8298 6.0419 26.3578 5.8499C26.8978 5.6459 27.4498 5.5439 28.0138 5.5439C29.4178 5.5439 30.5038 5.9399 31.2718 6.7319C32.0398 7.5239 32.4238 8.5979 32.4238 9.9539C32.4238 10.6859 32.3158 11.3459 32.0998 11.9339C31.8838 12.5219 31.5778 13.0259 31.1818 13.4459C30.7978 13.8539 30.3358 14.1599 29.7958 14.3639C29.2558 14.5679 28.6618 14.6699 28.0138 14.6699C27.4738 14.6699 26.9398 14.5979 26.4118 14.4539C25.8958 14.3099 25.4278 14.0699 25.0078 13.7339C24.5878 13.3859 24.2458 12.9359 23.9818 12.3839C23.7298 11.8319 23.6038 11.1539 23.6038 10.3499ZM36.5577 8.0099C36.8697 7.1819 37.2477 6.5759 37.6917 6.1919C38.1357 5.7959 38.6637 5.5979 39.2757 5.5979C39.3357 5.5979 39.3837 5.6039 39.4197 5.6159C39.4677 5.6159 39.5157 5.6159 39.5637 5.6159C39.5277 5.7959 39.4977 5.9879 39.4737 6.1919C39.4617 6.3959 39.4557 6.6359 39.4557 6.9119V7.4879C39.4557 7.5839 39.4557 7.6859 39.4557 7.7939C39.4557 7.9019 39.4617 8.0039 39.4737 8.0999L39.3117 8.2439C39.1917 8.1719 39.0537 8.1119 38.8977 8.0639C38.7537 8.0159 38.5857 7.9919 38.3937 7.9919C37.8537 7.9919 37.4277 8.1719 37.1157 8.5319C36.8037 8.8799 36.6477 9.2939 36.6477 9.7739V10.4939C36.6477 11.2259 36.6537 11.9159 36.6657 12.5639C36.6897 13.2119 36.7317 13.8359 36.7917 14.4359C36.6357 14.4119 36.4377 14.3999 36.1977 14.3999C35.9697 14.3999 35.7177 14.3999 35.4417 14.3999C35.1657 14.3999 34.9137 14.3999 34.6857 14.3999C34.4577 14.3999 34.2597 14.4119 34.0917 14.4359C34.1517 13.8359 34.1877 13.2119 34.1997 12.5639C34.2237 11.9159 34.2357 11.2259 34.2357 10.4939V9.7739C34.2357 9.0419 34.2237 8.3579 34.1997 7.7219C34.1877 7.0739 34.1517 6.4259 34.0917 5.7779C34.2957 5.8019 34.4997 5.8259 34.7037 5.8499C34.9197 5.8619 35.1297 5.8679 35.3337 5.8679C35.5377 5.8679 35.7417 5.8619 35.9457 5.8499C36.1617 5.8259 36.3717 5.8019 36.5757 5.7779L36.5217 7.9739L36.5577 8.0099ZM44.3998 6.2819C43.5838 6.2819 43.1758 7.0739 43.1758 8.6579C43.1758 9.0539 43.2118 9.3899 43.2838 9.6659C43.3558 9.9299 43.4458 10.1459 43.5538 10.3139C43.6738 10.4819 43.7998 10.6019 43.9318 10.6739C44.0758 10.7459 44.2198 10.7819 44.3638 10.7819C44.7598 10.7819 45.0538 10.6079 45.2458 10.2599C45.4378 9.9119 45.5338 9.3239 45.5338 8.4959C45.5338 7.6799 45.4258 7.1099 45.2098 6.7859C44.9938 6.4499 44.7238 6.2819 44.3998 6.2819ZM47.0818 6.4619C47.3818 6.6779 47.6158 6.9539 47.7838 7.2899C47.9638 7.6139 48.0538 8.0039 48.0538 8.4599C48.0538 8.9039 47.9698 9.3119 47.8018 9.6839C47.6338 10.0439 47.3938 10.3559 47.0818 10.6199C46.7818 10.8839 46.4158 11.0879 45.9838 11.2319C45.5638 11.3759 45.0898 11.4479 44.5618 11.4479C44.4298 11.4479 44.2978 11.4479 44.1658 11.4479C44.0458 11.4359 43.9078 11.4299 43.7518 11.4299C43.6078 11.4299 43.4818 11.4959 43.3738 11.6279C43.2778 11.7599 43.2298 11.9099 43.2298 12.0779C43.2298 12.3659 43.3378 12.5939 43.5538 12.7619C43.7818 12.9299 44.1358 13.0199 44.6158 13.0319L45.9478 13.0499C46.9558 13.0619 47.6938 13.2539 48.1618 13.6259C48.6418 13.9859 48.8818 14.5679 48.8818 15.3719C48.8818 16.0919 48.7318 16.6919 48.4318 17.1719C48.1438 17.6639 47.7658 18.0599 47.2978 18.3599C46.8418 18.6719 46.3318 18.8939 45.7678 19.0259C45.2038 19.1579 44.6578 19.2239 44.1298 19.2239C43.0018 19.2239 42.1198 19.0019 41.4838 18.5579C40.8598 18.1259 40.5478 17.5499 40.5478 16.8299C40.5478 16.2539 40.7038 15.7859 41.0158 15.4259C41.3398 15.0779 41.7718 14.8019 42.3118 14.5979V14.5619C41.9998 14.4539 41.7478 14.2919 41.5558 14.0759C41.3758 13.8479 41.2858 13.5659 41.2858 13.2299C41.2858 12.8339 41.4358 12.4499 41.7358 12.0779C42.0478 11.7059 42.4558 11.4539 42.9598 11.3219V11.2859C42.2278 11.1059 41.6638 10.7819 41.2678 10.3139C40.8598 9.8339 40.6558 9.2099 40.6558 8.4419C40.6558 7.9859 40.7458 7.5779 40.9258 7.2179C41.1178 6.8579 41.3818 6.5579 41.7178 6.3179C42.0538 6.0659 42.4558 5.8739 42.9238 5.7419C43.3918 5.6099 43.9078 5.5439 44.4718 5.5439C44.6878 5.5439 44.9098 5.5559 45.1378 5.5799C45.3658 5.5919 45.5878 5.6039 45.8038 5.6159C45.9598 5.6279 46.1158 5.6399 46.2718 5.6519C46.4398 5.6519 46.6198 5.6519 46.8118 5.6519C47.1118 5.6519 47.4238 5.6519 47.7478 5.6519C48.0718 5.6399 48.3958 5.6339 48.7198 5.6339C48.7078 5.7059 48.6958 5.7779 48.6838 5.8499C48.6838 5.9219 48.6838 5.9939 48.6838 6.0659C48.6838 6.1379 48.6838 6.2099 48.6838 6.2819C48.6958 6.3539 48.7078 6.4259 48.7198 6.4979L47.1358 6.4259L47.0818 6.4619ZM46.7938 16.3439C46.7938 15.9959 46.7338 15.7079 46.6138 15.4799C46.4938 15.2639 46.3198 15.0959 46.0918 14.9759C45.8758 14.8559 45.6058 14.7719 45.2818 14.7239C44.9578 14.6879 44.5918 14.6699 44.1838 14.6699C43.5598 14.6699 43.1278 14.7299 42.8878 14.8499C42.7438 14.9219 42.5878 15.0959 42.4198 15.3719C42.2638 15.6479 42.1858 15.9959 42.1858 16.4159C42.1858 16.7639 42.2458 17.0639 42.3658 17.3159C42.4978 17.5799 42.6718 17.7959 42.8878 17.9639C43.1038 18.1319 43.3498 18.2579 43.6258 18.3419C43.9138 18.4379 44.2198 18.4859 44.5438 18.4859C44.8918 18.4859 45.2038 18.4259 45.4798 18.3059C45.7558 18.1979 45.9898 18.0419 46.1818 17.8379C46.3858 17.6459 46.5358 17.4179 46.6318 17.1539C46.7398 16.9019 46.7938 16.6319 46.7938 16.3439ZM52.2658 10.1339C52.2658 10.6139 52.3138 11.0639 52.4098 11.4839C52.5058 11.9039 52.6498 12.2699 52.8418 12.5819C53.0458 12.8819 53.2978 13.1219 53.5978 13.3019C53.9098 13.4699 54.2698 13.5539 54.6778 13.5539C55.5058 13.5539 56.2438 13.2839 56.8918 12.7439L57.1078 12.9059L56.7118 13.9139C56.4118 14.1419 56.0518 14.3219 55.6318 14.4539C55.2118 14.5979 54.6598 14.6699 53.9758 14.6699C53.3878 14.6699 52.8298 14.5859 52.3018 14.4179C51.7738 14.2619 51.3058 13.9979 50.8978 13.6259C50.5018 13.2539 50.1838 12.7859 49.9438 12.2219C49.7158 11.6459 49.6018 10.9619 49.6018 10.1699C49.6018 9.3899 49.7038 8.7119 49.9078 8.1359C50.1238 7.5599 50.4178 7.0799 50.7898 6.6959C51.1618 6.3119 51.5998 6.0239 52.1038 5.8319C52.6198 5.6399 53.1778 5.5439 53.7778 5.5439C54.9658 5.5439 55.8718 5.8919 56.4958 6.5879C57.1318 7.2839 57.4498 8.2679 57.4498 9.5399V9.9179C57.4498 10.0259 57.4438 10.0979 57.4318 10.1339H52.2658ZM55.0378 9.3239C55.0138 8.4239 54.8998 7.7039 54.6958 7.1639C54.5038 6.6239 54.1738 6.3539 53.7058 6.3539C53.4418 6.3539 53.2198 6.4439 53.0398 6.6239C52.8598 6.8039 52.7158 7.0379 52.6078 7.3259C52.4998 7.6019 52.4158 7.9199 52.3558 8.2799C52.3078 8.6279 52.2778 8.9759 52.2658 9.3239H55.0378ZM64.6196 7.0559C64.6196 6.0599 64.6076 5.1779 64.5836 4.4099C64.5596 3.6299 64.5236 2.8499 64.4756 2.0699C64.6796 2.0939 64.9016 2.1179 65.1416 2.1419C65.3816 2.1539 65.6516 2.1599 65.9516 2.1599C66.2516 2.1599 66.5216 2.1539 66.7616 2.1419C67.0016 2.1179 67.2236 2.0939 67.4276 2.0699C67.3796 2.8499 67.3436 3.6299 67.3196 4.4099C67.2956 5.1779 67.2836 6.0599 67.2836 7.0559V9.5039C67.2836 10.1879 67.2836 10.8479 67.2836 11.4839C67.2956 12.1199 67.3076 12.6719 67.3196 13.1399C68.0036 13.1399 68.6876 13.1219 69.3716 13.0859C70.0556 13.0499 70.7456 12.9899 71.4416 12.9059C71.4176 13.0379 71.3996 13.1579 71.3876 13.2659C71.3756 13.3739 71.3696 13.5239 71.3696 13.7159C71.3696 13.9079 71.3756 14.0579 71.3876 14.1659C71.3996 14.2739 71.4176 14.3639 71.4416 14.4359C71.1176 14.4239 70.7156 14.4119 70.2356 14.3999C69.7676 14.3999 69.1196 14.3999 68.2916 14.3999C67.5596 14.3999 66.9656 14.3999 66.5096 14.3999C66.0656 14.3999 65.7056 14.3999 65.4296 14.3999C65.1656 14.3999 64.9616 14.3999 64.8176 14.3999C64.6856 14.4119 64.5716 14.4239 64.4756 14.4359C64.5236 13.6919 64.5596 12.9359 64.5836 12.1679C64.6076 11.3879 64.6196 10.4999 64.6196 9.5039V7.0559ZM77.3276 11.6999C77.3276 11.1839 77.3276 10.7939 77.3276 10.5299C77.3396 10.2539 77.3456 10.0139 77.3456 9.8099C77.0936 9.9539 76.8236 10.0739 76.5356 10.1699C76.2596 10.2539 76.0016 10.3679 75.7616 10.5119C75.5336 10.6439 75.3416 10.8299 75.1856 11.0699C75.0416 11.3099 74.9696 11.6579 74.9696 12.1139C74.9696 12.5579 75.0596 12.8999 75.2396 13.1399C75.4316 13.3679 75.6836 13.4819 75.9956 13.4819C76.3916 13.4819 76.7096 13.3319 76.9496 13.0319C77.2016 12.7319 77.3276 12.2879 77.3276 11.6999ZM73.0616 6.8039C73.5656 6.3959 74.1056 6.0839 74.6816 5.8679C75.2696 5.6519 75.8516 5.5439 76.4276 5.5439C76.9076 5.5439 77.3456 5.5979 77.7416 5.7059C78.1496 5.8139 78.4976 5.9879 78.7856 6.2279C79.0856 6.4559 79.3136 6.7559 79.4696 7.1279C79.6376 7.4999 79.7216 7.9499 79.7216 8.4779C79.7216 9.2459 79.7096 9.9599 79.6856 10.6199C79.6736 11.2679 79.6676 11.9159 79.6676 12.5639C79.6676 12.8519 79.6856 13.0799 79.7216 13.2479C79.7696 13.4039 79.8356 13.5239 79.9196 13.6079C80.0036 13.6919 80.1116 13.7459 80.2436 13.7699C80.3876 13.7939 80.5496 13.8059 80.7296 13.8059V14.2379C80.3816 14.3819 80.0876 14.4899 79.8476 14.5619C79.6076 14.6339 79.3496 14.6699 79.0736 14.6699C78.6296 14.6699 78.2696 14.5619 77.9936 14.3459C77.7176 14.1299 77.5076 13.8179 77.3636 13.4099C77.0876 13.7939 76.7636 14.0999 76.3916 14.3279C76.0316 14.5559 75.5756 14.6699 75.0236 14.6699C74.5676 14.6699 74.1776 14.6099 73.8536 14.4899C73.5296 14.3699 73.2596 14.2019 73.0436 13.9859C72.8396 13.7579 72.6896 13.5059 72.5936 13.2299C72.4976 12.9419 72.4496 12.6539 72.4496 12.3659C72.4496 11.9699 72.5096 11.6279 72.6296 11.3399C72.7616 11.0519 72.9416 10.8059 73.1696 10.6019C73.4096 10.3979 73.6916 10.2299 74.0156 10.0979C74.3396 9.9539 74.7056 9.8339 75.1136 9.7379C75.6176 9.6179 76.0136 9.5159 76.3016 9.4319C76.6016 9.3359 76.8236 9.2459 76.9676 9.1619C77.1116 9.0659 77.2016 8.9639 77.2376 8.8559C77.2856 8.7479 77.3096 8.6159 77.3096 8.4599C77.3096 8.0279 77.1536 7.6619 76.8416 7.3619C76.5416 7.0499 76.1216 6.8939 75.5816 6.8939C75.3776 6.8939 75.1676 6.9239 74.9516 6.9839C74.7356 7.0319 74.5256 7.1039 74.3216 7.1999C74.1296 7.2959 73.9496 7.4039 73.7816 7.5239C73.6256 7.6319 73.5056 7.7519 73.4216 7.8839H73.2956L73.0616 6.8039ZM84.4736 7.1279C84.8096 6.6239 85.1996 6.2339 85.6436 5.9579C86.0996 5.6819 86.6156 5.5439 87.1916 5.5439C87.7316 5.5439 88.1936 5.6939 88.5776 5.9939C88.9736 6.2819 89.2796 6.7019 89.4956 7.2539C89.8556 6.7019 90.2756 6.2819 90.7556 5.9939C91.2356 5.6939 91.7456 5.5439 92.2856 5.5439C93.1856 5.5439 93.8756 5.8079 94.3556 6.3359C94.8476 6.8519 95.0936 7.6919 95.0936 8.8559C95.0936 9.4679 95.0816 10.0079 95.0576 10.4759C95.0336 10.9439 95.0216 11.4119 95.0216 11.8799C95.0216 12.2639 95.0276 12.6839 95.0396 13.1399C95.0636 13.5839 95.0876 14.0159 95.1116 14.4359C94.9556 14.4119 94.7576 14.3999 94.5176 14.3999C94.2776 14.3999 94.0256 14.3999 93.7616 14.3999C93.4976 14.3999 93.2456 14.3999 93.0056 14.3999C92.7656 14.3999 92.5676 14.4119 92.4116 14.4359C92.4956 13.8119 92.5496 13.0799 92.5736 12.2399C92.5976 11.3879 92.6096 10.4159 92.6096 9.3239C92.6096 8.5679 92.4836 8.0159 92.2316 7.6679C91.9796 7.3079 91.6256 7.1279 91.1696 7.1279C90.8816 7.1279 90.6416 7.1939 90.4496 7.3259C90.2696 7.4579 90.1256 7.6319 90.0176 7.8479C89.9096 8.0519 89.8376 8.2739 89.8016 8.5139C89.7656 8.7539 89.7476 8.9819 89.7476 9.1979V10.4939C89.7476 11.2259 89.7536 11.9159 89.7656 12.5639C89.7896 13.2119 89.8316 13.8359 89.8916 14.4359C89.7356 14.4119 89.5376 14.3999 89.2976 14.3999C89.0696 14.3999 88.8176 14.3999 88.5416 14.3999C88.2656 14.3999 88.0136 14.3999 87.7856 14.3999C87.5576 14.3999 87.3596 14.4119 87.1916 14.4359C87.2516 13.8359 87.2876 13.2119 87.2996 12.5639C87.3236 11.9159 87.3356 11.2259 87.3356 10.4939V9.3959C87.3356 8.6759 87.2456 8.1179 87.0656 7.7219C86.8856 7.3259 86.5436 7.1279 86.0396 7.1279C85.4996 7.1279 85.1036 7.3619 84.8516 7.8299C84.5996 8.2979 84.4736 8.9459 84.4736 9.7739V10.4939C84.4736 11.2259 84.4796 11.9159 84.4916 12.5639C84.5156 13.2119 84.5576 13.8359 84.6176 14.4359C84.4616 14.4119 84.2636 14.3999 84.0236 14.3999C83.7956 14.3999 83.5436 14.3999 83.2676 14.3999C82.9916 14.3999 82.7396 14.3999 82.5116 14.3999C82.2836 14.3999 82.0856 14.4119 81.9176 14.4359C81.9776 13.8359 82.0136 13.2119 82.0256 12.5639C82.0496 11.9159 82.0616 11.2259 82.0616 10.4939V9.7739C82.0616 9.0419 82.0496 8.3579 82.0256 7.7219C82.0136 7.0739 81.9776 6.4259 81.9176 5.7779C82.1336 5.8019 82.3436 5.8259 82.5476 5.8499C82.7636 5.8619 82.9796 5.8679 83.1956 5.8679C83.4116 5.8679 83.6216 5.8619 83.8256 5.8499C84.0416 5.8259 84.2696 5.8019 84.5096 5.7779L84.4376 7.1279H84.4736ZM99.5217 10.1879C99.5217 10.7159 99.5397 11.2079 99.5757 11.6639C99.6237 12.1199 99.7017 12.5159 99.8097 12.8519C99.9297 13.1759 100.086 13.4339 100.278 13.6259C100.482 13.8179 100.746 13.9139 101.07 13.9139C101.586 13.9139 101.994 13.5959 102.294 12.9599C102.606 12.3119 102.762 11.2559 102.762 9.7919C102.762 7.7039 102.246 6.6599 101.214 6.6599C100.962 6.6599 100.728 6.7199 100.512 6.8399C100.308 6.9599 100.128 7.1639 99.9717 7.4519C99.8277 7.7279 99.7137 8.0939 99.6297 8.5499C99.5577 8.9939 99.5217 9.5399 99.5217 10.1879ZM97.1097 7.0919C97.1097 5.9159 97.0977 4.8359 97.0737 3.8519C97.0497 2.8679 97.0137 1.8719 96.9657 0.863902C97.1217 0.887901 97.3197 0.911901 97.5597 0.935902C97.7997 0.947902 98.0517 0.953902 98.3157 0.953902C98.5797 0.953902 98.8317 0.947902 99.0717 0.935902C99.3117 0.911901 99.5097 0.887901 99.6657 0.863902C99.6177 1.8719 99.5817 2.8679 99.5577 3.8519C99.5337 4.8359 99.5217 5.9159 99.5217 7.0919H99.5577C99.7617 6.5879 100.074 6.2039 100.494 5.9399C100.926 5.6759 101.412 5.5439 101.952 5.5439C102.468 5.5439 102.936 5.6579 103.356 5.8859C103.788 6.1139 104.154 6.4199 104.454 6.8039C104.766 7.1879 105.006 7.6439 105.174 8.1719C105.342 8.6879 105.426 9.2459 105.426 9.8459C105.426 10.7459 105.3 11.5079 105.048 12.1319C104.808 12.7439 104.49 13.2419 104.094 13.6259C103.71 14.0099 103.278 14.2799 102.798 14.4359C102.318 14.5919 101.844 14.6699 101.376 14.6699C100.8 14.6699 100.314 14.5619 99.9177 14.3459C99.5217 14.1179 99.1977 13.8239 98.9457 13.4639C98.6937 13.6079 98.4357 13.7759 98.1717 13.9679C97.9197 14.1599 97.6617 14.3399 97.3977 14.5079H96.9657C97.0137 13.4999 97.0497 12.5039 97.0737 11.5199C97.0977 10.5239 97.1097 9.4379 97.1097 8.2619V7.0919ZM109.272 10.1339C109.272 10.6139 109.32 11.0639 109.416 11.4839C109.512 11.9039 109.656 12.2699 109.848 12.5819C110.052 12.8819 110.304 13.1219 110.604 13.3019C110.916 13.4699 111.276 13.5539 111.684 13.5539C112.512 13.5539 113.25 13.2839 113.898 12.7439L114.114 12.9059L113.718 13.9139C113.418 14.1419 113.058 14.3219 112.638 14.4539C112.218 14.5979 111.666 14.6699 110.982 14.6699C110.394 14.6699 109.836 14.5859 109.308 14.4179C108.78 14.2619 108.312 13.9979 107.904 13.6259C107.508 13.2539 107.19 12.7859 106.95 12.2219C106.722 11.6459 106.608 10.9619 106.608 10.1699C106.608 9.3899 106.71 8.7119 106.914 8.1359C107.13 7.5599 107.424 7.0799 107.796 6.6959C108.168 6.3119 108.606 6.0239 109.11 5.8319C109.626 5.6399 110.184 5.5439 110.784 5.5439C111.972 5.5439 112.878 5.8919 113.502 6.5879C114.138 7.2839 114.456 8.2679 114.456 9.5399V9.9179C114.456 10.0259 114.45 10.0979 114.438 10.1339H109.272ZM112.044 9.3239C112.02 8.4239 111.906 7.7039 111.702 7.1639C111.51 6.6239 111.18 6.3539 110.712 6.3539C110.448 6.3539 110.226 6.4439 110.046 6.6239C109.866 6.8039 109.722 7.0379 109.614 7.3259C109.506 7.6019 109.422 7.9199 109.362 8.2799C109.314 8.6279 109.284 8.9759 109.272 9.3239H112.044ZM120.702 5.8679C120.666 6.0479 120.648 6.2099 120.648 6.3539C120.648 6.5099 120.666 6.6599 120.702 6.8039L119.118 6.7679C119.094 7.0439 119.07 7.3619 119.046 7.7219C119.034 8.0819 119.022 8.4479 119.01 8.8199C119.01 9.1919 119.004 9.5519 118.992 9.8999C118.992 10.2479 118.992 10.5419 118.992 10.7819C118.992 11.4059 119.004 11.9099 119.028 12.2939C119.064 12.6779 119.118 12.9719 119.19 13.1759C119.262 13.3799 119.364 13.5179 119.496 13.5899C119.628 13.6619 119.796 13.6979 120 13.6979C120.228 13.6979 120.396 13.6859 120.504 13.6619C120.612 13.6259 120.72 13.5779 120.828 13.5179V14.2559C120.588 14.3639 120.288 14.4599 119.928 14.5439C119.568 14.6279 119.214 14.6699 118.866 14.6699C117.342 14.6699 116.58 13.7579 116.58 11.9339C116.58 11.5859 116.586 11.1959 116.598 10.7639C116.61 10.3199 116.622 9.8699 116.634 9.4139C116.658 8.9459 116.676 8.4899 116.688 8.0459C116.7 7.5899 116.706 7.1699 116.706 6.7859L115.446 6.8039C115.482 6.6599 115.5 6.5099 115.5 6.3539C115.5 6.2099 115.482 6.0479 115.446 5.8679L116.706 5.9219C116.706 5.5499 116.7 5.2019 116.688 4.8779C116.676 4.5539 116.658 4.1639 116.634 3.7079C117.054 3.5399 117.468 3.3659 117.876 3.1859C118.284 2.9939 118.692 2.7959 119.1 2.5919L119.28 2.7179C119.256 2.9099 119.232 3.1379 119.208 3.4019C119.196 3.6539 119.178 3.9239 119.154 4.2119C119.142 4.4879 119.13 4.7759 119.118 5.0759C119.118 5.3639 119.118 5.6399 119.118 5.9039L120.702 5.8679ZM122.106 7.0919C122.106 5.9159 122.094 4.8359 122.07 3.8519C122.046 2.8679 122.01 1.8719 121.962 0.863902C122.118 0.887901 122.316 0.911901 122.556 0.935902C122.796 0.947902 123.048 0.953902 123.312 0.953902C123.576 0.953902 123.828 0.947902 124.068 0.935902C124.308 0.911901 124.506 0.887901 124.662 0.863902C124.614 1.8719 124.578 2.8679 124.554 3.8519C124.53 4.8359 124.518 5.9159 124.518 7.0919L124.554 7.1279C124.866 6.6239 125.244 6.2339 125.688 5.9579C126.144 5.6819 126.66 5.5439 127.236 5.5439C128.136 5.5439 128.826 5.8079 129.306 6.3359C129.798 6.8519 130.044 7.6919 130.044 8.8559C130.044 9.4679 130.032 10.0079 130.008 10.4759C129.984 10.9439 129.972 11.4119 129.972 11.8799C129.972 12.2639 129.978 12.6839 129.99 13.1399C130.014 13.5839 130.038 14.0159 130.062 14.4359C129.906 14.4119 129.708 14.3999 129.468 14.3999C129.228 14.3999 128.976 14.3999 128.712 14.3999C128.448 14.3999 128.196 14.3999 127.956 14.3999C127.716 14.3999 127.518 14.4119 127.362 14.4359C127.446 13.8119 127.5 13.0799 127.524 12.2399C127.548 11.3879 127.56 10.4159 127.56 9.3239C127.56 8.5679 127.428 8.0159 127.164 7.6679C126.912 7.3079 126.552 7.1279 126.084 7.1279C125.544 7.1279 125.148 7.3619 124.896 7.8299C124.644 8.2979 124.518 8.9459 124.518 9.7739V10.4939C124.518 10.6619 124.518 10.9079 124.518 11.2319C124.53 11.5439 124.542 11.8919 124.554 12.2759C124.566 12.6479 124.578 13.0319 124.59 13.4279C124.614 13.8119 124.638 14.1479 124.662 14.4359C124.506 14.4119 124.308 14.3999 124.068 14.3999C123.828 14.3999 123.576 14.3999 123.312 14.3999C123.048 14.3999 122.796 14.3999 122.556 14.3999C122.316 14.3999 122.118 14.4119 121.962 14.4359C122.01 13.4639 122.046 12.4859 122.07 11.5019C122.094 10.5179 122.106 9.4379 122.106 8.2619V7.0919Z" fill="white"/>
</svg>
