<svg width="134" height="28" viewBox="0 0 134 28" fill="none" xmlns="http://www.w3.org/2000/svg">
<path opacity="0.6" fill-rule="evenodd" clip-rule="evenodd" d="M11.9437 0.937726C11.8407 0.958881 11.6815 1.04834 11.5899 1.13645C11.4722 1.24967 11.0731 2.1059 10.2303 4.05318C9.5741 5.56922 8.17153 8.7973 7.11344 11.2267L5.18971 15.6438H7.7058H10.2219L11.386 12.9108C12.0262 11.4077 12.8914 9.31363 13.3086 8.25738C13.7258 7.20113 14.1122 6.23056 14.1671 6.10056C14.222 5.97056 14.3771 5.75287 14.5118 5.61673C14.6617 5.46533 14.8558 5.34024 15.0121 5.29444C15.1655 5.24948 15.6195 5.21851 16.1501 5.21692C17.007 5.21426 17.0408 5.21887 17.3051 5.37493C17.4692 5.47178 17.6484 5.64781 17.7564 5.81811C17.8548 5.97346 18.4828 7.41681 19.1519 9.02557C19.8211 10.6343 20.8323 13.0541 21.3991 14.4028C21.9659 15.7516 22.9803 18.1581 23.6533 19.7506C24.3262 21.3431 25.2513 23.5368 25.709 24.6256C26.1668 25.7143 26.5736 26.6702 26.6132 26.7499C26.6527 26.8295 26.7642 26.9385 26.861 26.9921C27.0187 27.0793 27.2832 27.0865 29.4028 27.062L31.7686 27.0346L31.7328 26.8494C31.7131 26.7475 30.7717 24.4838 29.6407 21.8188C28.5097 19.1538 26.1182 13.5107 24.3263 9.27865C22.5344 5.04662 21.014 1.47717 20.9476 1.34658C20.8813 1.21599 20.7557 1.06217 20.6685 1.00485C20.5209 0.907649 20.224 0.900499 16.3205 0.899908C14.0163 0.899553 12.0468 0.916571 11.9437 0.937726ZM40.7191 7.54829V14.0483H42.0137H43.3084V11.8915V9.73466L45.677 9.73442C47.4731 9.73424 48.1736 9.71332 48.5752 9.64779C48.8665 9.60028 49.2616 9.50722 49.4533 9.44097C49.6449 9.37467 49.91 9.25667 50.0426 9.17867C50.1751 9.10073 50.4192 8.89285 50.5851 8.7167C50.751 8.54055 50.939 8.29201 51.0028 8.16443C51.0667 8.0368 51.1743 7.75954 51.2419 7.54829C51.3096 7.33704 51.3976 6.99136 51.4376 6.78011C51.479 6.56106 51.5087 5.95171 51.5067 5.36193C51.5039 4.55114 51.4766 4.20091 51.3803 3.73988C51.3127 3.41653 51.1722 2.97778 51.068 2.76488C50.9575 2.53915 50.742 2.2408 50.5508 2.04905C50.3705 1.86823 50.0773 1.64924 49.8993 1.56244C49.7213 1.47557 49.3761 1.35355 49.1322 1.29121C48.8884 1.22881 48.4005 1.14868 48.048 1.11305C47.6657 1.0744 46.0586 1.04829 44.0631 1.04829H40.7191V7.54829ZM76.0866 7.54829V14.0483H77.3511H78.6157L78.6311 11.7585L78.6465 9.46875H80.4918H82.3372L83.6696 11.7579L85.002 14.0471L86.3765 14.0477C87.4797 14.0482 87.7453 14.0332 87.7217 13.9715C87.7056 13.9293 87.0672 12.8541 86.3031 11.5821C85.539 10.3101 84.9138 9.24739 84.9138 9.22045C84.9138 9.1935 85.0439 9.12507 85.2029 9.06835C85.3619 9.01168 85.6252 8.86478 85.7879 8.74205C85.9506 8.61926 86.1683 8.4135 86.2717 8.28468C86.3751 8.15592 86.5211 7.91761 86.5961 7.75511C86.6711 7.59261 86.7735 7.301 86.8237 7.10706C86.8738 6.91312 86.9417 6.46858 86.9744 6.11918C87.0142 5.69644 87.0148 5.23122 86.9763 4.72859C86.9445 4.31318 86.8643 3.76056 86.798 3.50056C86.7317 3.24056 86.6068 2.88158 86.5202 2.70283C86.4338 2.52408 86.2157 2.2314 86.0356 2.05248C85.8556 1.87349 85.5626 1.65456 85.3845 1.56592C85.2065 1.47723 84.8613 1.35367 84.6175 1.29127C84.3736 1.22887 83.8857 1.14868 83.5332 1.11305C83.1495 1.07429 81.5276 1.04829 79.4895 1.04829H76.0866V7.54829ZM115.397 7.54829V14.0483H116.692H117.986V11.3301V8.61193H120.546H123.106V7.8142V7.01647H120.546H117.986V4.8892V2.76192H120.924H123.862L123.895 2.59942C123.913 2.51008 123.969 2.17101 124.02 1.84601C124.07 1.52101 124.121 1.2086 124.133 1.15169C124.153 1.05396 123.915 1.04829 119.776 1.04829H115.397V7.54829ZM130.992 7.54829V14.0483H132.257H133.522V7.54829V1.04829H132.257H130.992V7.54829ZM61.0912 1.23312C61.0307 1.25558 60.9395 1.36283 60.8884 1.47138C60.8375 1.57993 60.1686 3.14454 59.4021 4.94829C58.6356 6.75204 57.9948 8.27434 57.9781 8.33125C57.9499 8.42733 58.0324 8.43466 59.1463 8.4343L60.3448 8.43401L60.6924 7.59225C60.8835 7.12934 61.2617 6.19215 61.5327 5.50965C61.8037 4.82715 62.0981 4.0959 62.1869 3.88465C62.3147 3.58063 62.3909 3.47905 62.5529 3.39727C62.6959 3.32506 62.8972 3.29392 63.2214 3.29386C63.6719 3.29374 63.6905 3.29941 63.8687 3.49181C64.0034 3.63712 64.2937 4.28576 64.9596 5.92932C65.4586 7.16101 66.4056 9.4717 67.0639 11.0642C67.7222 12.6567 68.3024 13.9907 68.3533 14.0287C68.42 14.0786 68.7599 14.0887 69.5739 14.0651C70.1943 14.0471 70.7089 14.0268 70.7173 14.0201C70.7258 14.0133 69.5548 11.165 68.1152 7.69046C66.4486 3.6682 65.4527 1.33635 65.3739 1.27171C65.2615 1.17947 65.0627 1.17114 63.2256 1.18118C62.1122 1.18727 61.1517 1.21067 61.0912 1.23312ZM99.4011 1.23312C99.3406 1.25558 99.2494 1.36283 99.1984 1.47138C99.1474 1.57993 98.4785 3.14454 97.712 4.94829C96.9455 6.75204 96.3047 8.27434 96.288 8.33125C96.2598 8.42733 96.3423 8.43466 97.4562 8.4343L98.6547 8.43401L99.0023 7.59225C99.1934 7.12934 99.5716 6.19215 99.8426 5.50965C100.114 4.82715 100.408 4.0959 100.497 3.88465C100.625 3.58063 100.701 3.47905 100.863 3.39727C101.006 3.32506 101.207 3.29392 101.531 3.29386C101.982 3.29374 102 3.29941 102.179 3.49181C102.313 3.63712 102.604 4.28576 103.27 5.92932C103.769 7.16101 104.716 9.4717 105.374 11.0642C106.032 12.6567 106.612 13.9907 106.663 14.0287C106.73 14.0786 107.07 14.0887 107.884 14.0651C108.504 14.0471 109.019 14.0268 109.027 14.0201C109.036 14.0133 107.865 11.165 106.425 7.69046C104.759 3.6682 103.763 1.33635 103.684 1.27171C103.571 1.17947 103.373 1.17114 101.535 1.18118C100.422 1.18727 99.4616 1.21067 99.4011 1.23312ZM47.9505 2.82403C48.1571 2.85771 48.4016 2.92442 48.4939 2.97229C48.5861 3.02021 48.7017 3.13739 48.7508 3.2327C48.8255 3.37783 48.8401 3.73864 48.8401 5.45056C48.8401 7.16249 48.8255 7.5233 48.7508 7.66842C48.7017 7.76374 48.5861 7.88091 48.4939 7.92884C48.4016 7.9767 48.1571 8.04341 47.9505 8.0771C47.7413 8.11119 46.6294 8.13849 45.4416 8.13873L43.3084 8.1392V5.45056V2.76192L45.4416 2.7624C46.6294 2.76263 47.7413 2.78993 47.9505 2.82403ZM83.4411 2.82491C83.6508 2.85907 83.9059 2.93884 84.008 3.00225C84.1101 3.06565 84.2244 3.19181 84.2618 3.28269C84.31 3.39934 84.325 4.01625 84.3129 5.38479L84.2959 7.32174L84.1069 7.49121C84.003 7.5844 83.8044 7.6946 83.6655 7.73608C83.4793 7.7918 82.7886 7.8119 81.0298 7.8129L78.6465 7.8142L78.6311 5.36198C78.6226 4.01323 78.6284 2.87644 78.6439 2.83585C78.6659 2.77853 79.1643 2.76204 80.8661 2.7624C82.116 2.76263 83.2241 2.78952 83.4411 2.82491ZM56.8161 10.8131C56.772 10.9187 56.4477 11.6848 56.0952 12.5155L55.4544 14.0258L56.6791 14.0188C57.3554 14.0149 57.9284 13.9868 57.9588 13.9562C57.9891 13.9256 58.3166 13.1626 58.6864 12.2608L59.3589 10.621H58.1275H56.8962L56.8161 10.8131ZM95.2165 10.754C95.1881 10.8271 94.8624 11.5932 94.4928 12.4564L93.8207 14.0259L95.0465 14.0188C95.7237 14.0149 96.2972 13.9868 96.3276 13.9562C96.3579 13.9256 96.6849 13.1626 97.0541 12.2608L97.7255 10.621H96.4968C95.2771 10.621 95.2677 10.622 95.2165 10.754ZM1.69156 23.5182C0.892288 25.346 0.222365 26.8839 0.202827 26.9359C0.170755 27.0209 0.402086 27.0334 2.56615 27.0632C4.58046 27.0909 4.99928 27.0825 5.17835 27.0105C5.31517 26.9555 5.43516 26.8463 5.5129 26.7059C5.57957 26.5855 5.97856 25.6626 6.3995 24.6551C6.8205 23.6476 7.41586 22.2317 7.72258 21.5085L8.28016 20.1938L5.71245 20.1943L3.14475 20.1949L1.69156 23.5182ZM49.0031 21.4919C48.8499 21.5198 48.6126 21.6048 48.4757 21.6807C48.3387 21.7567 48.1661 21.9092 48.0919 22.0197C48.0178 22.1303 47.924 22.3297 47.8837 22.4629C47.8334 22.6288 47.8102 23.1707 47.8102 24.1824C47.8102 25.1941 47.8334 25.736 47.8837 25.9019C47.924 26.0351 48.0167 26.2345 48.0896 26.3451C48.1715 26.4692 48.3572 26.6138 48.5752 26.7233L48.9283 26.9006H49.9876H51.0469L51.3972 26.7233C51.6519 26.5944 51.7762 26.4891 51.8524 26.3374C51.91 26.2226 51.9844 25.9846 52.0177 25.8084C52.0679 25.5426 52.0629 25.4727 51.9881 25.3976C51.9209 25.3301 51.8729 25.323 51.7996 25.3694C51.7454 25.4037 51.6716 25.5628 51.6356 25.723C51.5994 25.8832 51.5221 26.0872 51.4637 26.1764C51.3924 26.2852 51.2592 26.3678 51.059 26.4275C50.8641 26.4856 50.5103 26.5165 50.0387 26.5165C49.6416 26.5165 49.1821 26.4875 49.0178 26.4521C48.8534 26.4167 48.6407 26.3217 48.5451 26.2409C48.4368 26.1494 48.3376 25.9801 48.2819 25.7922C48.214 25.5622 48.1927 25.1794 48.1927 24.1824C48.1927 23.1854 48.214 22.8026 48.2819 22.5726C48.3376 22.3847 48.4368 22.2154 48.5451 22.1239C48.6407 22.0431 48.8534 21.948 49.0178 21.9127C49.1821 21.8773 49.6346 21.8483 50.0233 21.8483C50.4119 21.8483 50.845 21.8774 50.9857 21.9129C51.1266 21.9486 51.3135 22.0532 51.4019 22.1458C51.4984 22.247 51.59 22.4373 51.6317 22.6235C51.6699 22.7938 51.7437 22.96 51.7957 22.993C51.8625 23.0353 51.9175 23.0301 51.9831 22.9755C52.0522 22.9179 52.067 22.8358 52.0413 22.6539C52.0223 22.5196 51.9418 22.2714 51.8623 22.1023C51.7387 21.8396 51.6705 21.7718 51.3912 21.6346C51.0861 21.4847 51.006 21.4731 50.173 21.4576C49.6826 21.4485 49.1561 21.4639 49.0031 21.4919ZM63.4478 21.4841C63.4067 21.5103 62.8969 22.6919 62.315 24.1099C61.7331 25.5279 61.2569 26.715 61.2569 26.7479C61.2569 26.7809 61.313 26.8379 61.3815 26.8747C61.4778 26.9265 61.5239 26.9236 61.5847 26.8621C61.628 26.8182 61.7916 26.4766 61.9482 26.1029L62.2331 25.4233L63.5612 25.4075C64.5799 25.3953 64.9026 25.4091 64.9463 25.4666C64.9776 25.5077 65.1186 25.8282 65.2595 26.1786C65.4005 26.529 65.5473 26.8419 65.5857 26.8739C65.6242 26.906 65.6967 26.9164 65.7468 26.897C65.7969 26.8777 65.8518 26.8257 65.8687 26.7815C65.8856 26.7373 65.4231 25.5369 64.8409 24.1141C64.2587 22.6912 63.7504 21.5067 63.7113 21.4818C63.6722 21.4569 63.6138 21.4365 63.5814 21.4365C63.5491 21.4365 63.4889 21.4579 63.4478 21.4841ZM75.2745 21.5056C75.2217 21.5586 75.2039 22.2354 75.2039 24.187C75.2039 26.4968 75.2146 26.8064 75.2971 26.8752C75.3646 26.9315 75.4172 26.9358 75.4883 26.8908C75.5731 26.8371 75.5886 26.6798 75.6024 25.7272L75.6184 24.6256L76.6322 24.6252C77.1898 24.625 77.7419 24.5982 77.859 24.5655C77.976 24.5329 78.1614 24.4466 78.2709 24.3737C78.3825 24.2995 78.5344 24.1115 78.6168 23.946C78.7454 23.6871 78.7635 23.5738 78.7632 23.0301C78.7628 22.4985 78.7428 22.3689 78.6239 22.1251C78.5419 21.957 78.3971 21.7821 78.2701 21.6977C78.152 21.6191 77.9132 21.5278 77.7396 21.4948C77.566 21.4617 76.9562 21.4347 76.3846 21.4347C75.6546 21.4347 75.3241 21.4558 75.2745 21.5056ZM88.2158 21.5153C88.1679 21.5734 88.1535 22.3298 88.1645 24.2123C88.1783 26.5794 88.1892 26.8346 88.2779 26.8907C88.349 26.9358 88.4015 26.9315 88.4691 26.8752C88.5516 26.8064 88.5623 26.4968 88.5623 24.187C88.5623 22.2354 88.5445 21.5586 88.4917 21.5056C88.4529 21.4666 88.3899 21.4347 88.3518 21.4347C88.3137 21.4347 88.2525 21.4709 88.2158 21.5153ZM98.0704 21.5275C98.0196 21.5786 97.978 21.6398 97.978 21.6634C97.978 21.6871 98.0097 21.7384 98.0486 21.7774C98.0975 21.8266 98.4043 21.8483 99.049 21.8483H99.9788V24.3229C99.9788 26.5086 99.9897 26.8066 100.072 26.8752C100.14 26.9315 100.192 26.9358 100.263 26.8907C100.352 26.8346 100.363 26.5878 100.377 24.3385L100.392 21.8483H101.321C101.965 21.8483 102.272 21.8266 102.321 21.7774C102.36 21.7384 102.392 21.6871 102.392 21.6634C102.392 21.6398 102.35 21.5786 102.299 21.5275C102.219 21.4467 101.944 21.4347 100.185 21.4347C98.4252 21.4347 98.1509 21.4467 98.0704 21.5275ZM112.115 21.4841C112.074 21.5103 111.564 22.6919 110.982 24.1099C110.4 25.5279 109.924 26.715 109.924 26.7479C109.924 26.7809 109.98 26.8379 110.049 26.8747C110.145 26.9265 110.191 26.9236 110.251 26.8621C110.294 26.8182 110.457 26.4766 110.613 26.1029L110.898 25.4233H112.25H113.602L113.896 26.1154C114.058 26.4961 114.219 26.836 114.254 26.8707C114.289 26.9055 114.36 26.9178 114.412 26.8979C114.463 26.8781 114.519 26.8256 114.536 26.7812C114.553 26.7369 114.09 25.5362 113.507 24.1131C112.924 22.6901 112.416 21.5056 112.377 21.4811C112.339 21.4565 112.281 21.4365 112.249 21.4365C112.216 21.4365 112.156 21.4579 112.115 21.4841ZM124 21.5056C123.948 21.5586 123.93 22.2343 123.93 24.1824C123.93 26.1304 123.948 26.8062 124 26.8592C124.052 26.9105 124.472 26.9301 125.523 26.9301C126.721 26.9301 126.988 26.9151 127.046 26.8443C127.085 26.7971 127.1 26.704 127.079 26.6375C127.042 26.5202 127 26.5165 125.691 26.5165H124.342V24.0465C124.342 22.2042 124.324 21.5585 124.271 21.5056C124.232 21.4666 124.171 21.4347 124.136 21.4347C124.1 21.4347 124.039 21.4666 124 21.5056ZM77.9775 22.0113C78.0951 22.0847 78.2275 22.231 78.2717 22.3363C78.3197 22.4505 78.3522 22.7426 78.3522 23.0597C78.3522 23.4166 78.3232 23.648 78.264 23.7634C78.2154 23.858 78.101 23.991 78.0097 24.0589C77.8576 24.1721 77.7505 24.184 76.7298 24.2018L75.6158 24.2212V23.03V21.8389L76.6898 21.8584C77.684 21.8764 77.7796 21.8878 77.9775 22.0113ZM64.2221 23.655C64.5009 24.34 64.729 24.9317 64.729 24.9698C64.729 25.0206 64.4209 25.0392 63.5814 25.0392C62.6721 25.0392 62.4339 25.0231 62.4339 24.9615C62.4339 24.9187 62.6084 24.46 62.8217 23.9421C63.035 23.4243 63.2906 22.8042 63.3896 22.5641C63.5618 22.1467 63.5729 22.1338 63.6425 22.2686C63.6825 22.3462 63.9433 22.9701 64.2221 23.655ZM112.889 23.655C113.168 24.34 113.396 24.9317 113.396 24.9698C113.396 25.0206 113.088 25.0392 112.249 25.0392C111.339 25.0392 111.101 25.0231 111.101 24.9615C111.101 24.9187 111.276 24.46 111.489 23.9421C111.702 23.4243 111.958 22.8042 112.057 22.5641C112.229 22.1467 112.24 22.1338 112.31 22.2686C112.35 22.3462 112.61 22.9701 112.889 23.655Z" fill="white"/>
</svg>
