<svg width="79" height="15" viewBox="0 0 79 15" fill="none" xmlns="http://www.w3.org/2000/svg">
<path opacity="0.6" d="M11.34 12.4019C11.244 12.6539 11.16 12.9119 11.088 13.1759C11.016 13.4279 10.968 13.6799 10.944 13.9319C9.972 14.4239 8.748 14.6699 7.272 14.6699C6.228 14.6699 5.292 14.5259 4.464 14.2379C3.648 13.9379 2.952 13.5239 2.376 12.9959C1.812 12.4559 1.38 11.8199 1.08 11.0879C0.78 10.3559 0.63 9.5639 0.63 8.7119C0.63 7.4639 0.822 6.4079 1.206 5.5439C1.602 4.6679 2.124 3.9599 2.772 3.4199C3.432 2.8679 4.194 2.4659 5.058 2.2139C5.922 1.9619 6.828 1.8359 7.776 1.8359C8.088 1.8359 8.418 1.8599 8.766 1.9079C9.114 1.9559 9.45 2.0219 9.774 2.1059C10.098 2.1779 10.404 2.2679 10.692 2.3759C10.992 2.4839 11.244 2.5979 11.448 2.7179C11.328 3.0179 11.232 3.3239 11.16 3.6359C11.1 3.9359 11.058 4.2419 11.034 4.5539H10.782C10.326 3.9779 9.858 3.5699 9.378 3.3299C8.898 3.0779 8.334 2.9519 7.686 2.9519C7.206 2.9519 6.72 3.0599 6.228 3.2759C5.748 3.4919 5.31 3.8219 4.914 4.2659C4.518 4.7099 4.194 5.2799 3.942 5.9759C3.702 6.6599 3.582 7.4819 3.582 8.4419C3.582 9.3659 3.708 10.1579 3.96 10.8179C4.212 11.4659 4.536 11.9999 4.932 12.4199C5.34 12.8279 5.796 13.1279 6.3 13.3199C6.816 13.5119 7.332 13.6079 7.848 13.6079C8.136 13.6079 8.43 13.5779 8.73 13.5179C9.03 13.4459 9.324 13.3559 9.612 13.2479C9.9 13.1279 10.17 12.9839 10.422 12.8159C10.686 12.6479 10.914 12.4619 11.106 12.2579L11.34 12.4019ZM17.3159 11.6999C17.3159 11.1839 17.3159 10.7939 17.3159 10.5299C17.3279 10.2539 17.3339 10.0139 17.3339 9.8099C17.0819 9.9539 16.8119 10.0739 16.5239 10.1699C16.2479 10.2539 15.9899 10.3679 15.7499 10.5119C15.5219 10.6439 15.3299 10.8299 15.1739 11.0699C15.0299 11.3099 14.9579 11.6579 14.9579 12.1139C14.9579 12.5579 15.0479 12.8999 15.2279 13.1399C15.4199 13.3679 15.6719 13.4819 15.9839 13.4819C16.3799 13.4819 16.6979 13.3319 16.9379 13.0319C17.1899 12.7319 17.3159 12.2879 17.3159 11.6999ZM13.0499 6.8039C13.5539 6.3959 14.0939 6.0839 14.6699 5.8679C15.2579 5.6519 15.8399 5.5439 16.4159 5.5439C16.8959 5.5439 17.3339 5.5979 17.7299 5.7059C18.1379 5.8139 18.4859 5.9879 18.7739 6.2279C19.0739 6.4559 19.3019 6.7559 19.4579 7.1279C19.6259 7.4999 19.7099 7.9499 19.7099 8.4779C19.7099 9.2459 19.6979 9.9599 19.6739 10.6199C19.6619 11.2679 19.6559 11.9159 19.6559 12.5639C19.6559 12.8519 19.6739 13.0799 19.7099 13.2479C19.7579 13.4039 19.8239 13.5239 19.9079 13.6079C19.9919 13.6919 20.0999 13.7459 20.2319 13.7699C20.3759 13.7939 20.5379 13.8059 20.7179 13.8059V14.2379C20.3699 14.3819 20.0759 14.4899 19.8359 14.5619C19.5959 14.6339 19.3379 14.6699 19.0619 14.6699C18.6179 14.6699 18.2579 14.5619 17.9819 14.3459C17.7059 14.1299 17.4959 13.8179 17.3519 13.4099C17.0759 13.7939 16.7519 14.0999 16.3799 14.3279C16.0199 14.5559 15.5639 14.6699 15.0119 14.6699C14.5559 14.6699 14.1659 14.6099 13.8419 14.4899C13.5179 14.3699 13.2479 14.2019 13.0319 13.9859C12.8279 13.7579 12.6779 13.5059 12.5819 13.2299C12.4859 12.9419 12.4379 12.6539 12.4379 12.3659C12.4379 11.9699 12.4979 11.6279 12.6179 11.3399C12.7499 11.0519 12.9299 10.8059 13.1579 10.6019C13.3979 10.3979 13.6799 10.2299 14.0039 10.0979C14.3279 9.9539 14.6939 9.8339 15.1019 9.7379C15.6059 9.6179 16.0019 9.5159 16.2899 9.4319C16.5899 9.3359 16.8119 9.2459 16.9559 9.1619C17.0999 9.0659 17.1899 8.9639 17.2259 8.8559C17.2739 8.7479 17.2979 8.6159 17.2979 8.4599C17.2979 8.0279 17.1419 7.6619 16.8299 7.3619C16.5299 7.0499 16.1099 6.8939 15.5699 6.8939C15.3659 6.8939 15.1559 6.9239 14.9399 6.9839C14.7239 7.0319 14.5139 7.1039 14.3099 7.1999C14.1179 7.2959 13.9379 7.4039 13.7699 7.5239C13.6139 7.6319 13.4939 7.7519 13.4099 7.8839H13.2839L13.0499 6.8039ZM22.3019 7.0919C22.3019 5.9159 22.2899 4.8359 22.2659 3.8519C22.2419 2.8679 22.2059 1.8719 22.1579 0.863902C22.3139 0.887901 22.5119 0.911901 22.7519 0.935902C22.9919 0.947902 23.2439 0.953902 23.5079 0.953902C23.7719 0.953902 24.0239 0.947902 24.2639 0.935902C24.5039 0.911901 24.7019 0.887901 24.8579 0.863902C24.8099 1.8719 24.7739 2.8679 24.7499 3.8519C24.7259 4.8359 24.7139 5.9159 24.7139 7.0919V8.2619C24.7139 9.4379 24.7259 10.5179 24.7499 11.5019C24.7739 12.4859 24.8099 13.4639 24.8579 14.4359C24.7019 14.4119 24.5039 14.3999 24.2639 14.3999C24.0239 14.3999 23.7719 14.3999 23.5079 14.3999C23.2439 14.3999 22.9919 14.3999 22.7519 14.3999C22.5119 14.3999 22.3139 14.4119 22.1579 14.4359C22.2059 13.4639 22.2419 12.4859 22.2659 11.5019C22.2899 10.5179 22.3019 9.4379 22.3019 8.2619V7.0919ZM31.0916 12.0779C31.4756 11.0219 31.8416 9.9719 32.1896 8.9279C32.5496 7.8839 32.9036 6.8339 33.2516 5.7779C33.3836 5.8019 33.5096 5.8259 33.6296 5.8499C33.7496 5.8619 33.8696 5.8679 33.9896 5.8679C34.1096 5.8679 34.2296 5.8619 34.3496 5.8499C34.4696 5.8259 34.6016 5.8019 34.7456 5.7779C34.5536 6.2459 34.3196 6.7919 34.0436 7.4159C33.7676 8.0279 33.4736 8.7059 33.1616 9.4499C32.8616 10.1819 32.5496 10.9739 32.2256 11.8259C31.9136 12.6659 31.6196 13.5359 31.3436 14.4359C31.1756 14.4119 31.0136 14.3999 30.8576 14.3999C30.7016 14.3999 30.5396 14.3999 30.3716 14.3999C30.2036 14.3999 30.0416 14.3999 29.8856 14.3999C29.7296 14.3999 29.5676 14.4119 29.3996 14.4359C29.1596 13.7519 28.8896 12.9959 28.5896 12.1679C28.3016 11.3399 28.0136 10.5299 27.7256 9.7379C27.4376 8.9339 27.1676 8.1839 26.9156 7.4879C26.6636 6.7919 26.4536 6.2219 26.2856 5.7779C26.5376 5.8019 26.7776 5.8259 27.0056 5.8499C27.2456 5.8619 27.4796 5.8679 27.7076 5.8679C27.9356 5.8679 28.1576 5.8619 28.3736 5.8499C28.6016 5.8259 28.8296 5.8019 29.0576 5.7779C29.3816 6.8339 29.7056 7.8839 30.0296 8.9279C30.3656 9.9719 30.7076 11.0219 31.0556 12.0779H31.0916ZM36.0956 2.3759C36.0956 1.9799 36.2336 1.6439 36.5096 1.3679C36.7856 1.0919 37.1216 0.953902 37.5176 0.953902C37.9136 0.953902 38.2496 1.0919 38.5256 1.3679C38.8016 1.6439 38.9396 1.9799 38.9396 2.3759C38.9396 2.7719 38.8016 3.1079 38.5256 3.3839C38.2496 3.6599 37.9136 3.7979 37.5176 3.7979C37.1216 3.7979 36.7856 3.6599 36.5096 3.3839C36.2336 3.1079 36.0956 2.7719 36.0956 2.3759ZM36.3116 9.7739C36.3116 9.0419 36.2996 8.3579 36.2756 7.7219C36.2636 7.0739 36.2276 6.4259 36.1676 5.7779C36.3356 5.8019 36.5336 5.8259 36.7616 5.8499C36.9896 5.8619 37.2416 5.8679 37.5176 5.8679C38.0816 5.8679 38.5316 5.8379 38.8676 5.7779C38.8076 6.4259 38.7656 7.0739 38.7416 7.7219C38.7296 8.3579 38.7236 9.0419 38.7236 9.7739V10.4939C38.7236 11.2259 38.7296 11.9159 38.7416 12.5639C38.7656 13.2119 38.8076 13.8359 38.8676 14.4359C38.7116 14.4119 38.5136 14.3999 38.2736 14.3999C38.0456 14.3999 37.7936 14.3999 37.5176 14.3999C37.2416 14.3999 36.9896 14.3999 36.7616 14.3999C36.5336 14.3999 36.3356 14.4119 36.1676 14.4359C36.2276 13.8359 36.2636 13.2119 36.2756 12.5639C36.2996 11.9159 36.3116 11.2259 36.3116 10.4939V9.7739ZM43.5354 7.1279C43.8714 6.6239 44.2614 6.2339 44.7054 5.9579C45.1614 5.6819 45.6774 5.5439 46.2534 5.5439C47.1534 5.5439 47.8434 5.8079 48.3234 6.3359C48.8154 6.8519 49.0614 7.6919 49.0614 8.8559C49.0614 9.4679 49.0494 10.0079 49.0254 10.4759C49.0014 10.9439 48.9894 11.4119 48.9894 11.8799C48.9894 12.2639 48.9954 12.6839 49.0074 13.1399C49.0314 13.5839 49.0554 14.0159 49.0794 14.4359C48.9234 14.4119 48.7254 14.3999 48.4854 14.3999C48.2454 14.3999 47.9934 14.3999 47.7294 14.3999C47.4654 14.3999 47.2134 14.3999 46.9734 14.3999C46.7334 14.3999 46.5354 14.4119 46.3794 14.4359C46.4634 13.8119 46.5174 13.0799 46.5414 12.2399C46.5654 11.3879 46.5774 10.4159 46.5774 9.3239C46.5774 8.5679 46.4454 8.0159 46.1814 7.6679C45.9294 7.3079 45.5694 7.1279 45.1014 7.1279C44.5614 7.1279 44.1654 7.3619 43.9134 7.8299C43.6614 8.2979 43.5354 8.9459 43.5354 9.7739V10.4939C43.5354 11.2259 43.5414 11.9159 43.5534 12.5639C43.5774 13.2119 43.6194 13.8359 43.6794 14.4359C43.5234 14.4119 43.3254 14.3999 43.0854 14.3999C42.8574 14.3999 42.6054 14.3999 42.3294 14.3999C42.0534 14.3999 41.8014 14.3999 41.5734 14.3999C41.3454 14.3999 41.1474 14.4119 40.9794 14.4359C41.0394 13.8359 41.0754 13.2119 41.0874 12.5639C41.1114 11.9159 41.1234 11.2259 41.1234 10.4939V9.7739C41.1234 9.0419 41.1114 8.3579 41.0874 7.7219C41.0754 7.0739 41.0394 6.4259 40.9794 5.7779C41.1954 5.8019 41.4054 5.8259 41.6094 5.8499C41.8254 5.8619 42.0414 5.8679 42.2574 5.8679C42.4734 5.8679 42.6834 5.8619 42.8874 5.8499C43.1034 5.8259 43.3314 5.8019 43.5714 5.7779L43.4994 7.1279H43.5354ZM56.6391 7.0559C56.6391 6.0599 56.6271 5.1779 56.6031 4.4099C56.5791 3.6299 56.5431 2.8499 56.4951 2.0699C56.6991 2.0939 56.9211 2.1179 57.1611 2.1419C57.4011 2.1539 57.6711 2.1599 57.9711 2.1599C58.2711 2.1599 58.5411 2.1539 58.7811 2.1419C59.0211 2.1179 59.2431 2.0939 59.4471 2.0699C59.3991 2.8499 59.3631 3.6299 59.3391 4.4099C59.3151 5.1779 59.3031 6.0599 59.3031 7.0559V9.5039C59.3031 10.1879 59.3031 10.8479 59.3031 11.4839C59.3151 12.1199 59.3271 12.6719 59.3391 13.1399C60.0231 13.1399 60.7071 13.1219 61.3911 13.0859C62.0751 13.0499 62.7651 12.9899 63.4611 12.9059C63.4371 13.0379 63.4191 13.1579 63.4071 13.2659C63.3951 13.3739 63.3891 13.5239 63.3891 13.7159C63.3891 13.9079 63.3951 14.0579 63.4071 14.1659C63.4191 14.2739 63.4371 14.3639 63.4611 14.4359C63.1371 14.4239 62.7351 14.4119 62.2551 14.3999C61.7871 14.3999 61.1391 14.3999 60.3111 14.3999C59.5791 14.3999 58.9851 14.3999 58.5291 14.3999C58.0851 14.3999 57.7251 14.3999 57.4491 14.3999C57.1851 14.3999 56.9811 14.3999 56.8371 14.3999C56.7051 14.4119 56.5911 14.4239 56.4951 14.4359C56.5431 13.6919 56.5791 12.9359 56.6031 12.1679C56.6271 11.3879 56.6391 10.4999 56.6391 9.5039V7.0559ZM65.1171 2.3759C65.1171 1.9799 65.2551 1.6439 65.5311 1.3679C65.8071 1.0919 66.1431 0.953902 66.5391 0.953902C66.9351 0.953902 67.2711 1.0919 67.5471 1.3679C67.8231 1.6439 67.9611 1.9799 67.9611 2.3759C67.9611 2.7719 67.8231 3.1079 67.5471 3.3839C67.2711 3.6599 66.9351 3.7979 66.5391 3.7979C66.1431 3.7979 65.8071 3.6599 65.5311 3.3839C65.2551 3.1079 65.1171 2.7719 65.1171 2.3759ZM65.3331 9.7739C65.3331 9.0419 65.3211 8.3579 65.2971 7.7219C65.2851 7.0739 65.2491 6.4259 65.1891 5.7779C65.3571 5.8019 65.5551 5.8259 65.7831 5.8499C66.0111 5.8619 66.2631 5.8679 66.5391 5.8679C67.1031 5.8679 67.5531 5.8379 67.8891 5.7779C67.8291 6.4259 67.7871 7.0739 67.7631 7.7219C67.7511 8.3579 67.7451 9.0419 67.7451 9.7739V10.4939C67.7451 11.2259 67.7511 11.9159 67.7631 12.5639C67.7871 13.2119 67.8291 13.8359 67.8891 14.4359C67.7331 14.4119 67.5351 14.3999 67.2951 14.3999C67.0671 14.3999 66.8151 14.3999 66.5391 14.3999C66.2631 14.3999 66.0111 14.3999 65.7831 14.3999C65.5551 14.3999 65.3571 14.4119 65.1891 14.4359C65.2491 13.8359 65.2851 13.2119 65.2971 12.5639C65.3211 11.9159 65.3331 11.2259 65.3331 10.4939V9.7739ZM75.5449 13.1399C75.2089 13.6439 74.8129 14.0279 74.3569 14.2919C73.9129 14.5439 73.4029 14.6699 72.8269 14.6699C71.9269 14.6699 71.2309 14.4179 70.7389 13.9139C70.2589 13.4099 70.0189 12.5759 70.0189 11.4119C70.0189 10.7999 70.0309 10.2599 70.0549 9.7919C70.0789 9.3239 70.0909 8.8559 70.0909 8.3879C70.0909 8.0039 70.0789 7.5899 70.0549 7.1459C70.0429 6.6899 70.0249 6.2339 70.0009 5.7779C70.1569 5.8019 70.3549 5.8259 70.5949 5.8499C70.8349 5.8619 71.0869 5.8679 71.3509 5.8679C71.6149 5.8679 71.8669 5.8619 72.1069 5.8499C72.3469 5.8259 72.5449 5.8019 72.7009 5.7779C72.6169 6.4259 72.5629 7.1759 72.5389 8.0279C72.5149 8.8799 72.5029 9.8519 72.5029 10.9439C72.5029 11.6999 72.6289 12.2579 72.8809 12.6179C73.1449 12.9659 73.5109 13.1399 73.9789 13.1399C74.5189 13.1399 74.9149 12.9059 75.1669 12.4379C75.4189 11.9699 75.5449 11.3219 75.5449 10.4939V9.7739C75.5449 9.0419 75.5329 8.3579 75.5089 7.7219C75.4969 7.0739 75.4609 6.4259 75.4009 5.7779C75.7369 5.8379 76.1869 5.8679 76.7509 5.8679C77.0269 5.8679 77.2789 5.8619 77.5069 5.8499C77.7349 5.8259 77.9329 5.8019 78.1009 5.7779C78.0409 6.4259 77.9989 7.0739 77.9749 7.7219C77.9629 8.3579 77.9569 9.0419 77.9569 9.7739V10.4939C77.9569 11.2259 77.9629 11.9159 77.9749 12.5639C77.9989 13.2119 78.0409 13.8359 78.1009 14.4359C77.8849 14.4119 77.6689 14.3999 77.4529 14.3999C77.2489 14.3999 77.0389 14.3999 76.8229 14.3999C76.6069 14.3999 76.3909 14.3999 76.1749 14.3999C75.9709 14.3999 75.7489 14.4119 75.5089 14.4359L75.5809 13.1399H75.5449Z" fill="white"/>
</svg>
