<svg width="21" height="20" viewBox="0 0 21 20" fill="none" xmlns="http://www.w3.org/2000/svg">
<path d="M15.9104 12.1502L15.6308 12.4146L15.7043 12.7924L16.7994 18.4213C16.8923 18.9703 16.3126 19.3628 15.8542 19.1081L15.8542 19.1081L15.8492 19.1054L10.9809 16.4519L10.6458 16.2693L10.3107 16.452L5.24594 19.2146C5.24591 19.2147 5.24588 19.2147 5.24586 19.2147C4.76224 19.4774 4.20011 19.0786 4.2955 18.5282C4.29563 18.5274 4.29577 18.5267 4.2959 18.5259L5.30366 13.071L5.37294 12.696L5.09539 12.4344L0.906875 8.48712L0.906907 8.48709L0.90102 8.48166C0.523432 8.13389 0.708243 7.46549 1.26593 7.38768L6.76792 6.66431L7.14489 6.61475L7.30853 6.27155L9.78655 1.07428L9.78657 1.07428L9.78868 1.06977C10.0195 0.576743 10.7241 0.576743 10.9549 1.06977L10.9549 1.06978L10.9568 1.07386L13.3471 6.0957L13.5108 6.43956L13.8884 6.48894L19.5901 7.23454L19.59 7.2346L19.599 7.23565C20.1255 7.29759 20.3437 7.96751 19.9522 8.32816L19.9521 8.32811L19.9455 8.33444L15.9104 12.1502Z" stroke="#1D61FF" stroke-width="1.4"/>
</svg>
