<svg width="20" height="20" viewBox="0 0 20 20" fill="none" xmlns="http://www.w3.org/2000/svg">
<path fill-rule="evenodd" clip-rule="evenodd" d="M9.87694 1.5C5.24029 1.5 1.48154 5.30558 1.48154 10C1.48154 14.6944 5.24029 18.5 9.87694 18.5C14.5136 18.5 18.2723 14.6944 18.2723 10C18.2723 9.60975 18.2464 9.22603 18.1963 8.85043L19.6645 8.64963C19.7235 9.0916 19.7539 9.5424 19.7539 10C19.7539 15.5228 15.3318 20 9.87694 20C4.42206 20 0 15.5228 0 10C0 4.47715 4.42206 0 9.87694 0C11.3009 0 12.6564 0.305563 13.8813 0.856176C14.1271 0.966672 14.3676 1.08701 14.6023 1.21669L13.8925 2.53337C13.6931 2.42318 13.4888 2.32096 13.2801 2.22712C12.2408 1.75996 11.0899 1.5 9.87694 1.5Z" fill="#1D61FF"/>
<path fill-rule="evenodd" clip-rule="evenodd" d="M19.7467 2.50653C20.0842 2.84823 20.0842 3.40225 19.7467 3.74396L10.6488 12.9553C10.2382 13.3709 9.58078 13.3965 9.13994 13.0139L4.9924 9.41459C4.63 9.1001 4.58803 8.54771 4.89866 8.1808C5.20928 7.81389 5.75487 7.7714 6.11726 8.08589L9.83079 11.3086L18.5245 2.50653C18.862 2.16482 19.4092 2.16482 19.7467 2.50653Z" fill="#1D61FF"/>
</svg>
