<svg width="20" height="20" viewBox="0 0 20 20" fill="none" xmlns="http://www.w3.org/2000/svg">
<path fill-rule="evenodd" clip-rule="evenodd" d="M10 8.5C11.933 8.5 13.5 6.933 13.5 5C13.5 3.067 11.933 1.5 10 1.5C8.067 1.5 6.5 3.067 6.5 5C6.5 6.933 8.067 8.5 10 8.5ZM10 10C12.7614 10 15 7.76142 15 5C15 2.23858 12.7614 0 10 0C7.23858 0 5 2.23858 5 5C5 7.76142 7.23858 10 10 10Z" fill="#1D61FF"/>
<path fill-rule="evenodd" clip-rule="evenodd" d="M12.0455 12.75H7.95455C4.62788 12.75 1.88901 15.2667 1.53801 18.5H18.462C18.111 15.2667 15.3721 12.75 12.0455 12.75ZM7.95455 11.25C3.56137 11.25 0 14.8114 0 19.2045C0 19.6439 0.356138 20 0.795455 20H19.2045C19.6439 20 20 19.6439 20 19.2045C20 14.8114 16.4386 11.25 12.0455 11.25H7.95455Z" fill="#1D61FF"/>
</svg>
