<svg width="340" height="340" viewBox="0 0 340 340" fill="none" xmlns="http://www.w3.org/2000/svg">
<rect width="5.82857" height="5.82857" rx="2.91428" transform="matrix(1 0 0 -1 167.086 5.82861)" fill="white"/>
<rect width="5.82857" height="5.82857" rx="2.91428" transform="matrix(1 0 0 -1 83.5428 89.3718)" fill="white"/>
<rect width="5.82857" height="5.82857" rx="2.91428" transform="matrix(1 0 0 -1 0 5.82861)" fill="white"/>
<rect width="5.82857" height="5.82857" rx="2.91428" transform="matrix(1 0 0 -1 0 89.3718)" fill="white"/>
<rect width="5.82857" height="5.82857" rx="2.91428" transform="matrix(1 0 0 -1 0 172.914)" fill="white"/>
<rect width="5.82857" height="5.82857" rx="2.91428" transform="matrix(1 0 0 -1 0 340)" fill="white"/>
<rect width="5.82857" height="5.82857" rx="2.91428" transform="matrix(1 0 0 -1 167.086 256.457)" fill="white"/>
<rect width="5.82857" height="5.82857" rx="2.91428" transform="matrix(1 0 0 -1 0 256.457)" fill="white"/>
<rect width="5.82857" height="5.82857" rx="2.91428" transform="matrix(1 0 0 -1 250.628 5.82861)" fill="white"/>
<rect width="5.82857" height="5.82857" rx="2.91428" transform="matrix(1 0 0 -1 334.171 5.82861)" fill="white"/>
<rect width="5.82857" height="5.82857" rx="2.91428" transform="matrix(1 0 0 -1 250.628 172.914)" fill="white"/>
<rect width="5.82857" height="5.82857" rx="2.91428" transform="matrix(1 0 0 -1 250.628 340)" fill="white"/>
<rect width="5.82857" height="5.82857" rx="2.91428" transform="matrix(1 0 0 -1 334.171 172.914)" fill="white"/>
<rect width="5.82857" height="5.82857" rx="2.91428" transform="matrix(1 0 0 -1 334.171 256.457)" fill="white"/>
<rect width="5.82857" height="5.82857" rx="2.91428" transform="matrix(1 0 0 -1 334.171 340)" fill="white"/>
<rect width="5.82857" height="5.82857" rx="2.91428" transform="matrix(1 0 0 -1 83.5428 5.82861)" fill="white"/>
<rect width="5.82857" height="5.82857" rx="2.91428" transform="matrix(1 0 0 -1 83.5428 172.914)" fill="white"/>
<rect width="5.82857" height="5.82857" rx="2.91428" transform="matrix(1 0 0 -1 83.5428 340)" fill="white"/>
<rect width="5.82857" height="5.82857" rx="2.91428" transform="matrix(1 0 0 -1 250.628 89.3718)" fill="white"/>
<rect width="5.82857" height="5.82857" rx="2.91428" transform="matrix(1 0 0 -1 167.086 89.3718)" fill="white"/>
<rect width="5.82857" height="5.82857" rx="2.91428" transform="matrix(1 0 0 -1 334.171 89.3718)" fill="white"/>
<rect width="5.82857" height="5.82857" rx="2.91428" transform="matrix(1 0 0 -1 250.628 256.457)" fill="white"/>
<rect width="5.82857" height="5.82857" rx="2.91428" transform="matrix(1 0 0 -1 167.086 172.914)" fill="white"/>
<rect width="5.82857" height="5.82857" rx="2.91428" transform="matrix(1 0 0 -1 167.086 340)" fill="white"/>
<rect width="5.82857" height="5.82857" rx="2.91428" transform="matrix(1 0 0 -1 83.5428 256.457)" fill="white"/>
</svg>
