<svg width="40" height="36" viewBox="0 0 40 36" fill="none" xmlns="http://www.w3.org/2000/svg">
<path opacity="0.3" d="M40 0.000402868H3.55556C1.59556 0.000402868 1 0 0 0V36C0.796875 36 1.59556 36 3.55556 36H36.4444C38.4044 36 39.4219 36 40 36V3.47322C40 1.55883 40 0.97673 40 0.000402868ZM1.77778 1.73681C2.125 1.73681 2.57333 1.73681 3.55556 1.73681H38.2222C38.2222 1.95346 38.2222 2.51385 38.2222 3.47322V16.355L31.6489 10.5916C31.64 10.583 31.6356 10.5786 31.6267 10.5743C31.6178 10.5656 31.6133 10.5613 31.6089 10.5526C31.5956 10.5395 31.5778 10.5309 31.56 10.5178C31.5378 10.5005 31.5111 10.4788 31.4889 10.4614C31.4667 10.444 31.44 10.431 31.4133 10.418C31.3867 10.405 31.36 10.392 31.3333 10.3789C31.3067 10.3702 31.28 10.3616 31.2533 10.3529C31.2267 10.3442 31.2 10.3355 31.1733 10.3312C31.1467 10.3268 31.1156 10.3225 31.0889 10.3225C31.0622 10.3182 31.0356 10.3182 31.0044 10.3182C30.9733 10.3182 30.9467 10.3225 30.92 10.3225C30.8933 10.3268 30.8667 10.3268 30.8356 10.3312C30.8089 10.3355 30.7778 10.3442 30.7511 10.3529C30.7244 10.3616 30.6978 10.3702 30.6711 10.3789C30.6444 10.392 30.6178 10.405 30.5911 10.418C30.5644 10.431 30.5422 10.444 30.5156 10.4571C30.4889 10.4744 30.4667 10.4918 30.4444 10.5092C30.4267 10.5222 30.4089 10.5309 30.3956 10.5439C30.3867 10.5526 30.3822 10.5569 30.3778 10.5656C30.3733 10.5699 30.3644 10.5786 30.3556 10.583L19.4222 23.0997L13.3956 20.1521L13.3867 20.1435C13.3689 20.1304 13.3467 20.1218 13.3289 20.1131C13.2978 20.0957 13.2667 20.0783 13.2356 20.0653C13.2044 20.0523 13.1733 20.0436 13.1422 20.0349C13.12 20.0263 13.0933 20.0176 13.0711 20.0132C13.0356 20.0045 13 20.0045 12.9689 20.0002C12.9467 20.0002 12.9244 19.9959 12.9022 19.9959C12.8711 19.9959 12.8356 20.0002 12.8044 20.0045C12.7778 20.0089 12.7556 20.0089 12.7333 20.0132C12.7022 20.0176 12.6756 20.0263 12.6489 20.0349C12.6222 20.0436 12.5956 20.048 12.5689 20.0566C12.5422 20.0653 12.5156 20.0827 12.4889 20.0957C12.4622 20.1087 12.44 20.1174 12.4133 20.1348C12.3867 20.1521 12.36 20.1738 12.3333 20.1956C12.3156 20.2086 12.2933 20.2216 12.28 20.239L1.84889 32.9917C1.80889 32.8441 1.77778 32.6878 1.77778 32.5272V1.73681ZM36.4444 34.2636H3.55556C3.40444 34.2636 3.26222 34.2419 3.12444 34.2072L12.9911 21.9797L19.0622 24.9576C19.0667 24.9576 19.0667 24.962 19.0711 24.962C19.1378 25.0054 19.2089 25.0358 19.28 25.0575C19.2978 25.0618 19.3111 25.0662 19.3289 25.0705C19.4044 25.0879 19.48 25.1009 19.5556 25.1009C19.6222 25.1009 19.6889 25.0922 19.7511 25.0792C19.7689 25.0749 19.7867 25.0662 19.8089 25.0618C19.8533 25.0488 19.8978 25.0314 19.9378 25.0141C19.96 25.0054 19.9822 24.9924 20 24.9794C20.0356 24.9576 20.0711 24.9359 20.1067 24.9099C20.1289 24.8925 20.1467 24.8752 20.1689 24.8578C20.1778 24.8491 20.1911 24.8404 20.2044 24.8274L31 12.4583L38.2222 18.8858V34.2636C38 34.2636 37.4267 34.2636 36.4444 34.2636ZM12.8889 12.4189C14.6044 12.4189 16 11.0558 16 9.38014C16 7.70451 14.6044 6.34142 12.8889 6.34142C11.1733 6.34142 9.77778 7.70451 9.77778 9.38014C9.77778 11.0558 11.1733 12.4189 12.8889 12.4189ZM12.8889 8.07784C13.6222 8.07784 14.2222 8.66387 14.2222 9.38014C14.2222 10.0964 13.6222 10.6825 12.8889 10.6825C12.1556 10.6825 11.5556 10.0964 11.5556 9.38014C11.5556 8.66387 12.1556 8.07784 12.8889 8.07784Z" fill="#1F191B"/>
</svg>
