<svg width="14" height="14" viewBox="0 0 14 14" fill="none" xmlns="http://www.w3.org/2000/svg">
<mask id="path-1-inside-1" fill="white">
<path fill-rule="evenodd" clip-rule="evenodd" d="M14 0H0V14H14V0ZM6.70711 9.70711L11.7071 4.70711L10.2929 3.29289L6 7.58579L3.70711 5.29289L2.29289 6.70711L5.29289 9.70711L6 10.4142L6.70711 9.70711Z"/>
</mask>
<path fill-rule="evenodd" clip-rule="evenodd" d="M14 0H0V14H14V0ZM6.70711 9.70711L11.7071 4.70711L10.2929 3.29289L6 7.58579L3.70711 5.29289L2.29289 6.70711L5.29289 9.70711L6 10.4142L6.70711 9.70711Z" fill="black"/>
<path d="M0 0V-1H-1V0H0ZM14 0H15V-1H14V0ZM0 14H-1V15H0V14ZM14 14V15H15V14H14ZM11.7071 4.70711L12.4142 5.41421L13.1213 4.70711L12.4142 4L11.7071 4.70711ZM10.2929 3.29289L11 2.58579L10.2929 1.87868L9.58579 2.58579L10.2929 3.29289ZM6 7.58579L5.29289 8.29289L6 9L6.70711 8.29289L6 7.58579ZM3.70711 5.29289L4.41421 4.58579L3.70711 3.87868L3 4.58579L3.70711 5.29289ZM2.29289 6.70711L1.58579 6L0.878679 6.70711L1.58579 7.41421L2.29289 6.70711ZM5.29289 9.70711L6 9L5.29289 9.70711ZM6 10.4142L5.29289 11.1213L6 11.8284L6.70711 11.1213L6 10.4142ZM0 1H14V-1H0V1ZM1 14V0H-1V14H1ZM14 13H0V15H14V13ZM13 0V14H15V0H13ZM11 4L6 9L7.41421 10.4142L12.4142 5.41421L11 4ZM9.58579 4L11 5.41421L12.4142 4L11 2.58579L9.58579 4ZM6.70711 8.29289L11 4L9.58579 2.58579L5.29289 6.87868L6.70711 8.29289ZM3 6L5.29289 8.29289L6.70711 6.87868L4.41421 4.58579L3 6ZM3 7.41421L4.41421 6L3 4.58579L1.58579 6L3 7.41421ZM6 9L3 6L1.58579 7.41421L4.58579 10.4142L6 9ZM6.70711 9.70711L6 9L4.58579 10.4142L5.29289 11.1213L6.70711 9.70711ZM6 9L5.29289 9.70711L6.70711 11.1213L7.41421 10.4142L6 9Z" fill="black" mask="url(#path-1-inside-1)"/>
</svg>