<svg t="1611041422475" class="icon" viewBox="0 0 1024 1024" version="1.1" xmlns="http://www.w3.org/2000/svg" p-id="803" width="200" height="200"><path d="M512-5.81530905C225.90704238-5.81530905-5.81530905 225.90704238-5.81530905 512a517.50461986 517.50461986 0 0 0 354.08210846 491.30316444c25.89076502 4.50499318 35.5739117-11.02946608 35.5739117-24.64800829 0-12.27222282-0.67316031-53.02428801-0.6731603-96.41721007-130.07520594 23.97484919-163.73320059-31.69029689-174.08950636-60.84329957-5.85131259-14.91308089-31.06891852-60.84329836-53.07606874-73.16730312-18.12353539-9.68314668-44.01430164-33.65799466-0.6731603-34.27937302 40.80384592-0.67316031 69.90506667 37.54160947 79.63999406 53.07606873 46.60337778 78.29367467 121.06521956 56.28652445 150.78781869 42.71976296 4.55677511-33.65799466 18.12353539-56.28652445 33.03661629-69.23190636-115.21390577-12.94538311-235.60596502-57.63284385-235.60596504-255.6971994 0-56.33830517 20.03945245-102.88990223 53.07606874-139.18875497-5.17815349-12.94538311-23.30168889-66.02145185 5.17815349-137.22105719 0 0 43.34114133-13.56676149 142.39920947 53.12785067a480.53260683 480.53260683 0 0 1 129.45382757-17.50215703c44.01430164 0 88.02860206 5.79953186 129.45382634 17.4503763 99.00628741-67.31599053 142.39920947-53.02428801 142.39921069-53.024288 28.47984238 71.19960534 10.35630577 124.27567408 5.17815228 137.22105719 32.98483556 36.24707201 53.07606873 82.17728948 53.07606995 139.13697303 0 198.73751586-121.01343763 242.75181629-236.22734462 255.6971994 18.74491377 16.15583763 34.95253333 47.22475615 34.95253334 95.79583169 0 69.23190636-0.67316031 124.89705245-0.6731591 142.39921069 0 13.56676149 9.73492739 29.72259911 35.62569243 24.54444563A518.64381273 518.64381273 0 0 0 1029.81530905 512c0-286.09295762-231.72235022-517.81530905-517.81530905-517.81530905z" fill="#000000" p-id="804"></path></svg>