<svg width="20" height="13" viewBox="0 0 20 13" fill="none" xmlns="http://www.w3.org/2000/svg">
    <path fill-rule="evenodd" clip-rule="evenodd" d="M10 12.5C4.47715 12.5 0 6.25 0 6.25C0 6.25 4.47715 0 10 0C15.5228 0 20 6.25 20 6.25C20 6.25 15.5228 12.5 10 12.5ZM3.90923 8.23965C3.07511 7.51945 2.39567 6.79536 1.92443 6.25C2.39567 5.70464 3.07511 4.98055 3.90923 4.26035C5.62795 2.77636 7.7818 1.5 10 1.5C12.2182 1.5 14.3721 2.77636 16.0908 4.26035C16.9249 4.98055 17.6043 5.70464 18.0756 6.25C17.6043 6.79536 16.9249 7.51945 16.0908 8.23965C14.3721 9.72364 12.2182 11 10 11C7.7818 11 5.62795 9.72364 3.90923 8.23965ZM12.0007 6C12.0007 7.10457 11.1052 8 10.0007 8C8.89608 8 8.00065 7.10457 8.00065 6C8.00065 4.89543 8.89608 4 10.0007 4C11.1052 4 12.0007 4.89543 12.0007 6ZM13.5007 6C13.5007 7.933 11.9336 9.5 10.0007 9.5C8.06765 9.5 6.50065 7.933 6.50065 6C6.50065 4.067 8.06765 2.5 10.0007 2.5C11.9336 2.5 13.5007 4.067 13.5007 6Z" fill="#131927"/>
</svg>
