<svg width="20" height="16" viewBox="0 0 20 16" fill="none" xmlns="http://www.w3.org/2000/svg">
    <path d="M16.1363 0.219669C16.4292 -0.0732239 16.9041 -0.0732226 17.197 0.21967C17.4899 0.512564 17.4899 0.987437 17.197 1.28033L15.2733 3.204C18.111 5.05226 20 7.68932 20 7.68932C20 7.68932 15.5228 13.9393 10 13.9393C8.4668 13.9393 7.01419 13.4576 5.71558 12.7617L3.29056 15.1868C2.99767 15.4796 2.5228 15.4796 2.2299 15.1868C1.93701 14.8939 1.93701 14.419 2.2299 14.1261L4.40021 11.9558C1.74508 10.1254 0 7.68932 0 7.68932C0 7.68932 4.47715 1.43932 10 1.43932C11.393 1.43932 12.7195 1.83694 13.9244 2.43159L16.1363 0.219669ZM12.7945 3.56155C11.8945 3.175 10.9532 2.93932 10 2.93932C7.7818 2.93932 5.62795 4.21568 3.90923 5.69967C3.07511 6.41987 2.39567 7.14396 1.92443 7.68932C2.39567 8.23468 3.07511 8.95877 3.90923 9.67897C4.40038 10.103 4.92706 10.5102 5.48062 10.8754L7.04354 9.31246C6.69975 8.77084 6.50065 8.12833 6.50065 7.43932C6.50065 5.50632 8.06765 3.93932 10.0007 3.93932C10.6897 3.93932 11.3322 4.13842 11.8738 4.48221L12.7945 3.56155ZM6.83084 11.6465C7.84276 12.1332 8.91366 12.4393 10 12.4393C12.2182 12.4393 14.3721 11.163 16.0908 9.67897C16.9249 8.95877 17.6043 8.23468 18.0756 7.68932C17.6043 7.14396 16.9249 6.41987 16.0908 5.69967C15.5021 5.19139 14.8624 4.70746 14.1865 4.29084L12.9395 5.53778C13.2945 6.08528 13.5007 6.73823 13.5007 7.43932C13.5007 9.37232 11.9336 10.9393 10.0007 10.9393C9.29956 10.9393 8.64661 10.7332 8.09911 10.3782L6.83084 11.6465ZM10.0007 5.43932C10.2715 5.43932 10.5297 5.49315 10.7653 5.5907L8.15203 8.20397C8.05448 7.9684 8.00065 7.71015 8.00065 7.43932C8.00065 6.33475 8.89608 5.43932 10.0007 5.43932ZM11.8354 6.64194L9.20327 9.27405C9.44757 9.38036 9.71722 9.43932 10.0007 9.43932C11.1052 9.43932 12.0007 8.54389 12.0007 7.43932C12.0007 7.15589 11.9417 6.88624 11.8354 6.64194Z" fill="#131927"/>
    <path d="M16.1363 0.219669C16.4292 -0.0732239 16.9041 -0.0732226 17.197 0.21967C17.4899 0.512564 17.4899 0.987437 17.197 1.28033L15.2733 3.204C18.111 5.05226 20 7.68932 20 7.68932C20 7.68932 15.5228 13.9393 10 13.9393C8.4668 13.9393 7.01419 13.4576 5.71558 12.7617L3.29056 15.1868C2.99767 15.4796 2.5228 15.4796 2.2299 15.1868C1.93701 14.8939 1.93701 14.419 2.2299 14.1261L4.40021 11.9558C1.74508 10.1254 0 7.68932 0 7.68932C0 7.68932 4.47715 1.43932 10 1.43932C11.393 1.43932 12.7195 1.83694 13.9244 2.43159L16.1363 0.219669ZM12.7945 3.56155C11.8945 3.175 10.9532 2.93932 10 2.93932C7.7818 2.93932 5.62795 4.21568 3.90923 5.69967C3.07511 6.41987 2.39567 7.14396 1.92443 7.68932C2.39567 8.23468 3.07511 8.95877 3.90923 9.67897C4.40038 10.103 4.92706 10.5102 5.48062 10.8754L7.04354 9.31246C6.69975 8.77084 6.50065 8.12833 6.50065 7.43932C6.50065 5.50632 8.06765 3.93932 10.0007 3.93932C10.6897 3.93932 11.3322 4.13842 11.8738 4.48221L12.7945 3.56155ZM6.83084 11.6465C7.84276 12.1332 8.91366 12.4393 10 12.4393C12.2182 12.4393 14.3721 11.163 16.0908 9.67897C16.9249 8.95877 17.6043 8.23468 18.0756 7.68932C17.6043 7.14396 16.9249 6.41987 16.0908 5.69967C15.5021 5.19139 14.8624 4.70746 14.1865 4.29084L12.9395 5.53778C13.2945 6.08528 13.5007 6.73823 13.5007 7.43932C13.5007 9.37232 11.9336 10.9393 10.0007 10.9393C9.29956 10.9393 8.64661 10.7332 8.09911 10.3782L6.83084 11.6465ZM10.0007 5.43932C10.2715 5.43932 10.5297 5.49315 10.7653 5.5907L8.15203 8.20397C8.05448 7.9684 8.00065 7.71015 8.00065 7.43932C8.00065 6.33475 8.89608 5.43932 10.0007 5.43932ZM11.8354 6.64194L9.20327 9.27405C9.44757 9.38036 9.71722 9.43932 10.0007 9.43932C11.1052 9.43932 12.0007 8.54389 12.0007 7.43932C12.0007 7.15589 11.9417 6.88624 11.8354 6.64194Z" stroke="black"/>
</svg>
