<svg t="1612238956718" class="icon" viewBox="0 0 1024 1024" version="1.1" xmlns="http://www.w3.org/2000/svg" p-id="875" width="200" height="200"><path d="M512 512m-520.50026815 0a520.50026815 520.50026815 0 1 0 1041.0005363 0 520.50026815 520.50026815 0 1 0-1041.0005363 0Z" fill="#F9D65D" p-id="876"></path><path d="M512 635.92863528c-24.78572705 0-49.57145411-24.78572705-49.57145411-49.57145412V222.83318435c0-24.78572705 24.78572705-49.57145411 49.57145411-49.57145411s49.57145411 24.78572705 49.57145411 49.57145411V594.61909019c0 16.52381804-24.78572705 41.3095451-49.57145411 41.30954509z" fill="#FFFFFF" p-id="877"></path><path d="M512 801.16681565m-57.83336313 0a57.83336313 57.83336313 0 1 0 115.66672626 0 57.83336313 57.83336313 0 1 0-115.66672626 0Z" fill="#FFFFFF" p-id="878"></path></svg>