<svg width="33" height="18" viewBox="0 0 33 18" fill="none" xmlns="http://www.w3.org/2000/svg">
    <rect x="0.5" y="0.5" width="32" height="17" stroke="black"/>
    <path d="M4.759 5.146V13H6.376V7.489H6.398L8.323 13H9.654L11.579 7.434H11.601V13H13.218V5.146H10.787L9.049 10.547H9.027L7.19 5.146H4.759ZM16.7185 9.964L17.7415 7.082H17.7635L18.7535 9.964H16.7185ZM16.8835 5.146L13.9135 13H15.6515L16.2675 11.251H19.2045L19.7985 13H21.5915L18.6545 5.146H16.8835ZM24.1938 8.886L21.4548 13H23.3908L25.1398 10.283L26.8558 13H28.9128L26.1738 8.897L28.6928 5.146H26.8008L25.2058 7.654L23.6658 5.146H21.6638L24.1938 8.886Z" fill="black"/>
</svg>
