<svg width="14" height="12" viewBox="0 0 14 12" fill="none" xmlns="http://www.w3.org/2000/svg">
<path opacity="0.6" fill-rule="evenodd" clip-rule="evenodd" d="M10.4696 11.2639C10.653 11.3938 10.8894 11.4262 11.1001 11.3465C11.3108 11.2662 11.4657 11.0863 11.5124 10.8681C12.0073 8.54236 13.2077 2.65559 13.6582 0.539956C13.6924 0.380501 13.6354 0.21478 13.5101 0.108287C13.3848 0.00179286 13.2111 -0.0289593 13.0562 0.0285587C10.6684 0.9124 3.31463 3.67156 0.308888 4.78376C0.11811 4.85438 -0.00603777 5.03775 0.000226572 5.23878C0.0070604 5.44038 0.142598 5.61521 0.337931 5.67387C1.6859 6.07706 3.45529 6.638 3.45529 6.638C3.45529 6.638 4.28219 9.1352 4.71329 10.4051C4.76739 10.5646 4.89211 10.6899 5.05669 10.7332C5.2207 10.7759 5.3961 10.7309 5.51854 10.6153C6.21103 9.96152 7.28167 8.95068 7.28167 8.95068C7.28167 8.95068 9.31587 10.4422 10.4696 11.2639ZM4.19958 6.32227L5.15575 9.47608L5.36817 7.47889C5.36817 7.47889 9.06242 4.14684 11.1684 2.2476C11.2299 2.19179 11.2384 2.0984 11.1872 2.03291C11.1365 1.96742 11.0431 1.95204 10.973 1.99646C8.53223 3.55514 4.19958 6.32227 4.19958 6.32227Z" fill="white"/>
</svg>
