<svg width="14" height="11" viewBox="0 0 14 11" fill="none" xmlns="http://www.w3.org/2000/svg">
<g opacity="0.6">
<path fill-rule="evenodd" clip-rule="evenodd" d="M12.3508 1.73906C12.9441 1.39585 13.3993 0.851654 13.613 0.20338C13.0575 0.521956 12.4436 0.752347 11.7887 0.877076C11.2661 0.336848 10.5191 0 9.69243 0C8.10647 0 6.82127 1.24332 6.82127 2.77661C6.82127 2.99429 6.8451 3.20641 6.89441 3.409C4.50807 3.29301 2.39209 2.18872 0.974585 0.507656C0.727241 0.919182 0.585901 1.39585 0.585901 1.9043C0.585901 2.86718 1.09292 3.71725 1.86371 4.21616C1.39285 4.20186 0.949932 4.07555 0.562071 3.86899V3.90315C0.562071 5.24895 1.55145 6.37152 2.86705 6.62574C2.62546 6.69089 2.37237 6.72346 2.10941 6.72346C1.92452 6.72346 1.74373 6.70677 1.56953 6.6742C1.93438 7.7769 2.99525 8.58089 4.25251 8.60234C3.26889 9.34754 2.03052 9.79084 0.685332 9.79084C0.453601 9.79084 0.224335 9.77893 0 9.75271C1.27123 10.54 2.78077 11 4.40289 11C9.68668 11 12.5743 6.76874 12.5743 3.09916C12.5743 2.97841 12.5726 2.85844 12.5669 2.74007C13.1281 2.3484 13.6162 1.85902 14 1.30211C13.4848 1.52297 12.9309 1.67232 12.3508 1.73906Z" fill="white"/>
</g>
</svg>
