<svg width="15" height="13" viewBox="0 0 15 13" fill="none" xmlns="http://www.w3.org/2000/svg">
<g opacity="0.6">
<path fill-rule="evenodd" clip-rule="evenodd" d="M14.191 2.20246L14.1936 2.2048C14.2143 2.22113 14.2211 2.24997 14.2068 2.27336L9.89078 9.28677L6.78784 4.24458L9.26037 0.226507C9.34907 0.0825763 9.51272 0 9.6772 0C9.71692 0 9.75651 0.0061218 9.79528 0.0160527C9.82616 0.023943 9.85663 0.0337379 9.88561 0.0482942L14.1804 2.19569L14.1853 2.19813C14.1876 2.19922 14.1893 2.20085 14.191 2.20246L14.191 2.20246ZM5.4259 7.90339V3.32959L9.49132 9.9361L5.4259 7.90339ZM10.1022 10.2417L13.4486 11.9149C13.8841 12.1327 14.2371 11.9802 14.2371 11.5745V3.52246L10.1022 10.2417ZM0.525659 0.113882L4.72018 2.21121C4.73583 2.21897 4.74576 2.23502 4.74576 2.25243V11.5739C4.74576 11.8721 4.58468 12.0498 4.35505 12.0498C4.27356 12.0498 4.18337 12.0273 4.08868 11.98L0.394244 10.1328C0.177396 10.0244 0 9.73735 0 9.49493V0.438745C0 0.200267 0.12883 0.0581055 0.312484 0.0581055C0.377783 0.0581055 0.449884 0.0760627 0.525659 0.113882Z" fill="white"/>
</g>
</svg>
