<svg width="32" height="39" viewBox="0 0 32 39" fill="none" xmlns="http://www.w3.org/2000/svg">
<path fill-rule="evenodd" clip-rule="evenodd" d="M9.16962 26.2128L13.33 27.3192V25.8724L13.6696 25.532H16.047V27.2341V28.4256H13.4998L10.3583 27.0639L9.16962 26.2128Z" fill="#CDBDB2"/>
<path fill-rule="evenodd" clip-rule="evenodd" d="M22.7546 26.2128L18.6791 27.3192V25.8724L18.3395 25.532H15.9621V27.2341V28.4256H18.5093L21.6508 27.0639L22.7546 26.2128Z" fill="#CDBDB2"/>
<path fill-rule="evenodd" clip-rule="evenodd" d="M13.6697 23.064L13.3301 25.8725L13.7546 25.532H18.1697L18.6791 25.8725L18.3395 23.064L17.6603 22.6384L14.264 22.7235L13.6697 23.064Z" fill="#393939"/>
<path fill-rule="evenodd" clip-rule="evenodd" d="M11.3777 4.08521L13.4155 8.85116L14.3494 22.7235H17.6608L18.6796 8.85116L20.5476 4.08521H11.3777Z" fill="#F89C35"/>
<path fill-rule="evenodd" clip-rule="evenodd" d="M2.4625 14.5532L0.085144 21.4468L6.02854 21.1064H9.84929V18.1277L9.67948 12L8.83043 12.6809L2.4625 14.5532Z" fill="#F89D35"/>
<path fill-rule="evenodd" clip-rule="evenodd" d="M6.96271 15.3193L13.925 15.4895L13.1608 19.064L9.8495 18.213L6.96271 15.3193Z" fill="#D87C30"/>
<path fill-rule="evenodd" clip-rule="evenodd" d="M6.96271 15.4043L9.8495 18.1277V20.8511L6.96271 15.4043Z" fill="#EA8D3A"/>
<path fill-rule="evenodd" clip-rule="evenodd" d="M9.84937 18.2129L13.2456 19.064L14.3494 22.7235L13.5852 23.1491L9.84937 20.9363V18.2129Z" fill="#F89D35"/>
<path fill-rule="evenodd" clip-rule="evenodd" d="M9.84886 20.9363L9.16962 26.2129L13.6696 23.0639L9.84886 20.9363Z" fill="#EB8F35"/>
<path fill-rule="evenodd" clip-rule="evenodd" d="M13.9248 15.4895L14.3493 22.7235L13.0757 19.0214L13.9248 15.4895Z" fill="#EA8E3A"/>
<path fill-rule="evenodd" clip-rule="evenodd" d="M5.9436 21.0214L9.84926 20.9363L9.17002 26.2129L5.9436 21.0214Z" fill="#D87C30"/>
<path fill-rule="evenodd" clip-rule="evenodd" d="M1.95307 28.5108L9.17005 26.213L5.94363 21.0215L0.085144 21.447L1.95307 28.5108Z" fill="#EB8F35"/>
<path fill-rule="evenodd" clip-rule="evenodd" d="M13.4155 8.85107L9.76459 11.9149L6.96271 15.3192L13.925 15.5745L13.4155 8.85107Z" fill="#E8821E"/>
<path fill-rule="evenodd" clip-rule="evenodd" d="M9.16962 26.2129L13.6696 23.064L13.33 25.7874V27.3193L10.2734 26.7235L9.16962 26.2129Z" fill="#DFCEC3"/>
<path fill-rule="evenodd" clip-rule="evenodd" d="M22.7546 26.2129L18.3395 23.064L18.6791 25.7874V27.3193L21.7357 26.7235L22.7546 26.2129Z" fill="#DFCEC3"/>
<path fill-rule="evenodd" clip-rule="evenodd" d="M12.0566 17.0215L12.9906 18.9789L9.67928 18.1279L12.0566 17.0215Z" fill="#393939"/>
<path fill-rule="evenodd" clip-rule="evenodd" d="M1.86755 0.0852051L13.4147 8.85116L11.4619 4.0852L1.86755 0.0852051Z" fill="#E88F35"/>
<path fill-rule="evenodd" clip-rule="evenodd" d="M1.86851 0.0852051L0.34021 4.76606L1.18927 9.87244L0.594927 10.2129L1.44398 10.9788L0.764738 11.5746L1.6987 12.4256L1.10436 12.9363L2.46285 14.6384L8.83078 12.681C8.83078 12.681 13.5006 8.93627 13.4157 8.85116C13.3308 8.76606 1.86851 0.0852051 1.86851 0.0852051Z" fill="#8E5A30"/>
<path fill-rule="evenodd" clip-rule="evenodd" d="M29.4622 14.5532L31.8396 21.4468L25.8962 21.1064H22.0754V18.1277L22.2453 12L23.0943 12.6809L29.4622 14.5532Z" fill="#F89D35"/>
<path fill-rule="evenodd" clip-rule="evenodd" d="M24.9621 15.3193L17.9998 15.4895L18.764 19.064L22.0753 18.213L24.9621 15.3193Z" fill="#D87C30"/>
<path fill-rule="evenodd" clip-rule="evenodd" d="M24.9621 15.4043L22.0753 18.1277V20.8511L24.9621 15.4043Z" fill="#EA8D3A"/>
<path fill-rule="evenodd" clip-rule="evenodd" d="M22.0757 18.2129L18.6795 19.064L17.5757 22.7235L18.3398 23.1491L22.0757 20.9363V18.2129Z" fill="#F89D35"/>
<path fill-rule="evenodd" clip-rule="evenodd" d="M22.0759 20.9363L22.7552 26.2129L18.3401 23.149L22.0759 20.9363Z" fill="#EB8F35"/>
<path fill-rule="evenodd" clip-rule="evenodd" d="M17.9999 15.4895L17.5754 22.7235L18.849 19.0214L17.9999 15.4895Z" fill="#EA8E3A"/>
<path fill-rule="evenodd" clip-rule="evenodd" d="M25.9814 21.0214L22.0757 20.9363L22.755 26.2129L25.9814 21.0214Z" fill="#D87C30"/>
<path fill-rule="evenodd" clip-rule="evenodd" d="M29.9717 28.5108L22.7547 26.213L25.9811 21.0215L31.8396 21.447L29.9717 28.5108Z" fill="#EB8F35"/>
<path fill-rule="evenodd" clip-rule="evenodd" d="M18.5093 8.85107L22.1602 11.9149L24.9621 15.3192L17.9998 15.5745L18.5093 8.85107Z" fill="#E8821E"/>
<path fill-rule="evenodd" clip-rule="evenodd" d="M19.8681 17.0215L18.9341 18.9789L22.2455 18.1279L19.8681 17.0215Z" fill="#393939"/>
<path fill-rule="evenodd" clip-rule="evenodd" d="M30.0572 0.0852051L18.51 8.85116L20.4629 4.0852L30.0572 0.0852051Z" fill="#E88F35"/>
<path fill-rule="evenodd" clip-rule="evenodd" d="M30.0562 0.0852051L31.5845 4.76606L30.7355 9.87244L31.3298 10.2129L30.4808 10.9788L31.16 11.5746L30.226 12.4256L30.8204 12.9363L29.4619 14.6384L23.094 12.681C23.094 12.681 18.4242 8.93627 18.5091 8.85116C18.594 8.76606 30.0562 0.0852051 30.0562 0.0852051Z" fill="#8E5A30"/>
</svg>
