<svg width="20" height="18" viewBox="0 0 20 18" fill="none" xmlns="http://www.w3.org/2000/svg">
<path fill-rule="evenodd" clip-rule="evenodd" d="M15.32 17.4522C15.5883 17.6534 15.9341 17.7037 16.2425 17.5802C16.5508 17.4557 16.7775 17.1769 16.8458 16.839C17.5699 13.2354 19.3266 4.11455 19.9857 0.836602C20.0357 0.589543 19.9524 0.332778 19.7691 0.167778C19.5857 0.0027779 19.3316 -0.0448693 19.1049 0.0442485C15.6108 1.41366 4.85022 5.68867 0.451988 7.4119C0.172828 7.52132 -0.00883492 7.80543 0.000331537 8.11691C0.0103313 8.42926 0.20866 8.70014 0.494487 8.79102C2.46694 9.41573 5.05605 10.2848 5.05605 10.2848C5.05605 10.2848 6.26602 14.154 6.89684 16.1216C6.97601 16.3687 7.1585 16.5628 7.39933 16.6299C7.63932 16.696 7.89599 16.6263 8.07515 16.4472C9.08846 15.4343 10.6551 13.8681 10.6551 13.8681C10.6551 13.8681 13.6317 16.179 15.32 17.4522ZM6.14519 9.79602L7.54433 14.6825L7.85515 11.5881C7.85515 11.5881 13.2609 6.42543 16.3425 3.48278C16.4325 3.39631 16.445 3.25161 16.37 3.15013C16.2958 3.04866 16.1591 3.02484 16.0566 3.09366C12.485 5.50867 6.14519 9.79602 6.14519 9.79602Z" fill="#252A2F"/>
</svg>
