<svg width="20" height="16" viewBox="0 0 20 16" fill="none" xmlns="http://www.w3.org/2000/svg">
<path fill-rule="evenodd" clip-rule="evenodd" d="M17.644 2.48437C18.4915 1.99408 19.1419 1.21665 19.4471 0.290543C18.6535 0.745651 17.7766 1.07478 16.841 1.25297C16.0944 0.481212 15.0273 0 13.8463 0C11.5807 0 9.74467 1.77617 9.74467 3.96659C9.74467 4.27756 9.77872 4.58059 9.84915 4.87C6.4401 4.7043 3.41727 3.12674 1.39226 0.725222C1.03892 1.31312 0.837002 1.99408 0.837002 2.72043C0.837002 4.09597 1.56131 5.31035 2.66244 6.02309C1.98979 6.00266 1.35705 5.82221 0.802958 5.52712V5.57593C0.802958 7.4985 2.21635 9.10216 4.09579 9.46534C3.75066 9.55841 3.38909 9.60494 3.01344 9.60494C2.74931 9.60494 2.49105 9.58111 2.24218 9.53457C2.7634 11.1099 4.27892 12.2584 6.07501 12.2891C4.66984 13.3536 2.90075 13.9869 0.979046 13.9869C0.648001 13.9869 0.320479 13.9699 0 13.9324C1.81605 15.0572 3.97253 15.7143 6.28984 15.7143C13.8381 15.7143 17.9633 9.66963 17.9633 4.42737C17.9633 4.25486 17.9609 4.08349 17.9527 3.91438C18.7545 3.35486 19.4518 2.65574 20 1.86016C19.264 2.17567 18.4727 2.38903 17.644 2.48437Z" fill="#252A2F"/>
</svg>
