<svg width="121" height="38" viewBox="0 0 121 38" fill="none" xmlns="http://www.w3.org/2000/svg">
<path d="M38.1315 13.8V9.792H41.6595C41.9955 9.792 42.3155 9.824 42.6195 9.888C42.9395 9.936 43.2195 10.032 43.4595 10.176C43.6995 10.32 43.8915 10.52 44.0355 10.776C44.1795 11.032 44.2515 11.36 44.2515 11.76C44.2515 12.48 44.0355 13 43.6035 13.32C43.1715 13.64 42.6195 13.8 41.9475 13.8H38.1315ZM34.3635 6.864V24H42.6675C43.4355 24 44.1795 23.904 44.8995 23.712C45.6355 23.52 46.2835 23.224 46.8435 22.824C47.4195 22.424 47.8755 21.912 48.2115 21.288C48.5475 20.648 48.7155 19.896 48.7155 19.032C48.7155 17.96 48.4515 17.048 47.9235 16.296C47.4115 15.528 46.6275 14.992 45.5715 14.688C46.3395 14.32 46.9155 13.848 47.2995 13.272C47.6995 12.696 47.8995 11.976 47.8995 11.112C47.8995 10.312 47.7635 9.64 47.4915 9.096C47.2355 8.552 46.8675 8.12 46.3875 7.8C45.9075 7.464 45.3315 7.224 44.6595 7.08C43.9875 6.936 43.2435 6.864 42.4275 6.864H34.3635ZM38.1315 21.072V16.368H42.2355C43.0515 16.368 43.7075 16.56 44.2035 16.944C44.6995 17.312 44.9475 17.936 44.9475 18.816C44.9475 19.264 44.8675 19.632 44.7075 19.92C44.5635 20.208 44.3635 20.44 44.1075 20.616C43.8515 20.776 43.5555 20.896 43.2195 20.976C42.8835 21.04 42.5315 21.072 42.1635 21.072H38.1315ZM53.926 17.808C53.926 17.312 53.974 16.824 54.07 16.344C54.166 15.864 54.326 15.44 54.55 15.072C54.79 14.704 55.102 14.408 55.486 14.184C55.87 13.944 56.35 13.824 56.926 13.824C57.502 13.824 57.982 13.944 58.366 14.184C58.766 14.408 59.078 14.704 59.302 15.072C59.542 15.44 59.71 15.864 59.806 16.344C59.902 16.824 59.95 17.312 59.95 17.808C59.95 18.304 59.902 18.792 59.806 19.272C59.71 19.736 59.542 20.16 59.302 20.544C59.078 20.912 58.766 21.208 58.366 21.432C57.982 21.656 57.502 21.768 56.926 21.768C56.35 21.768 55.87 21.656 55.486 21.432C55.102 21.208 54.79 20.912 54.55 20.544C54.326 20.16 54.166 19.736 54.07 19.272C53.974 18.792 53.926 18.304 53.926 17.808ZM50.518 17.808C50.518 18.8 50.67 19.696 50.974 20.496C51.278 21.296 51.71 21.984 52.27 22.56C52.83 23.12 53.502 23.552 54.286 23.856C55.07 24.16 55.95 24.312 56.926 24.312C57.902 24.312 58.782 24.16 59.566 23.856C60.366 23.552 61.046 23.12 61.606 22.56C62.166 21.984 62.598 21.296 62.902 20.496C63.206 19.696 63.358 18.8 63.358 17.808C63.358 16.816 63.206 15.92 62.902 15.12C62.598 14.304 62.166 13.616 61.606 13.056C61.046 12.48 60.366 12.04 59.566 11.736C58.782 11.416 57.902 11.256 56.926 11.256C55.95 11.256 55.07 11.416 54.286 11.736C53.502 12.04 52.83 12.48 52.27 13.056C51.71 13.616 51.278 14.304 50.974 15.12C50.67 15.92 50.518 16.816 50.518 17.808ZM77.2138 24V11.592H73.8058V18.096C73.8058 19.36 73.5978 20.272 73.1818 20.832C72.7658 21.376 72.0938 21.648 71.1658 21.648C70.3498 21.648 69.7818 21.4 69.4618 20.904C69.1418 20.392 68.9818 19.624 68.9818 18.6V11.592H65.5738V19.224C65.5738 19.992 65.6378 20.696 65.7658 21.336C65.9098 21.96 66.1498 22.496 66.4858 22.944C66.8218 23.376 67.2778 23.712 67.8538 23.952C68.4458 24.192 69.1978 24.312 70.1098 24.312C70.8298 24.312 71.5338 24.152 72.2218 23.832C72.9098 23.512 73.4698 22.992 73.9018 22.272H73.9738V24H77.2138ZM79.8004 11.592V24H83.2084V17.496C83.2084 16.232 83.4164 15.328 83.8324 14.784C84.2484 14.224 84.9204 13.944 85.8484 13.944C86.6644 13.944 87.2324 14.2 87.5524 14.712C87.8724 15.208 88.0324 15.968 88.0324 16.992V24H91.4404V16.368C91.4404 15.6 91.3684 14.904 91.2244 14.28C91.0964 13.64 90.8644 13.104 90.5284 12.672C90.1924 12.224 89.7284 11.88 89.1364 11.64C88.5604 11.384 87.8164 11.256 86.9044 11.256C86.1844 11.256 85.4804 11.424 84.7924 11.76C84.1044 12.08 83.5444 12.6 83.1124 13.32H83.0404V11.592H79.8004ZM102.475 15.96H105.811C105.763 15.16 105.571 14.472 105.235 13.896C104.899 13.304 104.459 12.816 103.915 12.432C103.387 12.032 102.779 11.736 102.091 11.544C101.419 11.352 100.715 11.256 99.979 11.256C98.971 11.256 98.075 11.424 97.291 11.76C96.507 12.096 95.843 12.568 95.299 13.176C94.755 13.768 94.339 14.48 94.051 15.312C93.779 16.128 93.643 17.016 93.643 17.976C93.643 18.904 93.795 19.76 94.099 20.544C94.403 21.312 94.827 21.976 95.371 22.536C95.915 23.096 96.571 23.536 97.339 23.856C98.123 24.16 98.979 24.312 99.907 24.312C101.555 24.312 102.907 23.88 103.963 23.016C105.019 22.152 105.659 20.896 105.883 19.248H102.595C102.483 20.016 102.203 20.632 101.755 21.096C101.323 21.544 100.699 21.768 99.883 21.768C99.355 21.768 98.907 21.648 98.539 21.408C98.171 21.168 97.875 20.864 97.651 20.496C97.443 20.112 97.291 19.688 97.195 19.224C97.099 18.76 97.051 18.304 97.051 17.856C97.051 17.392 97.099 16.928 97.195 16.464C97.291 15.984 97.451 15.552 97.675 15.168C97.915 14.768 98.219 14.448 98.587 14.208C98.955 13.952 99.411 13.824 99.955 13.824C101.411 13.824 102.251 14.536 102.475 15.96ZM116.16 16.464H110.616C110.632 16.224 110.68 15.952 110.76 15.648C110.856 15.344 111.008 15.056 111.216 14.784C111.44 14.512 111.728 14.288 112.08 14.112C112.448 13.92 112.904 13.824 113.448 13.824C114.28 13.824 114.896 14.048 115.296 14.496C115.712 14.944 116 15.6 116.16 16.464ZM110.616 18.624H119.568C119.632 17.664 119.552 16.744 119.328 15.864C119.104 14.984 118.736 14.2 118.224 13.512C117.728 12.824 117.088 12.28 116.304 11.88C115.52 11.464 114.6 11.256 113.544 11.256C112.6 11.256 111.736 11.424 110.952 11.76C110.184 12.096 109.52 12.56 108.96 13.152C108.4 13.728 107.968 14.416 107.664 15.216C107.36 16.016 107.208 16.88 107.208 17.808C107.208 18.768 107.352 19.648 107.64 20.448C107.944 21.248 108.368 21.936 108.912 22.512C109.456 23.088 110.12 23.536 110.904 23.856C111.688 24.16 112.568 24.312 113.544 24.312C114.952 24.312 116.152 23.992 117.144 23.352C118.136 22.712 118.872 21.648 119.352 20.16H116.352C116.24 20.544 115.936 20.912 115.44 21.264C114.944 21.6 114.352 21.768 113.664 21.768C112.704 21.768 111.968 21.52 111.456 21.024C110.944 20.528 110.664 19.728 110.616 18.624Z" fill="white"/>
<path fill-rule="evenodd" clip-rule="evenodd" d="M0.000475665 9.25C0.000475665 8.2835 0.783977 7.5 1.75048 7.5H7.58381C8.55031 7.5 9.33381 8.2835 9.33381 9.25C9.33381 10.2165 8.55031 11 7.58381 11H1.75048C0.783977 11 0.000475665 10.2165 0.000475665 9.25ZM18.5592 10.9783C18.8934 11.8853 18.429 12.8913 17.5221 13.2254L2.35546 18.8132C1.44855 19.1473 0.442499 18.6829 0.108375 17.776C-0.225748 16.8691 0.238584 15.8631 1.14549 15.529L16.3122 9.94123C17.2191 9.60711 18.2251 10.0714 18.5592 10.9783ZM18.5592 25.224C18.8934 26.1309 18.429 27.1369 17.5221 27.471L2.35546 33.0588C1.44855 33.3929 0.442499 32.9286 0.108375 32.0217C-0.225748 31.1147 0.238584 30.1087 1.14549 29.7746L16.3122 24.1868C17.2191 23.8527 18.2251 24.3171 18.5592 25.224ZM9.33381 33.75C9.33381 32.7835 10.1173 32 11.0838 32H16.9171C17.8836 32 18.6671 32.7835 18.6671 33.75C18.6671 34.7165 17.8836 35.5 16.9171 35.5H11.0838C10.1173 35.5 9.33381 34.7165 9.33381 33.75Z" fill="white"/>
<path fill-rule="evenodd" clip-rule="evenodd" d="M18.5505 17.955C18.8974 18.8571 18.4474 19.8696 17.5454 20.2166L2.37868 26.0499C1.47661 26.3969 0.46407 25.9469 0.117117 25.0448C-0.229836 24.1427 0.220181 23.1302 1.12226 22.7832L16.2889 16.9499C17.191 16.6029 18.2035 17.0529 18.5505 17.955Z" fill="white"/>
<path d="M40.4361 33.143H41.3978C41.3438 32.792 41.229 32.4841 41.0536 32.2193C40.8781 31.9483 40.6588 31.7236 40.3956 31.545C40.1324 31.3664 39.8321 31.2309 39.4946 31.1386C39.1572 31.0462 38.7995 31 38.4216 31C37.8682 31 37.3755 31.0924 36.9436 31.2771C36.5185 31.4557 36.1608 31.702 35.8706 32.0161C35.5871 32.3301 35.3712 32.6996 35.2227 33.1245C35.0742 33.5432 35 33.9928 35 34.4731C35 34.9534 35.0675 35.4029 35.2025 35.8217C35.3442 36.2404 35.5534 36.6037 35.8301 36.9116C36.1068 37.2195 36.4543 37.4628 36.8728 37.6414C37.2912 37.8138 37.7805 37.9 38.3406 37.9C39.2652 37.9 39.994 37.6691 40.5272 37.2072C41.0603 36.7454 41.3741 36.0988 41.4686 35.2675H40.5069C40.4867 35.5384 40.4259 35.7909 40.3247 36.0249C40.2235 36.2589 40.0818 36.4621 39.8995 36.6345C39.7241 36.8008 39.5115 36.9332 39.2618 37.0317C39.0188 37.1241 38.7388 37.1703 38.4216 37.1703C37.9897 37.1703 37.6185 37.0964 37.3081 36.9486C36.9976 36.8008 36.7412 36.6037 36.5387 36.3574C36.343 36.105 36.1979 35.8124 36.1034 35.4799C36.0089 35.1412 35.9617 34.7841 35.9617 34.4084C35.9617 34.0636 36.0089 33.7311 36.1034 33.4108C36.1979 33.0906 36.343 32.8074 36.5387 32.561C36.7412 32.3086 36.9942 32.1084 37.2979 31.9606C37.6084 31.8129 37.9795 31.739 38.4115 31.739C38.9176 31.739 39.3529 31.856 39.7173 32.09C40.0885 32.324 40.3281 32.675 40.4361 33.143Z" fill="white"/>
<path d="M46.7091 31.157V37.7522H51.7301V37.0133H47.6708V34.7317H51.4264V33.9928H47.6708V31.896H51.6998V31.157H46.7091Z" fill="white"/>
<path d="M56.9468 31.157V37.7522H57.9085V34.9349H60.257C60.4932 34.9349 60.6822 34.9688 60.8239 35.0365C60.9656 35.0981 61.0804 35.1843 61.1681 35.2952C61.2558 35.3999 61.3199 35.5261 61.3604 35.6739C61.4009 35.8155 61.4347 35.9664 61.4617 36.1265C61.4954 36.2866 61.5157 36.4498 61.5224 36.6161C61.5292 36.7823 61.5359 36.9394 61.5427 37.0871C61.5494 37.2288 61.5629 37.3581 61.5831 37.4751C61.6101 37.5921 61.6574 37.6845 61.7249 37.7522H62.7979C62.6967 37.6414 62.6191 37.5151 62.5651 37.3735C62.5178 37.2257 62.4807 37.0718 62.4537 36.9116C62.4267 36.7515 62.4099 36.5884 62.4031 36.4221C62.3964 36.2558 62.3862 36.0926 62.3727 35.9325C62.3525 35.7724 62.3221 35.6185 62.2816 35.4707C62.2479 35.3229 62.1905 35.1905 62.1095 35.0735C62.0353 34.9503 61.9307 34.8456 61.7957 34.7594C61.6675 34.6732 61.4988 34.6116 61.2896 34.5747V34.5562C61.7282 34.4454 62.0454 34.2391 62.2411 33.9373C62.4436 33.6356 62.5448 33.2846 62.5448 32.8843C62.5448 32.3486 62.3491 31.9268 61.9577 31.6189C61.573 31.311 61.0365 31.157 60.3481 31.157H56.9468ZM59.9128 34.196H57.9085V31.896H60.2975C60.7497 31.896 61.077 32.0007 61.2795 32.21C61.4819 32.4194 61.5831 32.6904 61.5831 33.0229C61.5831 33.2631 61.5359 33.4601 61.4414 33.6141C61.3537 33.7618 61.2322 33.8819 61.077 33.9743C60.9285 34.0605 60.7531 34.119 60.5506 34.1498C60.3481 34.1806 60.1356 34.196 59.9128 34.196Z" fill="white"/>
<path d="M69.3879 31.896V37.7522H70.3496V31.896H72.7589V31.157H66.9786V31.896H69.3879Z" fill="white"/>
<path d="M77.6505 31.157V37.7522H78.6122V31.157H77.6505Z" fill="white"/>
<path d="M84.279 31.157V37.7522H85.2407V34.7317H88.561V33.9928H85.2407V31.896H89.0267V31.157H84.279Z" fill="white"/>
<path d="M94.1815 31.157V37.7522H95.1432V31.157H94.1815Z" fill="white"/>
<path d="M100.81 31.157V37.7522H105.831V37.0133H101.772V34.7317H105.527V33.9928H101.772V31.896H105.801V31.157H100.81Z" fill="white"/>
<path d="M112.009 37.0133V31.896H113.629C114.074 31.896 114.449 31.9545 114.753 32.0715C115.056 32.1823 115.303 32.3486 115.492 32.5703C115.687 32.7858 115.826 33.0506 115.907 33.3647C115.994 33.6726 116.038 34.0236 116.038 34.4177C116.038 34.8241 115.991 35.172 115.897 35.4614C115.809 35.7447 115.694 35.9818 115.552 36.1727C115.411 36.3636 115.249 36.5145 115.066 36.6253C114.891 36.7361 114.712 36.8224 114.53 36.8839C114.348 36.9394 114.176 36.9763 114.014 36.9948C113.852 37.0071 113.717 37.0133 113.609 37.0133H112.009ZM111.048 31.157V37.7522H113.528C114.128 37.7522 114.648 37.6752 115.087 37.5213C115.525 37.3673 115.886 37.1456 116.17 36.8562C116.453 36.5606 116.663 36.2004 116.798 35.7755C116.933 35.3444 117 34.8518 117 34.2976C117 33.2384 116.7 32.4502 116.099 31.9329C115.498 31.4157 114.641 31.157 113.528 31.157H111.048Z" fill="white"/>
</svg>
