<svg width="19" height="28" viewBox="0 0 19 28" fill="none" xmlns="http://www.w3.org/2000/svg">
<path fill-rule="evenodd" clip-rule="evenodd" d="M0.000393962 1.44941C0.000393962 0.648924 0.649318 0 1.44981 0H7.39611C8.1966 0 8.84552 0.648924 8.84552 1.44941C8.84552 2.2499 8.1966 2.89882 7.39611 2.89882H1.44981C0.649318 2.89882 0.000393962 2.2499 0.000393962 1.44941ZM18.2702 3.32686C18.547 4.078 18.1624 4.91125 17.4113 5.18798L1.95087 10.8839C1.19974 11.1606 0.366493 10.7761 0.0897601 10.0249C-0.186973 9.2738 0.197604 8.44055 0.948736 8.16382L16.4091 2.46789C17.1603 2.19115 17.9935 2.57573 18.2702 3.32686ZM18.2702 17.8484C18.547 18.5995 18.1624 19.4327 17.4113 19.7095L1.95087 25.4054C1.19974 25.6821 0.366493 25.2976 0.0897601 24.5464C-0.186973 23.7953 0.197604 22.9621 0.948736 22.6853L16.4091 16.9894C17.1603 16.7127 17.9935 17.0972 18.2702 17.8484ZM9.51448 26.4239C9.51448 25.6234 10.1634 24.9745 10.9639 24.9745H16.9102C17.7107 24.9745 18.3596 25.6234 18.3596 26.4239C18.3596 27.2244 17.7107 27.8733 16.9102 27.8733H10.9639C10.1634 27.8733 9.51448 27.2244 9.51448 26.4239Z" fill="black"/>
<path fill-rule="evenodd" clip-rule="evenodd" d="M18.263 10.4427C18.5504 11.1898 18.1776 12.0284 17.4305 12.3158L1.97011 18.2621C1.22298 18.5494 0.384359 18.1767 0.0970002 17.4296C-0.190358 16.6825 0.182362 15.8438 0.929494 15.5565L16.3899 9.61018C17.137 9.32283 17.9756 9.69555 18.263 10.4427Z" fill="black"/>
</svg>
